<svg width="25" height="24" viewBox="0 0 25 24" fill="none" xmlns="http://www.w3.org/2000/svg">
<g clip-path="url(#clip0_1_247)">
<path d="M16.9634 4.90878C15.7278 3.67313 13.7244 3.67313 12.4887 4.90878L6.59985 10.7977C4.55111 12.8464 4.55111 16.1681 6.59985 18.2168C8.64858 20.2655 11.9702 20.2655 14.019 18.2168L20.644 11.5918L22.0582 13.006L15.4332 19.631C12.6034 22.4608 8.01542 22.4608 5.18563 19.631C2.35585 16.8012 2.35585 12.2132 5.18563 9.38346L11.0745 3.49457C13.0912 1.47787 16.3609 1.47787 18.3776 3.49457C20.3943 5.51126 20.3943 8.78098 18.3776 10.7977L12.4887 16.6866C11.2851 17.8902 9.33369 17.8902 8.13008 16.6866C6.92647 15.483 6.92647 13.5315 8.13008 12.3279L14.7551 5.7029L16.1693 7.11712L9.54429 13.7421C9.12173 14.1647 9.12173 14.8498 9.54429 15.2723C9.96685 15.6949 10.652 15.6949 11.0745 15.2723L16.9634 9.38346C18.1991 8.14781 18.1991 6.14443 16.9634 4.90878Z" fill="#8E8E8E"/>
</g>
<defs>
<clipPath id="clip0_1_247">
<rect width="24" height="24" fill="white" transform="translate(0.46875)"/>
</clipPath>
</defs>
</svg>
