<svg width="25" height="24" viewBox="0 0 25 24" fill="none" xmlns="http://www.w3.org/2000/svg">
<g clip-path="url(#clip0_1_249)">
<path d="M17.6099 6.26241C16.5695 5.22203 14.8827 5.22203 13.8423 6.26241L7.9534 12.1513C6.09993 14.0048 6.09993 17.0098 7.9534 18.8633C9.80687 20.7168 12.8119 20.7168 14.6654 18.8633L21.2904 12.2383L23.4117 14.3596L16.7867 20.9846C13.7617 24.0097 8.85712 24.0097 5.83208 20.9846C2.80704 17.9596 2.80704 13.055 5.83208 10.03L11.721 4.14109C13.9329 1.92913 17.5192 1.92913 19.7312 4.14109C21.9431 6.35305 21.9431 9.93934 19.7312 12.1513L13.8423 18.0402C12.4434 19.4391 10.1754 19.4391 8.77652 18.0402C7.37765 16.6413 7.37765 14.3733 8.77652 12.9744L15.4015 6.34942L17.5228 8.47075L10.8978 15.0957C10.6705 15.323 10.6705 15.6916 10.8978 15.9189C11.1251 16.1462 11.4937 16.1462 11.721 15.9189L17.6099 10.03C18.6502 8.9896 18.6502 7.3028 17.6099 6.26241Z" fill="#8E8E8E"/>
</g>
<defs>
<clipPath id="clip0_1_249">
<rect width="24" height="24" fill="white" transform="translate(0.46875)"/>
</clipPath>
</defs>
</svg>
