<svg width="25" height="24" viewBox="0 0 25 24" fill="none" xmlns="http://www.w3.org/2000/svg">
<path d="M11.625 15V7H13.625V15H11.625Z" fill="#8E8E8E"/>
<path d="M11.625 18V16H13.625V18H11.625Z" fill="#8E8E8E"/>
<path d="M23.625 12C23.625 18.0751 18.7001 23 12.625 23C6.54987 23 1.625 18.0751 1.625 12C1.625 5.92487 6.54987 1 12.625 1C18.7001 1 23.625 5.92487 23.625 12ZM21.625 12C21.625 7.02944 17.5956 3 12.625 3C7.65444 3 3.625 7.02944 3.625 12C3.625 16.9706 7.65444 21 12.625 21C17.5956 21 21.625 16.9706 21.625 12Z" fill="#8E8E8E"/>
</svg>
