<svg width="14" height="14" viewBox="0 0 14 14" fill="none" xmlns="http://www.w3.org/2000/svg">
<path fill-rule="evenodd" clip-rule="evenodd" d="M6.99984 0.666992C6.29245 0.666827 5.60011 0.87129 5.0063 1.25573C4.41249 1.64017 3.94256 2.18817 3.65317 2.83366C3.61273 2.92517 3.57139 3.01629 3.52917 3.10699L3.48384 3.19499C3.46181 3.2312 3.43307 3.26288 3.39917 3.28833C3.36199 3.30873 3.32127 3.32185 3.27917 3.32699C3.25517 3.33166 3.20584 3.33366 2.99984 3.33366C2.381 3.33366 1.78751 3.57949 1.34992 4.01708C0.912337 4.45466 0.666504 5.04815 0.666504 5.66699C0.666504 6.28583 0.912337 6.87932 1.34992 7.31691C1.78751 7.75449 2.381 8.00033 2.99984 8.00033H3.44784L4.1145 7.33366H2.99984C2.55781 7.33366 2.13389 7.15806 1.82133 6.8455C1.50877 6.53294 1.33317 6.10902 1.33317 5.66699C1.33317 5.22496 1.50877 4.80104 1.82133 4.48848C2.13389 4.17592 2.55781 4.00033 2.99984 4.00033H3.03584C3.1865 4.00033 3.31117 4.00033 3.4105 3.98033C3.5305 3.95633 3.64917 3.92033 3.76117 3.84699C3.87317 3.77499 3.9545 3.68166 4.0265 3.58166C4.06517 3.52833 4.09984 3.45899 4.13117 3.39299C4.16406 3.32233 4.20695 3.2281 4.25984 3.11033L4.26117 3.10699C4.4978 2.57852 4.88227 2.1298 5.36821 1.81496C5.85415 1.50011 6.42081 1.33258 6.99984 1.33258C7.57886 1.33258 8.14552 1.50011 8.63146 1.81496C9.11741 2.1298 9.50188 2.57852 9.7385 3.10699L9.73984 3.11099C9.79273 3.22833 9.83562 3.32233 9.8685 3.39299C9.89984 3.45899 9.9345 3.52766 9.97317 3.58166C10.0445 3.68166 10.1265 3.77499 10.2385 3.84766C10.3505 3.92033 10.4692 3.95633 10.5892 3.98099C10.6885 4.00099 10.8132 4.00099 10.9638 4.00033H10.9998C11.4419 4.00033 11.8658 4.17592 12.1783 4.48848C12.4909 4.80104 12.6665 5.22496 12.6665 5.66699C12.6665 6.10902 12.4909 6.53294 12.1783 6.8455C11.8658 7.15806 11.4419 7.33366 10.9998 7.33366H9.88517L10.5518 8.00033H10.9998C11.3063 8.00033 11.6097 7.93997 11.8928 7.82271C12.1759 7.70545 12.4331 7.53358 12.6498 7.31691C12.8664 7.10024 13.0383 6.84301 13.1556 6.55992C13.2728 6.27683 13.3332 5.97341 13.3332 5.66699C13.3332 5.36057 13.2728 5.05716 13.1556 4.77406C13.0383 4.49097 12.8664 4.23375 12.6498 4.01708C12.4331 3.80041 12.1759 3.62853 11.8928 3.51127C11.6097 3.39401 11.3063 3.33366 10.9998 3.33366C10.7938 3.33366 10.7445 3.33166 10.7212 3.32699C10.679 3.32165 10.6383 3.3083 10.6012 3.28766C10.567 3.26228 10.5381 3.2306 10.5158 3.19433L10.5052 3.17633L10.4705 3.10633C10.4283 3.01584 10.3869 2.92495 10.3465 2.83366C10.0571 2.18817 9.58719 1.64017 8.99338 1.25573C8.39957 0.87129 7.70723 0.666827 6.99984 0.666992Z" fill="white"/>
<path d="M6.99983 7.00063L6.76383 6.76463L6.99983 6.5293L7.23583 6.76463L6.99983 7.00063ZM7.33317 13.0006C7.33317 13.089 7.29805 13.1738 7.23554 13.2363C7.17303 13.2988 7.08824 13.334 6.99983 13.334C6.91143 13.334 6.82664 13.2988 6.76413 13.2363C6.70162 13.1738 6.6665 13.089 6.6665 13.0006H7.33317ZM4.09717 9.4313L6.76383 6.76463L7.23583 7.23663L4.56917 9.9033L4.09717 9.4313ZM7.23583 6.76463L9.9025 9.4313L9.4305 9.9033L6.76383 7.23663L7.23583 6.76463ZM7.33317 7.00063V13.0006H6.6665V7.00063H7.33317Z" fill="white"/>
</svg>
