<svg width="21" height="20" viewBox="0 0 21 20" fill="none" xmlns="http://www.w3.org/2000/svg">
<path d="M6.5 19H14.5C15.8261 19 17.0979 18.4732 18.0355 17.5355C18.9732 16.5979 19.5 15.3261 19.5 14V11C19.5 10.2044 19.1839 9.44129 18.6213 8.87868C18.0587 8.31607 17.2956 8 16.5 8H15.5V6C15.5 4.67392 14.9732 3.40215 14.0355 2.46447C13.0979 1.52678 11.8261 1 10.5 1H6.5C5.17392 1 3.90215 1.52678 2.96447 2.46447C2.02678 3.40215 1.5 4.67392 1.5 6V14C1.5 15.3261 2.02678 16.5979 2.96447 17.5355C3.90215 18.4732 5.17392 19 6.5 19Z" stroke="#CACACA" stroke-width="1.5" stroke-linecap="round" stroke-linejoin="round"/>
<path d="M5.5 6.5C5.5 6.10218 5.65804 5.72064 5.93934 5.43934C6.22064 5.15804 6.60218 5 7 5H10C10.3978 5 10.7794 5.15804 11.0607 5.43934C11.342 5.72064 11.5 6.10218 11.5 6.5C11.5 6.89782 11.342 7.27936 11.0607 7.56066C10.7794 7.84196 10.3978 8 10 8H7C6.60218 8 6.22064 7.84196 5.93934 7.56066C5.65804 7.27936 5.5 6.89782 5.5 6.5ZM5.5 13.5C5.5 13.1022 5.65804 12.7206 5.93934 12.4393C6.22064 12.158 6.60218 12 7 12H14C14.3978 12 14.7794 12.158 15.0607 12.4393C15.342 12.7206 15.5 13.1022 15.5 13.5C15.5 13.8978 15.342 14.2794 15.0607 14.5607C14.7794 14.842 14.3978 15 14 15H7C6.60218 15 6.22064 14.842 5.93934 14.5607C5.65804 14.2794 5.5 13.8978 5.5 13.5Z" stroke="#CACACA" stroke-width="1.5" stroke-linecap="round" stroke-linejoin="round"/>
</svg>
