<svg width="65" height="72" viewBox="0 0 65 72" fill="none" xmlns="http://www.w3.org/2000/svg">
<path d="M117.259 31.4352C121.75 37.2107 112.336 43.1573 105.933 46.6979L71.1323 65.9435C66.9547 68.2538 62.9409 72.2094 58.2198 71.5018C56.5879 71.2572 54.9403 70.5145 53.2335 69.4159L6.54954 44.0453C4.63019 43.0022 2.59642 41.8806 1.66265 39.9058C1.19398 38.9146 0.951172 37.834 0.951172 36.7401C0.951172 35.6461 1.19398 34.5655 1.66265 33.5743C2.59691 31.5984 4.61687 30.4564 6.51274 29.3689L52.5203 2.97844C56.6214 0.366722 59.1771 -0.484288 64.14 2.97844L115.582 29.888C116.272 30.3587 116.826 30.8794 117.259 31.4352Z" fill="#F47E42"/>
</svg>
