<svg width="37" height="36" viewBox="0 0 37 36" fill="none" xmlns="http://www.w3.org/2000/svg">
<path d="M10.58 11.04C10.9619 11.1514 11.3724 11.1065 11.7212 10.9152C12.0701 10.7239 12.3286 10.4019 12.44 10.02C12.5514 9.63809 12.5065 9.22757 12.3152 8.87875C12.1239 8.52993 11.8019 8.27139 11.42 8.16C10.67 7.941 10.13 7.71 9.7835 7.5C10.1405 7.2855 10.7045 7.0455 11.4875 6.822C13.22 6.327 15.6995 6 18.5 6C21.3005 6 23.78 6.327 25.5125 6.822C26.297 7.0455 26.8595 7.2855 27.2165 7.5C26.8715 7.71 26.3315 7.941 25.5815 8.16C25.2056 8.2763 24.8904 8.53564 24.704 8.88213C24.5175 9.22862 24.4746 9.6345 24.5846 10.0123C24.6946 10.3901 24.9487 10.7095 25.292 10.9018C25.6353 11.094 26.0404 11.1437 26.42 11.04C27.422 10.7475 28.34 10.3725 29.045 9.891C29.6975 9.4425 30.5 8.661 30.5 7.5C30.5 6.3255 29.678 5.538 29.015 5.0895C28.298 4.6065 27.3605 4.23 26.336 3.9375C24.269 3.345 21.5 3 18.5 3C15.5 3 12.731 3.345 10.664 3.9375C9.6395 4.23 8.702 4.6065 7.985 5.0895C7.322 5.5395 6.5 6.3255 6.5 7.5C6.5 8.661 7.3025 9.4425 7.955 9.891C8.66 10.3725 9.578 10.7475 10.58 11.04ZM18.5 24.75C16.19 24.75 14.747 22.2495 15.902 20.25C16.4375 19.3215 17.4275 18.75 18.5 18.75C20.81 18.75 22.253 21.2505 21.098 23.25C20.8347 23.706 20.456 24.0848 20 24.3481C19.5439 24.6114 19.0266 24.75 18.5 24.75Z" fill="#47B881"/>
<path opacity="0.3" d="M18.5 33C21.4837 33 24.3452 31.8147 26.455 29.705C28.5647 27.5952 29.75 24.7337 29.75 21.75C29.75 17.898 27.65 14.766 25.475 12.54C24.6104 11.6641 23.6813 10.8543 22.6955 10.1175C21.8045 9.4485 19.7675 8.1945 19.7675 8.1945C19.3812 7.9749 18.9444 7.85945 18.5 7.85945C18.0556 7.85945 17.6188 7.9749 17.2325 8.1945C16.2216 8.78069 15.2441 9.42269 14.3045 10.1175C13.3187 10.8543 12.3896 11.6641 11.525 12.54C9.35 14.766 7.25 17.898 7.25 21.75C7.25 24.7337 8.43526 27.5952 10.545 29.705C12.6548 31.8147 15.5163 33 18.5 33Z" fill="#47B881"/>
</svg>
