<svg width="41" height="40" viewBox="0 0 41 40" fill="none" xmlns="http://www.w3.org/2000/svg">
<path d="M20.5 1.33329L21.0973 0.141289C20.9119 0.048378 20.7074 0 20.5 0C20.2926 0 20.0881 0.048378 19.9027 0.141289L20.5 1.33329ZM12.5 22.6666V21.3333H11.1667V22.6666H12.5ZM23.1667 22.6666H24.5V21.3333H23.1667V22.6666ZM0.5 40H40.5V37.3333H0.5V40ZM19.9027 0.141289L3.90267 8.14129L5.09733 10.5253L21.0973 2.52529L19.9027 0.141289ZM0.5 16H40.5V13.3333H0.5V16ZM37.0973 8.14129L21.0973 0.141289L19.9027 2.52529L35.9027 10.5253L37.0973 8.14129ZM3.16667 14.6666V38.6666H5.83333V14.6666H3.16667ZM35.1667 14.6666V38.6666H37.8333V14.6666H35.1667ZM13.8333 38.6666V22.6666H11.1667V38.6666H13.8333ZM12.5 24H23.1667V21.3333H12.5V24ZM21.8333 22.6666V38.6666H24.5V22.6666H21.8333Z" fill="#B12F53"/>
</svg>
