<svg width="8" height="9" viewBox="0 0 8 9" fill="none" xmlns="http://www.w3.org/2000/svg">
<g clip-path="url(#clip0_1110_607)">
<path d="M0.666504 2.12118C0.666504 1.38477 1.26346 0.787842 1.99984 0.787842H5.99984C6.73622 0.787842 7.33317 1.38477 7.33317 2.12118V6.78784C7.33317 7.15601 7.03469 7.45451 6.6665 7.45451H1.33317C0.964981 7.45451 0.666504 7.15601 0.666504 6.78784V2.12118ZM1.99984 1.45451C1.63165 1.45451 1.33317 1.75301 1.33317 2.12118V2.78784H6.6665V2.12118C6.6665 1.75301 6.36803 1.45451 5.99984 1.45451H5.6665V2.12118H4.99984V1.45451H2.99984V2.12118H2.33317V1.45451H1.99984ZM1.33317 6.78784H6.6665V3.45451H1.33317V6.78784Z" fill="#4B4B4B"/>
</g>
<defs>
<clipPath id="clip0_1110_607">
<rect width="8" height="8" fill="white" transform="translate(0 0.121094)"/>
</clipPath>
</defs>
</svg>
