<svg width="17" height="16" viewBox="0 0 17 16" fill="none" xmlns="http://www.w3.org/2000/svg">
<path d="M11.8359 8.125L11.832 8.12598L11.458 7.00391H10.8809L11.542 8.99609H12.1221L12.4951 7.87695L12.4961 7.87598L12.5039 7.87402L12.8779 8.99609H13.458L14.1191 7.00391H13.542L13.168 8.12598M11.8359 8.125L11.8398 8.12598M11.8359 8.125L11.8398 8.12598M11.8359 8.125L11.8398 8.12402L11.8389 8.12305H11.8408L11.8398 8.12598M11.8398 8.12598L12.2139 7.00391H12.7861L13.1602 8.12598L13.1641 8.125M13.1641 8.125L13.168 8.12598M13.1641 8.125L13.168 8.12598M13.1641 8.125L13.168 8.12402L13.167 8.12305H13.1689L13.168 8.12598M7.83594 8.125L7.83203 8.12598L7.45801 7.00391H6.88086L7.54199 8.99609H8.12207L8.49512 7.87695L8.49609 7.87598L8.50391 7.87402L8.87793 8.99609H9.45801L10.1191 7.00391H9.54199L9.16797 8.12598M7.83594 8.125L7.83984 8.12598M7.83594 8.125L7.83984 8.12598M7.83594 8.125L7.83984 8.12402L7.83887 8.12305H7.84082L7.83984 8.12598M7.83984 8.12598L8.21387 7.00391H8.78613L9.16016 8.12598L9.16406 8.125M9.16406 8.125L9.16797 8.12598M9.16406 8.125L9.16797 8.12598M9.16406 8.125L9.16797 8.12402L9.16699 8.12305H9.16895L9.16797 8.12598M3.83594 8.125L3.83203 8.12598L3.45801 7.00391H2.88086L3.54199 8.99609H4.12207L4.49512 7.87695L4.49609 7.87598L4.50391 7.87402L4.87793 8.99609H5.45801L6.11914 7.00391H5.54199L5.16797 8.12598M3.83594 8.125L3.83984 8.12598M3.83594 8.125L3.83984 8.12598M3.83594 8.125L3.83984 8.12402L3.83887 8.12305H3.84082L3.83984 8.12598M3.83984 8.12598L4.21387 7.00391H4.78613L5.16016 8.12598L5.16406 8.125M5.16406 8.125L5.16797 8.12598M5.16406 8.125L5.16797 8.12598M5.16406 8.125L5.16797 8.12402L5.16699 8.12305H5.16895L5.16797 8.12598M8.5 0.00390625C9.23404 0.00390625 9.94208 0.0977524 10.624 0.285156C11.3059 0.472549 11.9437 0.740152 12.5371 1.08887C13.1306 1.43766 13.6692 1.85473 14.1533 2.33887C14.6375 2.823 15.0545 3.36422 15.4033 3.96289C15.752 4.56147 16.0196 5.19932 16.207 5.87598C16.3944 6.5527 16.4909 7.26075 16.4961 8C16.4961 8.73404 16.4022 9.44208 16.2148 10.124C16.0275 10.8059 15.7598 11.4437 15.4111 12.0371C15.0623 12.6306 14.6453 13.1692 14.1611 13.6533C13.677 14.1375 13.1358 14.5545 12.5371 14.9033C11.9385 15.252 11.3007 15.5196 10.624 15.707C9.9473 15.8944 9.23925 15.9909 8.5 15.9961C7.76596 15.9961 7.05792 15.9022 6.37598 15.7148C5.69411 15.5275 5.05626 15.2598 4.46289 14.9111C3.86942 14.5623 3.33082 14.1453 2.84668 13.6611C2.36255 13.177 1.94547 12.6358 1.59668 12.0371C1.24796 11.4385 0.980359 10.8033 0.792969 10.1318C0.605571 9.46033 0.509114 8.74967 0.503906 8C0.503906 7.26596 0.597752 6.55792 0.785156 5.87598C0.972549 5.19411 1.24015 4.55626 1.58887 3.96289C1.93766 3.36942 2.35473 2.83082 2.83887 2.34668C3.323 1.86255 3.86422 1.44547 4.46289 1.09668C5.06147 0.74796 5.69672 0.480359 6.36816 0.292969C6.95574 0.128995 7.57329 0.034251 8.2207 0.00976562L8.5 0.00390625ZM8.5 0.996094C7.85907 0.996094 7.24153 1.07935 6.64746 1.24609C6.0534 1.41285 5.49573 1.64794 4.97461 1.9502C4.45356 2.25243 3.97903 2.61928 3.55176 3.05176C3.1245 3.48423 2.76024 3.95616 2.45801 4.4668C2.15574 4.97752 1.91806 5.53518 1.74609 6.13965C1.57414 6.74413 1.49089 7.36427 1.49609 8C1.49609 8.64093 1.57935 9.25847 1.74609 9.85254C1.91285 10.4466 2.14794 11.0043 2.4502 11.5254C2.75243 12.0464 3.11928 12.521 3.55176 12.9482C3.98423 13.3755 4.45616 13.7398 4.9668 14.042C5.47752 14.3443 6.03518 14.5819 6.63965 14.7539C7.16869 14.9044 7.70972 14.9872 8.2627 15.002L8.5 15.0039C9.14093 15.0039 9.75847 14.9207 10.3525 14.7539C10.9466 14.5872 11.5043 14.3521 12.0254 14.0498C12.5464 13.7476 13.021 13.3807 13.4482 12.9482C13.8755 12.5158 14.2398 12.0438 14.542 11.5332C14.8443 11.0225 15.0819 10.4648 15.2539 9.86035C15.4259 9.25587 15.5091 8.63573 15.5039 8C15.5039 7.35907 15.4207 6.74153 15.2539 6.14746C15.0872 5.5534 14.8521 4.99573 14.5498 4.47461C14.2476 3.95356 13.8807 3.47903 13.4482 3.05176C13.0158 2.6245 12.5438 2.26024 12.0332 1.95801C11.5225 1.65574 10.9648 1.41806 10.3604 1.24609C9.83131 1.0956 9.29028 1.01284 8.7373 0.998047L8.5 0.996094Z" fill="#2B3990" stroke="#2B3990" stroke-width="0.0078125"/>
</svg>
