<svg width="13" height="16" viewBox="0 0 13 16" fill="none" xmlns="http://www.w3.org/2000/svg">
<path d="M4.89463 2.00806C4.89463 2.00806 4.29152 2.65165 4.79305 2.99852C5.29458 3.3454 8.34183 4.96692 8.34183 4.96692C8.46831 5.06028 8.56746 5.18508 8.62917 5.32861C8.69088 5.47214 8.71294 5.62926 8.69311 5.78395C8.65502 6.36695 8.7058 8.69475 8.7058 8.69475C8.68291 8.82238 8.63027 8.943 8.55204 9.04708C8.47381 9.15117 8.37215 9.23586 8.25507 9.29447C7.8657 9.4679 4.8523 11.267 4.8523 11.267C4.78487 11.3863 4.76212 11.5251 4.78804 11.6592C4.81397 11.7934 4.88692 11.9142 4.99409 12.0005C5.38346 12.2847 8.34183 13.8456 8.34183 13.8456C8.34183 13.8456 8.7439 14.1674 8.69311 14.5498C8.67025 15.033 8.67449 15.5172 8.7058 16L4.80575 13.7704C4.80575 13.7704 4.13281 13.4486 4.13281 12.805C4.13281 12.1614 4.15821 9.94433 4.15821 9.94433C4.19236 9.8276 4.25299 9.72009 4.33549 9.62994C4.41799 9.53979 4.52018 9.46937 4.63434 9.42402C5.05757 9.21506 8.30797 7.33443 8.30797 7.33443L8.2466 6.61561L4.57509 4.59706C4.47775 4.52827 4.39969 4.4362 4.34824 4.32948C4.2968 4.22276 4.27364 4.10488 4.28095 3.9869C4.27971 3.56261 4.30089 3.13854 4.34443 2.71643C4.34443 2.71643 4.26825 2.30896 4.89463 2.00806Z" fill="#2B3990"/>
<path d="M12.5976 2.89618L8.97898 4.89383C8.69965 5.1216 8.43725 5.0798 8.15157 4.89383L4.62183 2.97767C4.33615 2.73946 4.31076 2.38005 4.62183 2.16064L8.10078 0.162993C8.39281 -0.0229809 8.5748 -0.083579 8.9282 0.162993L12.5976 2.0896C12.9129 2.29856 12.8198 2.6705 12.5976 2.89618Z" fill="#83CBAA"/>
<path d="M8.34402 7.37006L4.73387 9.36771C4.45454 9.59547 4.19002 9.55368 3.90645 9.36771L0.374606 7.45155C0.314452 7.40134 0.266112 7.33877 0.232954 7.26822C0.199796 7.19766 0.182617 7.12082 0.182617 7.04304C0.182617 6.96526 0.199796 6.88841 0.232954 6.81786C0.266112 6.7473 0.314452 6.68474 0.374606 6.63452L3.85355 4.63687C4.14558 4.4509 4.32757 4.3903 4.68096 4.63687L8.34402 6.55303C8.66567 6.77243 8.57679 7.14438 8.34402 7.37006Z" fill="#B12F53"/>
<path d="M12.7925 11.8605L9.18019 13.8582C8.90086 14.086 8.63845 14.0421 8.35277 13.8582L4.82304 11.9399C4.76256 11.8899 4.71392 11.8274 4.68055 11.7568C4.64717 11.6863 4.62988 11.6093 4.62988 11.5314C4.62988 11.4535 4.64717 11.3766 4.68055 11.306C4.71392 11.2354 4.76256 11.1729 4.82304 11.1229L8.30199 9.12735C8.59402 8.94137 8.776 8.88078 9.1294 9.12735L12.7925 11.0435C13.1141 11.2629 13.021 11.6349 12.7925 11.8605Z" fill="#F47E42"/>
</svg>
