<svg width="16" height="18" viewBox="0 0 16 18" fill="none" xmlns="http://www.w3.org/2000/svg">
<path d="M4.80074 6.2002C4.80074 6.09411 4.84288 5.99237 4.91789 5.91735C4.99291 5.84234 5.09465 5.8002 5.20074 5.8002H7.60074C7.70682 5.8002 7.80857 5.84234 7.88358 5.91735C7.9586 5.99237 8.00074 6.09411 8.00074 6.2002C8.00074 6.30628 7.9586 6.40802 7.88358 6.48304C7.80857 6.55805 7.70682 6.6002 7.60074 6.6002H5.20074C5.09465 6.6002 4.99291 6.55805 4.91789 6.48304C4.84288 6.40802 4.80074 6.30628 4.80074 6.2002ZM5.20074 7.4002C5.09465 7.4002 4.99291 7.44234 4.91789 7.51735C4.84288 7.59237 4.80074 7.69411 4.80074 7.8002C4.80074 7.90628 4.84288 8.00802 4.91789 8.08304C4.99291 8.15805 5.09465 8.2002 5.20074 8.2002H6.80074C6.90682 8.2002 7.00857 8.15805 7.08358 8.08304C7.1586 8.00802 7.20074 7.90628 7.20074 7.8002C7.20074 7.69411 7.1586 7.59237 7.08358 7.51735C7.00857 7.44234 6.90682 7.4002 6.80074 7.4002H5.20074ZM6.40074 2.2002C5.56798 2.19992 4.74947 2.4163 4.02564 2.82807C3.30181 3.23985 2.69757 3.83286 2.27228 4.54884C1.84699 5.26481 1.61528 6.07911 1.59994 6.91173C1.58459 7.74435 1.78612 8.56663 2.18474 9.2978L1.61674 11.2898C1.59675 11.3597 1.59622 11.4338 1.6152 11.504C1.63418 11.5743 1.67195 11.638 1.72445 11.6884C1.77694 11.7387 1.84218 11.7738 1.91314 11.7898C1.98409 11.8059 2.05808 11.8023 2.12714 11.7794L3.99754 11.1562C4.63503 11.5246 5.34871 11.7414 6.08339 11.7898C6.81807 11.8382 7.55404 11.717 8.23437 11.4355C8.9147 11.154 9.52115 10.7198 10.0068 10.1664C10.4925 9.61299 10.8443 8.95531 11.0351 8.24419C11.2259 7.53308 11.2506 6.7876 11.1072 6.06542C10.9638 5.34325 10.6563 4.66374 10.2082 4.07946C9.76023 3.49518 9.18381 3.0218 8.52358 2.69593C7.86335 2.37006 7.13701 2.20044 6.40074 2.2002ZM2.40074 7.0002C2.40087 6.11268 2.69616 5.25041 3.24013 4.54914C3.78411 3.84786 4.54586 3.34742 5.40546 3.12659C6.26506 2.90576 7.1737 2.97708 7.98832 3.32933C8.80294 3.68158 9.47728 4.29476 9.90516 5.07232C10.3331 5.84988 10.4902 6.74766 10.3518 7.62433C10.2135 8.50099 9.78751 9.30675 9.14096 9.91475C8.49441 10.5227 7.66402 10.8985 6.78051 10.9827C5.897 11.067 5.01056 10.855 4.26074 10.3802C4.21058 10.3484 4.15398 10.3282 4.09503 10.321C4.03608 10.3138 3.97627 10.3198 3.91994 10.3386L2.59354 10.781L3.00154 9.35619C3.0164 9.30372 3.02038 9.24876 3.01323 9.1947C3.00607 9.14063 2.98794 9.0886 2.95994 9.0418C2.59358 8.42383 2.40042 7.7186 2.40074 7.0002ZM9.82154 13.3578L7.89994 12.3978C8.253 12.2991 8.5898 12.169 8.91034 12.0074L10.0007 12.553L13.6007 10.753V10.2002C13.6007 9.98802 13.5165 9.78454 13.3664 9.63451C13.2164 9.48448 13.0129 9.4002 12.8007 9.4002H11.4615C11.5842 9.14366 11.6866 8.877 11.7687 8.6002H12.8007C13.2251 8.6002 13.632 8.76877 13.9321 9.06882C14.2322 9.36888 14.4007 9.77585 14.4007 10.2002V14.2002C14.4007 14.6245 14.2322 15.0315 13.9321 15.3316C13.632 15.6316 13.2251 15.8002 12.8007 15.8002H7.20074C6.77639 15.8002 6.36942 15.6316 6.06937 15.3316C5.76931 15.0315 5.60074 14.6245 5.60074 14.2002V12.5442C5.86207 12.5815 6.12874 12.6002 6.40074 12.6002V14.2002C6.40074 14.4124 6.48502 14.6159 6.63505 14.7659C6.78508 14.9159 6.98856 15.0002 7.20074 15.0002H12.8007C13.0129 15.0002 13.2164 14.9159 13.3664 14.7659C13.5165 14.6159 13.6007 14.4124 13.6007 14.2002V11.6474L10.1799 13.3578C10.1243 13.3857 10.063 13.4002 10.0007 13.4002C9.93852 13.4002 9.87716 13.3857 9.82154 13.3578Z" fill="white"/>
</svg>
