<svg width="16" height="16" viewBox="0 0 16 16" fill="none" xmlns="http://www.w3.org/2000/svg">
<path d="M14 8C14 8.78793 13.8448 9.56815 13.5433 10.2961C13.2417 11.0241 12.7998 11.6855 12.2426 12.2426C11.6855 12.7998 11.0241 13.2417 10.2961 13.5433C9.56815 13.8448 8.78793 14 8 14C7.21207 14 6.43185 13.8448 5.7039 13.5433C4.97595 13.2417 4.31451 12.7998 3.75736 12.2426C3.20021 11.6855 2.75825 11.0241 2.45672 10.2961C2.15519 9.56815 2 8.78793 2 8C2 6.4087 2.63214 4.88258 3.75736 3.75736C4.88258 2.63214 6.4087 2 8 2C9.5913 2 11.1174 2.63214 12.2426 3.75736C13.3679 4.88258 14 6.4087 14 8Z" stroke="white" stroke-linecap="round" stroke-linejoin="round"/>
<path d="M6 10C6.56667 10.42 7.25667 10.6667 8 10.6667C8.74333 10.6667 9.43333 10.42 10 10M8.16667 2C7.92352 1.99999 7.68401 2.0591 7.46878 2.17222C7.25355 2.28534 7.06904 2.44909 6.93115 2.64935C6.79326 2.84962 6.70613 3.08041 6.67725 3.32184C6.64837 3.56327 6.67861 3.8081 6.76537 4.03524C6.85213 4.26238 6.99281 4.46503 7.17529 4.62572C7.35777 4.78642 7.57658 4.90034 7.81287 4.95769C8.04916 5.01503 8.29585 5.01408 8.53168 4.9549C8.76752 4.89573 8.98544 4.78011 9.16667 4.618M6.5 6.86667C6.35733 6.74 6.18467 6.66667 6 6.66667C5.81533 6.66667 5.64267 6.74 5.5 6.86667M10.5 6.86667C10.3573 6.74 10.1847 6.66667 10 6.66667C9.81533 6.66667 9.64267 6.74 9.5 6.86667" stroke="white" stroke-linecap="round" stroke-linejoin="round"/>
</svg>
