<svg width="23" height="20" viewBox="0 0 23 20" fill="none" xmlns="http://www.w3.org/2000/svg">
<path d="M1.5 3C1.5 2.46957 1.71071 1.96086 2.08579 1.58579C2.46086 1.21071 2.96957 1 3.5 1H9.5V19H3.5C2.96957 19 2.46086 18.7893 2.08579 18.4142C1.71071 18.0391 1.5 17.5304 1.5 17V3ZM13.5 1H19.5C20.0304 1 20.5391 1.21071 20.9142 1.58579C21.2893 1.96086 21.5 2.46957 21.5 3V8H13.5V1ZM13.5 12H21.5V17C21.5 17.5304 21.2893 18.0391 20.9142 18.4142C20.5391 18.7893 20.0304 19 19.5 19H13.5V12Z" stroke="#2B3990" stroke-width="2" stroke-linecap="round" stroke-linejoin="round"/>
</svg>
