<svg width="25" height="24" viewBox="0 0 25 24" fill="none" xmlns="http://www.w3.org/2000/svg">
<path d="M15.0233 4H6.4375V2H15.0233C15.5537 2 16.0624 2.21071 16.4375 2.58579L20.8517 7C21.2268 7.37507 21.4375 7.88378 21.4375 8.41421V19H19.4375V8.41421L15.0233 4Z" fill="#8E8E8E"/>
<path d="M3.4375 7C3.4375 5.89543 4.33293 5 5.4375 5H13.5514C14.088 5 14.6021 5.21567 14.9782 5.59853L17.8643 8.53691C18.2317 8.9109 18.4375 9.41416 18.4375 9.93838V20C18.4375 21.1046 17.5421 22 16.4375 22H5.4375C4.33293 22 3.4375 21.1046 3.4375 20V7ZM11.4375 7H5.4375V20H16.4375V12H11.4375V7ZM13.4375 7V10H16.4375V9.93838L13.5514 7H13.4375Z" fill="#8E8E8E"/>
</svg>
