<svg width="24" height="24" viewBox="0 0 24 24" fill="none" xmlns="http://www.w3.org/2000/svg">
<g clip-path="url(#clip0_6245_40435)">
<path fill-rule="evenodd" clip-rule="evenodd" d="M23.7 9.06601C23.63 8.13601 23.58 7.21601 23.5 6.28701C23.45 5.66701 23.4 5.04701 23.32 4.42801C23.32 4.29801 23.25 3.42801 23.18 3.05801C23.162 2.95291 23.1202 2.85331 23.0578 2.76683C22.9954 2.68035 22.914 2.60927 22.82 2.55901C21.6539 2.16677 20.4332 1.96091 19.203 1.94901C17.373 1.89901 15.475 2.10901 13.885 2.18901C12.886 2.23901 11.887 2.33901 10.967 2.44901C8.738 2.70901 6.519 3.07901 4.271 3.27901C4.18613 3.27901 4.10473 3.31272 4.04472 3.37273C3.98471 3.43275 3.951 3.51414 3.951 3.59901C3.951 3.68388 3.98471 3.76527 4.04472 3.82528C4.10473 3.88529 4.18613 3.91901 4.271 3.91901C6.529 3.76901 8.758 3.43901 11.007 3.20901C12.007 3.11901 13.006 3.01901 13.915 3.01901C15.495 2.96901 17.364 2.79901 19.163 2.88901C20.163 2.91601 21.154 3.07701 22.111 3.36901C22.001 3.64901 22.301 4.44801 22.311 4.54801L22.621 9.14501C22.671 9.88501 22.911 10.915 22.911 11.845C22.9663 12.3237 22.8376 12.8056 22.551 13.193C22.1557 13.6204 21.6393 13.9169 21.071 14.043C20.081 14.216 19.078 14.3 18.073 14.293C15.834 14.453 13.626 14.713 11.397 14.873C10.457 14.943 9.517 14.993 8.558 15.013C7.585 15.057 6.608 15.027 5.64 14.923C5.05895 14.8924 4.50245 14.6789 4.05 14.313C3.92871 14.1452 3.85292 13.9488 3.83 13.743C3.76 13.303 3.77 12.823 3.73 12.503C3.63 11.444 3.511 10.015 3.441 8.64601C3.371 7.27701 3.311 5.82701 3.341 4.78801C3.34117 4.71179 3.31232 4.63837 3.26031 4.58265C3.20831 4.52693 3.13704 4.49309 3.061 4.48801C2.98579 4.48796 2.9135 4.51714 2.85939 4.56938C2.80528 4.62162 2.77359 4.69284 2.771 4.76801V8.67601C2.771 10.105 2.911 11.514 3.001 12.564C3.011 13.076 3.051 13.5857 3.121 14.093C3.17565 14.3645 3.2958 14.6185 3.471 14.833C3.889 15.241 4.417 15.519 4.991 15.632C6.171 15.863 7.375 15.957 8.578 15.912C9.578 15.912 10.508 15.912 11.477 15.842C13.705 15.722 15.914 15.482 18.153 15.362C19.2154 15.3679 20.2761 15.2741 21.321 15.082C22.0908 14.9036 22.7883 14.4956 23.321 13.912C23.718 13.478 23.958 12.922 24 12.334C23.9871 11.2384 23.8867 10.1456 23.7 9.06601Z" fill="#4B4B4B"/>
<path fill-rule="evenodd" clip-rule="evenodd" d="M21.0022 16.8808C20.9408 16.865 20.8761 16.8678 20.8163 16.8888C20.7565 16.9098 20.7042 16.9481 20.6662 16.9988C20.6406 17.032 20.6222 17.0701 20.6122 17.1108C20.3688 18.0435 20.0716 18.9614 19.7222 19.8598C19.5262 20.3698 19.2352 20.8378 18.8622 21.2388C18.7922 21.1188 18.3632 21.2388 17.9532 21.1788C16.8232 20.9988 14.9552 20.5588 12.9062 20.0488C11.2862 19.6488 9.53822 19.1898 7.90922 18.7398C5.51922 18.1098 3.34122 17.5008 2.01222 17.0108C1.69069 16.8977 1.37671 16.764 1.07222 16.6108C0.997117 16.5763 0.92658 16.5327 0.86222 16.4808C0.816577 16.3173 0.816577 16.1444 0.86222 15.9808C0.92222 15.5718 1.07222 15.1418 1.13222 14.8428C1.26222 14.1928 1.43222 13.5628 1.59222 13.0128C1.91222 11.9638 2.21222 11.2238 2.21222 11.2238C2.22776 11.1859 2.23481 11.1451 2.23286 11.1042C2.23092 11.0633 2.22003 11.0234 2.20096 10.9871C2.18189 10.9509 2.15511 10.9193 2.1225 10.8945C2.08989 10.8698 2.05224 10.8525 2.01222 10.8438C1.97896 10.8273 1.94265 10.8179 1.90557 10.816C1.86849 10.8142 1.83143 10.82 1.79671 10.8332C1.76198 10.8463 1.73034 10.8665 1.70376 10.8924C1.67718 10.9183 1.65623 10.9494 1.64222 10.9838C1.64222 10.9838 1.30222 11.7338 0.93222 12.8038C0.73222 13.3638 0.53222 14.0028 0.36222 14.6728C0.211126 15.1265 0.0941339 15.5908 0.0122203 16.0618C-0.0207797 16.3318 0.0132203 16.6068 0.11222 16.8618C0.639638 17.3975 1.29286 17.7925 2.01222 18.0108C2.80222 18.3208 3.81122 18.6908 5.01022 19.0108C6.37022 19.4298 7.92922 19.8698 9.48822 20.2698C12.2912 21.0098 15.1342 21.5898 18.0032 22.0088C18.4302 22.0988 18.8752 22.0648 19.2832 21.9088C19.7807 21.3938 20.1593 20.7759 20.3922 20.0988C20.7276 19.1648 21.0009 18.2122 21.2122 17.2408C21.226 17.1656 21.2124 17.088 21.1739 17.0219C21.1353 16.9559 21.0745 16.9059 21.0022 16.8808ZM6.19022 11.3238C6.21822 11.5065 6.25822 11.6865 6.31022 11.8638C6.37503 11.9972 6.4848 12.1034 6.62022 12.1638C6.72598 12.2077 6.84293 12.2168 6.95419 12.1898C7.06545 12.1628 7.16527 12.1012 7.23922 12.0138C7.67922 11.6228 8.02222 11.1328 8.23922 10.5838C8.69922 9.49482 8.85922 8.13582 9.23822 7.13682C9.24864 7.09675 9.25093 7.055 9.24495 7.01404C9.23897 6.97307 9.22484 6.93371 9.2034 6.89829C9.18196 6.86287 9.15365 6.83211 9.12012 6.80781C9.0866 6.78351 9.04855 6.76618 9.00822 6.75682C8.96887 6.74064 8.92669 6.73246 8.88414 6.73277C8.84159 6.73308 8.79953 6.74187 8.76043 6.75864C8.72132 6.7754 8.68594 6.79979 8.65637 6.83038C8.62681 6.86098 8.60364 6.89717 8.58822 6.93682C8.20822 7.74682 7.91822 8.81582 7.50822 9.77482C7.38689 10.0548 7.24722 10.3248 7.08922 10.5848L6.86922 9.92482C6.67746 9.43116 6.51386 8.92702 6.37922 8.41482C6.23922 7.89582 6.12922 7.41582 6.02922 6.84682C6.02557 6.80901 6.01426 6.77234 5.99598 6.73904C5.9777 6.70574 5.95283 6.6765 5.9229 6.65311C5.89296 6.62973 5.85858 6.61268 5.82185 6.603C5.78511 6.59332 5.74679 6.59122 5.70922 6.59682C5.67237 6.60056 5.63662 6.61157 5.60406 6.62921C5.57149 6.64686 5.54275 6.67079 5.5195 6.69963C5.49624 6.72846 5.47894 6.76162 5.4686 6.79719C5.45825 6.83275 5.45506 6.87002 5.45922 6.90682C5.45922 7.46682 5.53922 8.01682 5.60922 8.56582C5.67389 9.12049 5.76722 9.67016 5.88922 10.2148L6.19022 11.3238ZM10.4172 11.8638C10.4595 11.868 10.5023 11.8633 10.5427 11.8502C10.5832 11.8372 10.6205 11.8159 10.6524 11.7877C10.6843 11.7596 10.7101 11.7252 10.7281 11.6867C10.7461 11.6482 10.756 11.6063 10.7572 11.5638C10.8572 10.9938 11.0272 10.4438 11.1572 9.87482C11.2472 9.50482 11.3372 9.12482 11.3972 8.74482C11.4972 8.07582 11.5072 7.42582 11.5572 6.74682C11.5696 6.67291 11.554 6.59703 11.5132 6.5341C11.4725 6.47118 11.4097 6.42577 11.3372 6.40682C11.2998 6.39957 11.2613 6.39976 11.2239 6.4074C11.1866 6.41503 11.1511 6.42996 11.1195 6.45132C11.0879 6.47268 11.0609 6.50006 11.0399 6.53189C11.0189 6.56372 11.0044 6.59938 10.9972 6.63682C10.8072 7.17682 10.5772 7.70682 10.4072 8.26582C10.3372 8.50582 10.2872 8.74582 10.2372 8.99582C10.1886 9.24018 10.1552 9.48732 10.1372 9.73582C10.0972 10.3252 10.0972 10.9145 10.1372 11.5038C10.1316 11.5459 10.1345 11.5887 10.1456 11.6296C10.1566 11.6706 10.1758 11.709 10.2018 11.7425C10.2279 11.776 10.2604 11.8039 10.2973 11.8248C10.3343 11.8456 10.3751 11.8589 10.4172 11.8638ZM14.1652 7.01682C14.2519 6.94482 14.3452 6.88482 14.4452 6.83682C14.7 6.70496 14.979 6.62668 15.2652 6.60682C15.4352 6.59216 15.6052 6.59216 15.7752 6.60682C15.851 6.61356 15.9265 6.59117 15.9863 6.54422C16.0461 6.49726 16.0858 6.42927 16.0973 6.35409C16.1087 6.2789 16.0911 6.20217 16.048 6.13951C16.0049 6.07685 15.9395 6.03298 15.8652 6.01682C15.664 5.97596 15.4602 5.94922 15.2552 5.93682C15.0457 5.91733 14.8348 5.91733 14.6252 5.93682C14.2893 5.99255 13.967 6.1113 13.6752 6.28682L13.2052 6.67682C13.0783 6.80883 12.9808 6.96614 12.9189 7.13847C12.857 7.3108 12.8323 7.49426 12.8462 7.67682C12.8793 7.88836 12.9708 8.08647 13.1103 8.24883C13.2499 8.41119 13.432 8.53137 13.6362 8.59582C14.0562 8.75582 14.5762 8.76582 15.0152 8.90582C15.1836 8.94123 15.331 9.04192 15.4252 9.18582C15.7252 9.66582 15.4252 10.0948 15.0452 10.3848C14.8052 10.5762 14.5296 10.7181 14.2343 10.8022C13.9391 10.8863 13.6301 10.911 13.3252 10.8748C13.2418 10.8558 13.1544 10.869 13.0802 10.9116C13.0061 10.9542 12.9508 11.0232 12.9252 11.1048C12.9132 11.1462 12.9096 11.1896 12.9147 11.2324C12.9199 11.2751 12.9336 11.3164 12.9551 11.3538C12.9765 11.3911 13.0053 11.4238 13.0397 11.4497C13.0741 11.4757 13.1134 11.4944 13.1552 11.5048C13.6406 11.6091 14.1433 11.6011 14.6251 11.4815C15.1068 11.3619 15.555 11.1339 15.9352 10.8148C16.2525 10.5673 16.4704 10.2142 16.5493 9.81964C16.6282 9.42508 16.5629 9.0153 16.3652 8.66482C16.1929 8.37611 15.934 8.14903 15.6252 8.01582C15.1352 7.78582 14.5052 7.81582 13.9952 7.63582C13.8952 7.63582 13.8052 7.63582 13.8052 7.51582C13.8022 7.41493 13.834 7.31607 13.8952 7.23582L14.1652 7.01682ZM17.8232 11.4738C17.9532 10.8838 18.0932 10.3038 18.2432 9.72482H18.6532C18.732 9.71404 18.8092 9.6939 18.8832 9.66482C19.0652 9.59682 19.2419 9.51682 19.4132 9.42482C19.4681 9.41386 19.5191 9.3887 19.5612 9.35185C19.6034 9.315 19.6351 9.26776 19.6532 9.21482C19.7532 9.72482 19.8232 10.2148 19.9132 10.7448C19.9156 10.7873 19.9268 10.8289 19.9459 10.8669C19.9651 10.9049 19.9919 10.9386 20.0246 10.9658C20.0574 10.993 20.0953 11.0132 20.1362 11.025C20.1771 11.0369 20.22 11.0402 20.2622 11.0348C20.3481 11.0248 20.4266 10.9814 20.4808 10.9141C20.535 10.8468 20.5607 10.7609 20.5522 10.6748C20.5522 9.98482 20.5022 9.27482 20.4122 8.57482C20.3572 8.08452 20.2464 7.60208 20.0822 7.13682C19.9531 6.7448 19.7494 6.38146 19.4822 6.06682C19.3031 5.87647 19.0687 5.74707 18.8122 5.69682C18.6712 5.69115 18.5321 5.73081 18.4153 5.81C18.2985 5.88919 18.2101 6.00374 18.1632 6.13682C18.0426 6.48149 17.9392 6.83149 17.8532 7.18682C17.7232 7.73682 17.6132 8.28582 17.5332 8.83582C17.4132 9.66582 17.3332 10.4848 17.2632 11.3238C17.256 11.3607 17.2563 11.3985 17.2641 11.4353C17.2718 11.472 17.2869 11.5068 17.3083 11.5375C17.3298 11.5683 17.3572 11.5945 17.389 11.6145C17.4207 11.6344 17.4562 11.6478 17.4932 11.6538C17.5606 11.6679 17.6309 11.6575 17.6913 11.6245C17.7518 11.5915 17.7985 11.5381 17.8232 11.4738ZM18.8832 7.53582V7.16582C18.9679 7.29649 19.0412 7.43316 19.1032 7.57582C19.2879 7.96716 19.4279 8.37382 19.5232 8.79582V8.92582C19.4908 8.89323 19.4516 8.86825 19.4084 8.85268C19.3651 8.83712 19.319 8.83136 19.2732 8.83582C19.0832 8.83582 18.9232 8.73582 18.7332 8.70582C18.6568 8.69698 18.5796 8.69698 18.5032 8.70582C18.6532 8.30582 18.7532 7.92582 18.8832 7.53582Z" fill="#4B4B4B"/>
</g>
<defs>
<clipPath id="clip0_6245_40435">
<rect width="24" height="24" fill="white"/>
</clipPath>
</defs>
</svg>
