<svg width="12" height="16" viewBox="0 0 12 16" fill="none" xmlns="http://www.w3.org/2000/svg">
<path d="M10.5 2.75H10.415V3.75H10.5C10.6326 3.75 10.7598 3.80268 10.8536 3.89645C10.9473 3.99021 11 4.11739 11 4.25V14.25C11 14.3826 10.9473 14.5098 10.8536 14.6036C10.7598 14.6973 10.6326 14.75 10.5 14.75H1.5C1.36739 14.75 1.24021 14.6973 1.14645 14.6036C1.05268 14.5098 1 14.3826 1 14.25V4.25C1 4.11739 1.05268 3.99021 1.14645 3.89645C1.24021 3.80268 1.36739 3.75 1.5 3.75H1.585V2.75H1.5C1.10218 2.75 0.720644 2.90804 0.43934 3.18934C0.158035 3.47064 0 3.85218 0 4.25V14.25C0 14.6478 0.158035 15.0294 0.43934 15.3107C0.720644 15.592 1.10218 15.75 1.5 15.75H10.5C10.8978 15.75 11.2794 15.592 11.5607 15.3107C11.842 15.0294 12 14.6478 12 14.25V4.25C12 3.85218 11.842 3.47064 11.5607 3.18934C11.2794 2.90804 10.8978 2.75 10.5 2.75Z" fill="white"/>
<path d="M9.5 1.75H8V0.25H4V1.75H2.5V4.75H9.5V1.75ZM8.5 3.75H3.5V2.75H5V1.25H7V2.75H8.5V3.75Z" fill="white"/>
<path d="M3 6.75H9V7.75H3V6.75ZM3 9.25H9V10.25H3V9.25ZM3 11.75H9V12.75H3V11.75Z" fill="white"/>
</svg>
