<svg width="25" height="24" viewBox="0 0 25 24" fill="none" xmlns="http://www.w3.org/2000/svg">
<path d="M7.625 4C7.625 2.89543 8.52043 2 9.625 2H15.625C16.7296 2 17.625 2.89543 17.625 4V5H22.625V7H2.625V5H7.625V4ZM9.625 5H15.625V4H9.625V5Z" fill="#8E8E8E"/>
<path d="M3.73057 8.44721L5.51943 7.55279L6.41385 9.34164C6.55271 9.61935 6.625 9.92558 6.625 10.2361V20H18.625V10.2361C18.625 9.92558 18.6973 9.61935 18.8361 9.34164L19.7306 7.55279L21.5194 8.44721L20.625 10.2361V20C20.625 21.1046 19.7296 22 18.625 22H6.625C5.52043 22 4.625 21.1046 4.625 20V10.2361L3.73057 8.44721Z" fill="#8E8E8E"/>
<path d="M13.625 10V18H15.625V10H13.625Z" fill="#8E8E8E"/>
<path d="M9.625 18V10H11.625V18H9.625Z" fill="#8E8E8E"/>
</svg>
