<svg width="25" height="24" viewBox="0 0 25 24" fill="none" xmlns="http://www.w3.org/2000/svg">
<path d="M18.5 19C18.5 19.7956 18.1839 20.5587 17.6213 21.1213C17.0587 21.6839 16.2956 22 15.5 22H8.5C7.70435 22 6.94129 21.6839 6.37868 21.1213C5.81607 20.5587 5.5 19.7956 5.5 19V7H4.5V4H9L10 3H14L15 4H19.5V7H18.5V19ZM6.5 7V19C6.5 19.5304 6.71071 20.0391 7.08579 20.4142C7.46086 20.7893 7.96957 21 8.5 21H15.5C16.0304 21 16.5391 20.7893 16.9142 20.4142C17.2893 20.0391 17.5 19.5304 17.5 19V7H6.5ZM18.5 6V5H14.5L13.5 4H10.5L9.5 5H5.5V6H18.5ZM8.5 9H9.5V19H8.5V9ZM14.5 9H15.5V19H14.5V9Z" fill="#F64C4C"/>
</svg>
