<svg width="80" height="80" viewBox="0 0 80 80" fill="none" xmlns="http://www.w3.org/2000/svg">
<path d="M35.3073 67.3324C35.3073 67.8823 35.1443 68.4197 34.8388 68.8769C34.5333 69.3341 34.0991 69.6904 33.5912 69.9008C33.0832 70.1112 32.5242 70.1663 31.985 70.059C31.4457 69.9517 30.9503 69.687 30.5615 69.2982C30.1728 68.9094 29.908 68.414 29.8007 67.8748C29.6935 67.3355 29.7485 66.7765 29.9589 66.2686C30.1693 65.7606 30.5256 65.3264 30.9828 65.0209C31.44 64.7155 31.9775 64.5524 32.5273 64.5524C32.8926 64.5518 33.2544 64.6232 33.5919 64.7627C33.9295 64.9022 34.2363 65.1069 34.4945 65.3652C34.7528 65.6235 34.9576 65.9302 35.097 66.2678C35.2365 66.6054 35.308 66.9672 35.3073 67.3324ZM52.5648 67.3324C52.5648 67.8823 52.4018 68.4197 52.0963 68.8769C51.7908 69.3341 51.3566 69.6904 50.8487 69.9008C50.3407 70.1112 49.7817 70.1663 49.2425 70.059C48.7032 69.9517 48.2078 69.687 47.819 69.2982C47.4303 68.9094 47.1655 68.414 47.0582 67.8748C46.951 67.3355 47.006 66.7765 47.2164 66.2686C47.4268 65.7606 47.7831 65.3264 48.2403 65.0209C48.6975 64.7155 49.235 64.5524 49.7848 64.5524C50.1501 64.5518 50.5119 64.6232 50.8494 64.7627C51.187 64.9022 51.4937 65.1069 51.752 65.3652C52.0103 65.6235 52.2151 65.9302 52.3545 66.2678C52.494 66.6054 52.5655 66.9672 52.5648 67.3324ZM24.9248 16.8499L25.0748 14.4199L27.5048 14.5699L27.3548 16.9999L24.9248 16.8499Z" fill="#B12F53"/>
<path d="M66.07 40.9575H66.065C62.7463 36.4279 58.3188 32.8276 53.2075 30.5025C52.2783 30.0906 51.3315 29.7195 50.37 29.39L50.47 29.155C51.0567 27.6306 51.3281 26.0031 51.2676 24.3708C51.2072 22.7385 50.8162 21.1355 50.1183 19.6587C49.4205 18.1818 48.4303 16.862 47.2076 15.7789C45.9849 14.6958 44.5552 13.8721 43.005 13.3575C41.4033 12.7805 39.715 12.4804 38.0125 12.47C37.9225 12.155 37.7225 10.7825 39.4625 7.075L35.9375 5L35.0925 6.165C34.1325 7.4925 33.205 8.775 32.335 10.04C31.3876 9.03577 30.0931 8.4305 28.715 8.3475L24.635 8.095H24.625L24.3 8.085C22.9117 8.08842 21.5766 8.6191 20.5648 9.56965C19.5529 10.5202 18.94 11.8196 18.85 13.205L18.5975 17.2925V17.3075C18.5174 18.749 19.0099 20.1639 19.9679 21.2441C20.9259 22.3242 22.2717 22.9823 23.7125 23.075L26.6325 23.255C26.4153 25.5598 26.8211 27.8806 27.8075 29.975C23.8121 31.6673 20.1896 34.131 17.1475 37.225C7.5 46.97 7.5 57.65 7.5 66.23V71.405L11.31 67.365C12.067 70.049 13.1856 72.6175 14.635 75H19.5925C17.1139 71.6874 15.4375 67.8451 14.695 63.775L20.2825 57.85L17.4075 66.8625L22.4825 63.17C31.4475 56.645 42.1525 55.145 54.2975 58.7125C56.5824 59.5503 59.0732 59.6466 61.416 58.9878C63.7587 58.3289 65.8342 56.9484 67.3475 55.0425C67.4525 54.8842 67.5542 54.7233 67.6525 54.56C67.9221 55.9994 68.0593 57.4605 68.0625 58.925C68.2044 64.5493 66.813 70.1062 64.0375 75H68.73C71.1028 69.9791 72.2819 64.4773 72.175 58.925C72.0895 52.4408 69.9538 46.1505 66.07 40.9575ZM34.61 14.815C34.9909 15.3862 35.5133 15.849 36.1262 16.1583C36.7391 16.4676 37.4217 16.6129 38.1075 16.58C39.3381 16.5939 40.5566 16.8241 41.7075 17.26C43.0585 17.7007 44.2661 18.4967 45.2039 19.5644C46.1417 20.6321 46.7752 21.9323 47.0379 23.3289C47.3007 24.7255 47.1831 26.167 46.6974 27.5025C46.2118 28.838 45.376 30.0184 44.2775 30.92L43.09 29.4575L43.08 29.4475C42.5359 28.7815 41.8031 28.2956 40.9779 28.0536C40.1526 27.8117 39.2734 27.8251 38.4559 28.092C37.6383 28.359 36.9207 28.8669 36.3971 29.5492C35.8736 30.2315 35.5687 31.0562 35.5225 31.915C33.8426 31.1988 32.4568 29.9318 31.5934 28.3227C30.7299 26.7135 30.4404 24.8582 30.7725 23.0625C31.3104 19.9424 32.5386 16.982 34.3675 14.3975C34.4424 14.5405 34.5241 14.6799 34.6125 14.815M43.3375 37.9625L41.82 39.2025C41.682 39.3128 41.5063 39.3646 41.3306 39.3469C41.1549 39.3291 40.9931 39.2432 40.88 39.1075L40.565 38.72C40.4484 38.5763 40.3935 38.3922 40.4122 38.2081C40.4309 38.024 40.5218 37.8548 40.665 37.7375L42.165 36.5125L39.075 32.7225C38.9951 32.631 38.9345 32.5244 38.8967 32.409C38.859 32.2936 38.8448 32.1717 38.8551 32.0507C38.8654 31.9297 38.8999 31.812 38.9566 31.7047C39.0133 31.5973 39.0911 31.5024 39.1852 31.4257C39.2794 31.349 39.388 31.2921 39.5046 31.2582C39.6213 31.2244 39.7435 31.2144 39.8641 31.2288C39.9847 31.2432 40.1011 31.2817 40.2065 31.342C40.3119 31.4024 40.404 31.4833 40.4775 31.58L49.115 42.21C49.2119 42.3292 49.2769 42.471 49.3038 42.6222C49.3307 42.7734 49.3188 42.9289 49.269 43.0742C49.2192 43.2195 49.1333 43.3497 49.0194 43.4526C48.9054 43.5555 48.7671 43.6278 48.6175 43.6625C48.551 43.6777 48.4832 43.6861 48.415 43.6875C48.2803 43.6878 48.1473 43.6578 48.0257 43.5999C47.9041 43.5419 47.7971 43.4574 47.7125 43.3525L46.8525 42.2925L43.7975 44.785C43.7261 44.8439 43.6438 44.8881 43.5552 44.9149C43.4667 44.9418 43.3737 44.9508 43.2816 44.9415C43.1896 44.9322 43.1003 44.9048 43.0189 44.8607C42.9375 44.8167 42.8657 44.757 42.8075 44.685L41.425 42.9925C41.3092 42.8489 41.2547 42.6654 41.2734 42.4819C41.2922 42.2984 41.3826 42.1297 41.525 42.0125L44.5925 39.5075L43.3375 37.9625ZM22.7 17.545L22.9525 13.46C22.9741 13.1173 23.1255 12.7958 23.3758 12.5608C23.6262 12.3257 23.9566 12.195 24.3 12.195L24.3825 12.1975L28.465 12.45C28.8219 12.4725 29.1554 12.6357 29.3921 12.9038C29.6288 13.1719 29.7494 13.523 29.7275 13.88L29.7075 14.175C28.7857 15.764 28.0301 17.4437 27.4525 19.1875L23.965 18.9725C23.6085 18.9506 23.2753 18.7884 23.0382 18.5213C22.8011 18.2542 22.6795 17.9015 22.7 17.545ZM63.985 52.675C62.9663 53.8782 61.5931 54.7286 60.062 55.1044C58.5309 55.4802 56.9201 55.3623 55.46 54.7675C44.13 51.4425 33.885 52.135 24.9275 56.8175L29.695 41.8725L11.6875 60.9725C11.6364 57.1147 12.3509 53.2851 13.7898 49.7054C15.2287 46.1256 17.3632 42.8668 20.07 40.1175C22.9683 37.162 26.4706 34.8672 30.3375 33.39C31.9343 34.8405 33.8554 35.8872 35.94 36.4425C36.403 36.5694 36.873 36.6696 37.3475 36.7425C37.0725 37.4189 36.9842 38.1567 37.092 38.8788C37.1997 39.601 37.4995 40.2809 37.96 40.8475L38.1725 41.1075C37.9198 41.7745 37.8467 42.4961 37.9603 43.2002C38.0739 43.9044 38.3704 44.5663 38.82 45.12L40.2025 46.8125C40.8857 47.6472 41.872 48.177 42.9451 48.2857C44.0183 48.3944 45.0908 48.0732 45.9275 47.3925L46.7575 46.7175C47.6358 47.0872 48.6126 47.1525 49.5323 46.9029C50.452 46.6533 51.2618 46.1032 51.8328 45.3402C52.4038 44.5772 52.7031 43.6451 52.6831 42.6924C52.6631 41.7396 52.325 40.8209 51.7225 40.0825L46.8675 34.105C47.2974 33.7524 47.7033 33.3716 48.0825 32.965C49.2586 33.3308 50.413 33.7632 51.54 34.26C56.0305 36.3028 59.9138 39.4763 62.81 43.47C65.2475 46.82 65.685 50.26 63.985 52.675Z" fill="#B12F53"/>
</svg>
