<svg width="32" height="39" viewBox="0 0 32 39" fill="none" xmlns="http://www.w3.org/2000/svg">
<path d="M25.9047 30.1991C26.7237 30.1182 27.854 29.9484 29.2954 29.6896L30.3273 29.4955L31.2855 35.7428L29.0251 36.2523L25.1553 37.2107C23.4649 37.6475 21.7503 37.9877 20.0202 38.2297C18.6839 38.3984 17.338 38.4835 15.9908 38.4844C13.7496 38.5198 11.5263 38.0857 9.46744 37.2107C7.54826 36.3724 5.83764 35.1304 4.45517 33.5714C3.02146 31.9245 1.928 30.0165 1.23649 27.9549C0.454772 25.6322 0.0727447 23.1965 0.106279 20.7492C0.0763309 17.9609 0.4909 15.1854 1.33478 12.5245C2.06394 10.1694 3.25806 7.98014 4.84828 6.08301C6.35991 4.29339 8.25696 2.85945 10.4011 1.88575C12.664 0.886255 15.1215 0.389334 17.6001 0.430049C19.5609 0.412163 21.5088 0.745066 23.3494 1.41264C25.0778 2.05008 26.6246 3.09052 27.858 4.44535C28.5077 5.10691 29.1149 5.80781 29.6762 6.54398C30.2056 7.25275 30.62 8.03852 30.9047 8.87309C31.2247 9.86938 31.4509 10.8927 31.5804 11.9301C31.7416 13.3599 31.8154 14.7979 31.8015 16.2365V18.4686L12.8212 20.5065C13.0231 23.2681 14.2116 25.8691 16.175 27.8457C18.2345 29.4917 20.8241 30.3526 23.4723 30.2719C24.2838 30.2879 25.0957 30.2636 25.9047 30.1991ZM19.6148 12.9248C19.6329 11.8176 19.5672 10.7106 19.4183 9.61307C19.3411 8.91468 19.146 8.23401 18.8409 7.59936C18.6387 7.17022 18.2971 6.82011 17.8704 6.60463C17.4429 6.42739 16.9825 6.34061 16.519 6.34989C15.9283 6.32946 15.3443 6.47915 14.8383 6.78069C14.3322 7.08224 13.9259 7.52263 13.6689 8.0482C12.9809 9.26128 12.637 11.3963 12.637 14.5746V14.8293L19.6148 13.9074V12.9248Z" fill="#2B3990"/>
</svg>
