<svg width="25" height="24" viewBox="0 0 25 24" fill="none" xmlns="http://www.w3.org/2000/svg">
<path d="M12.5 1C18.5751 1 23.5 5.92487 23.5 12C23.5 18.0751 18.5751 23 12.5 23C6.42487 23 1.5 18.0751 1.5 12C1.5 5.92487 6.42487 1 12.5 1ZM13.5 20.6352C13.96 20.3161 14.4777 19.7539 14.9868 18.8205C15.7738 17.3778 16.3449 15.347 16.4729 13H13.5V20.6352ZM11.5 20.6352V13H8.5271C8.65515 15.347 9.22625 17.3778 10.0132 18.8205C10.5223 19.7539 11.04 20.3161 11.5 20.6352ZM13.5 11H16.4729C16.3449 8.65303 15.7738 6.62219 14.9868 5.17953C14.4777 4.24613 13.96 3.68386 13.5 3.36484V11ZM11.5 3.36484C11.04 3.68386 10.5223 4.24613 10.0132 5.17953C9.22625 6.62219 8.65515 8.65303 8.5271 11H11.5V3.36484ZM16.6142 20.0067C19.2345 18.6575 21.1068 16.0599 21.4451 13H18.4755C18.3402 15.7539 17.6512 18.2151 16.6142 20.0067ZM18.4755 11H21.4451C21.1068 7.94005 19.2345 5.34246 16.6142 3.99332C17.6512 5.78494 18.3402 8.24614 18.4755 11ZM8.38575 3.99332C5.7655 5.34246 3.89319 7.94005 3.55493 11H6.52446C6.65982 8.24614 7.34878 5.78494 8.38575 3.99332ZM8.38575 20.0067C7.34878 18.2151 6.65982 15.7539 6.52446 13H3.55493C3.89319 16.0599 5.7655 18.6575 8.38575 20.0067Z" fill="#8E8E8E"/>
</svg>
