<svg width="24" height="24" viewBox="0 0 24 24" fill="none" xmlns="http://www.w3.org/2000/svg">
<path d="M11.9996 23.9992C11.3549 23.9992 10.7077 23.9476 10.0775 23.8459C7.29449 23.398 4.74384 21.9674 2.89601 19.8178C1.02801 17.6448 0 14.8682 0 11.9996C0 5.38291 5.38291 0 12.0004 0C18.6179 0 24.0008 5.38291 24.0008 11.9996C24.0008 14.9125 22.9438 17.7222 21.0249 19.9098C19.1238 22.0771 16.5119 23.4884 13.6715 23.8846C13.122 23.9613 12.5604 24 12.0012 24L11.9996 23.9992ZM11.9996 0.967488C5.91628 0.967488 0.967488 5.91628 0.967488 11.9988C0.967488 17.4454 4.86326 22.0255 10.2317 22.8897C11.3137 23.064 12.4482 23.0761 13.5368 22.9244C18.9495 22.1699 23.0317 17.4729 23.0317 11.9988C23.0317 5.91628 18.0829 0.967488 11.9996 0.967488Z" fill="#1877F7"/>
<path d="M13.603 9.72976V12.2384H16.7064L16.215 15.6178H13.603V23.4037C13.0793 23.4763 12.5436 23.5142 11.9997 23.5142C11.3719 23.5142 10.7554 23.4642 10.1551 23.3674V15.6178H7.29297V12.2384H10.1551V9.16896C10.1551 7.26464 11.6987 5.72021 13.6038 5.72021V5.72183C13.6095 5.72183 13.6143 5.72021 13.62 5.72021H16.7072V8.64285H14.6899C14.0904 8.64285 13.6038 9.12942 13.6038 9.72895L13.603 9.72976Z" fill="#1877F7"/>
</svg>
