<svg width="37" height="36" viewBox="0 0 37 36" fill="none" xmlns="http://www.w3.org/2000/svg">
<circle cx="18.8662" cy="18" r="17.5" fill="white" stroke="#2B3990"/>
<mask id="path-2-outside-1_607_2377" maskUnits="userSpaceOnUse" x="11.8662" y="9" width="14" height="18" fill="black">
<rect fill="white" x="11.8662" y="9" width="14" height="18"/>
<path d="M22.2242 23.616C22.2242 23.7333 21.8989 23.8293 21.2482 23.904C20.5975 23.968 19.9469 24 19.2962 24C18.6455 24 18.2242 23.9733 18.0322 23.92C17.8509 23.856 17.7602 23.7547 17.7602 23.616V16.704H16.1282C15.9469 16.704 15.8562 16.3147 15.8562 15.536C15.8562 14.7573 15.9469 14.0533 16.1282 13.424C16.1815 13.2213 16.7469 13.0347 17.8242 12.864C18.9015 12.6933 19.7282 12.608 20.3042 12.608C20.8802 12.608 21.2642 12.6293 21.4562 12.672C21.6482 12.7147 21.7922 12.768 21.8882 12.832C21.9842 12.8853 22.0589 12.9493 22.1122 13.024C22.1869 13.1413 22.2242 13.2533 22.2242 13.36V23.616Z"/>
</mask>
<path d="M21.2482 23.904L21.5419 26.8896L21.5661 26.8872L21.5902 26.8844L21.2482 23.904ZM18.0322 23.92L17.0338 26.749L17.1305 26.7831L17.2293 26.8106L18.0322 23.92ZM17.7602 16.704H20.7602V13.704H17.7602V16.704ZM16.1282 13.424L19.0109 14.2546L19.0206 14.2212L19.0294 14.1875L16.1282 13.424ZM17.8242 12.864L17.3548 9.90095L17.3548 9.90095L17.8242 12.864ZM21.4562 12.672L20.8054 15.6006L20.8054 15.6006L21.4562 12.672ZM21.8882 12.832L20.2241 15.3281L20.3251 15.3955L20.4313 15.4545L21.8882 12.832ZM22.1122 13.024L24.6432 11.4134L24.6001 11.3456L24.5534 11.2803L22.1122 13.024ZM19.2242 23.616C19.2242 22.1061 20.279 21.3481 20.5181 21.1913C20.8403 20.98 21.1068 20.9058 21.1312 20.8987C21.2232 20.8715 21.1869 20.8914 20.9062 20.9236L21.5902 26.8844C21.9602 26.842 22.4119 26.7765 22.8293 26.6533C23.0163 26.5982 23.4048 26.4733 23.8083 26.2087C24.1287 25.9986 25.2242 25.1846 25.2242 23.616H19.2242ZM20.9545 20.9184C20.401 20.9729 19.8483 21 19.2962 21V27C20.0454 27 20.7941 26.9631 21.5419 26.8896L20.9545 20.9184ZM19.2962 21C19.0043 21 18.8053 20.9938 18.6817 20.986C18.6207 20.9821 18.5991 20.9791 18.6072 20.9802C18.6124 20.9809 18.6334 20.9837 18.6669 20.99C18.6986 20.9959 18.7576 21.0079 18.8351 21.0294L17.2293 26.8106C17.6445 26.9259 18.0614 26.9587 18.3027 26.974C18.6005 26.9929 18.9375 27 19.2962 27V21ZM19.0307 21.091C19.2299 21.1613 19.6625 21.3469 20.0639 21.7956C20.5214 22.3069 20.7602 22.9633 20.7602 23.616H14.7602C14.7602 24.4073 15.0443 25.1838 15.5925 25.7964C16.0846 26.3464 16.6532 26.6147 17.0338 26.749L19.0307 21.091ZM20.7602 23.616V16.704H14.7602V23.616H20.7602ZM17.7602 13.704H16.1282V19.704H17.7602V13.704ZM16.1282 13.704C17.3561 13.704 18.1334 14.4332 18.4685 14.9129C18.7532 15.3205 18.8331 15.6761 18.846 15.7316C18.8809 15.8815 18.8562 15.8688 18.8562 15.536H12.8562C12.8562 15.9818 12.8768 16.5532 13.0024 17.0924C13.0606 17.3426 13.1972 17.8442 13.5499 18.3491C13.953 18.9261 14.8096 19.704 16.1282 19.704V13.704ZM18.8562 15.536C18.8562 14.987 18.9204 14.5687 19.0109 14.2546L13.2455 12.5934C12.9733 13.538 12.8562 14.5277 12.8562 15.536H18.8562ZM19.0294 14.1875C18.8827 14.7451 18.6021 15.1366 18.388 15.3712C18.177 15.6023 17.9759 15.7424 17.8621 15.8141C17.6461 15.95 17.4973 15.9924 17.5328 15.9807C17.5843 15.9637 17.8066 15.9042 18.2936 15.827L17.3548 9.90095C16.7645 9.99446 16.1654 10.1136 15.6516 10.2833C15.4044 10.3649 15.037 10.5027 14.6664 10.7359C14.3847 10.9132 13.5346 11.4915 13.227 12.6605L19.0294 14.1875ZM18.2936 15.8271C19.3269 15.6634 19.9679 15.608 20.3042 15.608V9.608C19.4886 9.608 18.4762 9.7233 17.3548 9.90095L18.2936 15.8271ZM20.3042 15.608C20.561 15.608 20.7411 15.6129 20.8578 15.6194C20.8854 15.6209 20.9065 15.6224 20.9219 15.6236C20.9294 15.6242 20.9352 15.6247 20.9391 15.6251C20.9432 15.6255 20.945 15.6257 20.9449 15.6257C20.9448 15.6256 20.9422 15.6254 20.9374 15.6247C20.9325 15.6241 20.9247 15.623 20.9141 15.6213C20.8946 15.6183 20.8568 15.612 20.8054 15.6006L22.107 9.74344C21.5418 9.61784 20.8295 9.608 20.3042 9.608V15.608ZM20.8054 15.6006C20.8034 15.6001 20.7515 15.5888 20.6663 15.5572C20.5865 15.5277 20.4222 15.4602 20.2241 15.3281L23.5523 10.3359C23.005 9.97096 22.4423 9.81795 22.107 9.74344L20.8054 15.6006ZM20.4313 15.4545C20.2137 15.3336 19.9225 15.1197 19.671 14.7677L24.5534 11.2803C24.1953 10.7789 23.7547 10.4371 23.3451 10.2095L20.4313 15.4545ZM19.5812 14.6346C19.4411 14.4144 19.2242 13.9732 19.2242 13.36H25.2242C25.2242 12.5334 24.9327 11.8683 24.6432 11.4134L19.5812 14.6346ZM19.2242 13.36V23.616H25.2242V13.36H19.2242Z" fill="#2B3990" mask="url(#path-2-outside-1_607_2377)"/>
</svg>
