<svg width="25" height="24" viewBox="0 0 25 24" fill="none" xmlns="http://www.w3.org/2000/svg">
<path d="M18.3125 11H6.3125V13H18.3125V11Z" fill="#8E8E8E"/>
<path d="M23.3125 12C23.3125 18.0751 18.3876 23 12.3125 23C6.23737 23 1.3125 18.0751 1.3125 12C1.3125 5.92487 6.23737 1 12.3125 1C18.3876 1 23.3125 5.92487 23.3125 12ZM21.3125 12C21.3125 7.02944 17.2831 3 12.3125 3C7.34194 3 3.3125 7.02944 3.3125 12C3.3125 16.9706 7.34194 21 12.3125 21C17.2831 21 21.3125 16.9706 21.3125 12Z" fill="#8E8E8E"/>
</svg>
