<svg width="37" height="36" viewBox="0 0 37 36" fill="none" xmlns="http://www.w3.org/2000/svg">
<circle cx="18.3545" cy="18" r="17.5" fill="white" stroke="#CACACA"/>
<mask id="path-2-outside-1_607_2392" maskUnits="userSpaceOnUse" x="9.35449" y="9" width="16" height="18" fill="black">
<rect fill="white" x="9.35449" y="9" width="16" height="18"/>
<path d="M21.7119 23.616C21.7119 23.7333 21.3865 23.8293 20.7359 23.904C20.0852 23.968 19.4345 24 18.7839 24C18.1332 24 17.7119 23.9733 17.5199 23.92C17.3385 23.856 17.2479 23.7547 17.2479 23.616V21.648H13.2479C12.8852 21.648 12.7039 20.7627 12.7039 18.992C12.7039 18.7893 13.1359 17.92 13.9999 16.384C14.8745 14.848 15.4772 13.84 15.8079 13.36C15.9359 13.1787 16.4159 13.008 17.2479 12.848C18.0799 12.688 18.8905 12.608 19.6799 12.608C21.0345 12.608 21.7119 12.8587 21.7119 13.36V23.616ZM17.5199 19.152L17.5359 15.664L16.4159 19.152H17.5199Z"/>
</mask>
<path d="M20.7359 23.904L21.0295 26.8896L21.0537 26.8872L21.0779 26.8844L20.7359 23.904ZM17.5199 23.92L16.5214 26.749L16.6181 26.7831L16.7169 26.8106L17.5199 23.92ZM17.2479 21.648H20.2479V18.648H17.2479V21.648ZM13.9999 16.384L11.3929 14.8995L11.389 14.9063L11.3851 14.9132L13.9999 16.384ZM15.8079 13.36L13.357 11.63L13.3471 11.644L13.3373 11.6581L15.8079 13.36ZM17.2479 12.848L17.8144 15.794L17.8144 15.794L17.2479 12.848ZM17.5199 19.152V22.152H20.5061L20.5198 19.1658L17.5199 19.152ZM17.5359 15.664L20.5358 15.6778L14.6795 14.7468L17.5359 15.664ZM16.4159 19.152L13.5595 18.2348L12.3017 22.152H16.4159V19.152ZM18.7119 23.616C18.7119 22.1061 19.7667 21.3481 20.0058 21.1913C20.328 20.98 20.5945 20.9058 20.6188 20.8987C20.7109 20.8715 20.6745 20.8914 20.3938 20.9236L21.0779 26.8844C21.4479 26.842 21.8995 26.7765 22.3169 26.6533C22.5039 26.5982 22.8924 26.4733 23.2959 26.2087C23.6164 25.9986 24.7119 25.1846 24.7119 23.616H18.7119ZM20.4422 20.9184C19.8887 20.9729 19.336 21 18.7839 21V27C19.5331 27 20.2817 26.9631 21.0295 26.8896L20.4422 20.9184ZM18.7839 21C18.4919 21 18.2929 20.9938 18.1694 20.986C18.1083 20.9821 18.0868 20.9791 18.0949 20.9802C18.1 20.9809 18.1211 20.9837 18.1545 20.99C18.1863 20.9959 18.2453 21.0079 18.3228 21.0294L16.7169 26.8106C17.1321 26.9259 17.5491 26.9587 17.7904 26.974C18.0882 26.9929 18.4251 27 18.7839 27V21ZM18.5183 21.091C18.7175 21.1613 19.1502 21.3469 19.5516 21.7956C20.0091 22.3069 20.2479 22.9633 20.2479 23.616H14.2479C14.2479 24.4073 14.532 25.1838 15.0801 25.7964C15.5722 26.3464 16.1409 26.6147 16.5214 26.749L18.5183 21.091ZM20.2479 23.616V21.648H14.2479V23.616H20.2479ZM17.2479 18.648H13.2479V24.648H17.2479V18.648ZM13.2479 18.648C13.8582 18.648 14.4083 18.8472 14.8366 19.1459C15.2297 19.4201 15.454 19.7294 15.5659 19.9114C15.7685 20.2411 15.7979 20.4752 15.7789 20.382C15.751 20.2458 15.7039 19.8286 15.7039 18.992H9.70387C9.70387 19.9261 9.74744 20.8368 9.90088 21.586C9.97246 21.9354 10.1153 22.5016 10.4538 23.0526C10.8091 23.6308 11.7014 24.648 13.2479 24.648V18.648ZM15.7039 18.992C15.7039 19.2274 15.6745 19.4092 15.6568 19.5028C15.6374 19.606 15.6161 19.6838 15.6035 19.7267C15.5794 19.8094 15.561 19.8523 15.5674 19.8363C15.5793 19.8069 15.6213 19.7105 15.7144 19.523C15.8964 19.157 16.191 18.6078 16.6146 17.8548L11.3851 14.9132C10.9447 15.6962 10.5914 16.3497 10.3413 16.853C10.2184 17.1002 10.0985 17.3551 10.0023 17.5937C9.95475 17.7117 9.89588 17.8677 9.8447 18.0428C9.80932 18.1637 9.70387 18.5302 9.70387 18.992H15.7039ZM16.6068 17.8685C17.4927 16.3129 18.0329 15.4182 18.2784 15.0619L13.3373 11.6581C12.9215 12.2618 12.2564 13.3831 11.3929 14.8995L16.6068 17.8685ZM18.2588 15.09C18.0878 15.3323 17.9111 15.4995 17.7845 15.6042C17.6559 15.7105 17.5446 15.7808 17.473 15.8223C17.3371 15.901 17.2519 15.9287 17.2689 15.9226C17.3034 15.9104 17.4636 15.8615 17.8144 15.794L16.6813 9.90198C16.2001 9.99452 15.7043 10.111 15.2588 10.2694C15.0359 10.3486 14.7547 10.463 14.4668 10.6297C14.2107 10.778 13.7421 11.0843 13.357 11.63L18.2588 15.09ZM17.8144 15.794C18.4732 15.6673 19.094 15.608 19.6799 15.608V9.608C18.6871 9.608 17.6865 9.70868 16.6813 9.90198L17.8144 15.794ZM19.6799 15.608C20.2568 15.608 20.3332 15.6726 20.1626 15.6095C20.0588 15.5711 19.705 15.4265 19.3558 15.0388C18.9493 14.5875 18.7119 13.9839 18.7119 13.36H24.7119C24.7119 12.4855 24.3898 11.6625 23.814 11.0232C23.2954 10.4475 22.6876 10.1463 22.2451 9.98249C21.3972 9.66869 20.4576 9.608 19.6799 9.608V15.608ZM18.7119 13.36V23.616H24.7119V13.36H18.7119ZM20.5198 19.1658L20.5358 15.6778L14.5359 15.6502L14.5199 19.1382L20.5198 19.1658ZM14.6795 14.7468L13.5595 18.2348L19.2722 20.0692L20.3922 16.5812L14.6795 14.7468ZM16.4159 22.152H17.5199V16.152H16.4159V22.152Z" fill="#8E8E8E" mask="url(#path-2-outside-1_607_2392)"/>
</svg>
