<svg width="37" height="36" viewBox="0 0 37 36" fill="none" xmlns="http://www.w3.org/2000/svg">
<circle cx="18.3542" cy="18" r="17.5" fill="white" stroke="#2B3990"/>
<mask id="path-2-outside-1_606_11583" maskUnits="userSpaceOnUse" x="9.35425" y="9" width="16" height="18" fill="black">
<rect fill="white" x="9.35425" y="9" width="16" height="18"/>
<path d="M21.7116 23.616C21.7116 23.7333 21.3863 23.8293 20.7356 23.904C20.085 23.968 19.4343 24 18.7836 24C18.133 24 17.7116 23.9733 17.5196 23.92C17.3383 23.856 17.2476 23.7547 17.2476 23.616V21.648H13.2476C12.885 21.648 12.7036 20.7627 12.7036 18.992C12.7036 18.7893 13.1356 17.92 13.9996 16.384C14.8743 14.848 15.477 13.84 15.8076 13.36C15.9356 13.1787 16.4156 13.008 17.2476 12.848C18.0796 12.688 18.8903 12.608 19.6796 12.608C21.0343 12.608 21.7116 12.8587 21.7116 13.36V23.616ZM17.5196 19.152L17.5356 15.664L16.4156 19.152H17.5196Z"/>
</mask>
<path d="M20.7356 23.904L21.0293 26.8896L21.0535 26.8872L21.0776 26.8844L20.7356 23.904ZM17.5196 23.92L16.5212 26.749L16.6179 26.7831L16.7167 26.8106L17.5196 23.92ZM17.2476 21.648H20.2476V18.648H17.2476V21.648ZM13.9996 16.384L11.3927 14.8995L11.3888 14.9063L11.3849 14.9132L13.9996 16.384ZM15.8076 13.36L13.3567 11.63L13.3468 11.644L13.3371 11.6581L15.8076 13.36ZM17.2476 12.848L17.8142 15.794H17.8142L17.2476 12.848ZM17.5196 19.152V22.152H20.5059L20.5196 19.1658L17.5196 19.152ZM17.5356 15.664L20.5356 15.6778L14.6793 14.7468L17.5356 15.664ZM16.4156 19.152L13.5593 18.2348L12.3015 22.152H16.4156V19.152ZM18.7116 23.616C18.7116 22.106 19.7664 21.3481 20.0056 21.1913C20.3277 20.98 20.5942 20.9058 20.6186 20.8987C20.7107 20.8715 20.6743 20.8913 20.3936 20.9236L21.0776 26.8844C21.4476 26.842 21.8993 26.7765 22.3167 26.6533C22.5037 26.5982 22.8922 26.4733 23.2957 26.2087C23.6162 25.9986 24.7116 25.1846 24.7116 23.616H18.7116ZM20.442 20.9184C19.8884 20.9729 19.3358 21 18.7836 21V27C19.5328 27 20.2815 26.9631 21.0293 26.8896L20.442 20.9184ZM18.7836 21C18.4917 21 18.2927 20.9938 18.1691 20.986C18.1081 20.9821 18.0866 20.9791 18.0946 20.9802C18.0998 20.9809 18.1209 20.9837 18.1543 20.99C18.1861 20.9959 18.245 21.0079 18.3226 21.0294L16.7167 26.8106C17.1319 26.9259 17.5488 26.9587 17.7901 26.974C18.0879 26.9929 18.4249 27 18.7836 27V21ZM18.5181 21.091C18.7173 21.1613 19.1499 21.3469 19.5513 21.7956C20.0088 22.3069 20.2476 22.9633 20.2476 23.616H14.2476C14.2476 24.4073 14.5318 25.1838 15.0799 25.7964C15.572 26.3464 16.1406 26.6147 16.5212 26.749L18.5181 21.091ZM20.2476 23.616V21.648H14.2476V23.616H20.2476ZM17.2476 18.648H13.2476V24.648H17.2476V18.648ZM13.2476 18.648C13.858 18.648 14.4081 18.8472 14.8363 19.1459C15.2294 19.4201 15.4538 19.7294 15.5657 19.9114C15.7682 20.2411 15.7977 20.4753 15.7786 20.382C15.7507 20.2458 15.7036 19.8286 15.7036 18.992H9.70362C9.70362 19.9261 9.7472 20.8368 9.90064 21.586C9.97221 21.9354 10.115 22.5016 10.4536 23.0526C10.8089 23.6308 11.7011 24.648 13.2476 24.648V18.648ZM15.7036 18.992C15.7036 19.2274 15.6743 19.4092 15.6566 19.5028C15.6371 19.606 15.6159 19.6838 15.6033 19.7267C15.5791 19.8094 15.5607 19.8523 15.5672 19.8363C15.579 19.8069 15.6211 19.7105 15.7142 19.523C15.8961 19.157 16.1908 18.6078 16.6143 17.8548L11.3849 14.9132C10.9444 15.6962 10.5911 16.3497 10.3411 16.853C10.2182 17.1002 10.0982 17.3551 10.0021 17.5937C9.9545 17.7117 9.89564 17.8677 9.84446 18.0428C9.80907 18.1637 9.70362 18.5302 9.70362 18.992H15.7036ZM16.6066 17.8685C17.4924 16.3129 18.0327 15.4182 18.2781 15.0619L13.3371 11.6581C12.9212 12.2618 12.2562 13.3831 11.3927 14.8995L16.6066 17.8685ZM18.2585 15.09C18.0875 15.3323 17.9108 15.4995 17.7842 15.6042C17.6557 15.7105 17.5444 15.7808 17.4727 15.8223C17.3368 15.901 17.2516 15.9287 17.2687 15.9226C17.3031 15.9104 17.4634 15.8615 17.8142 15.794L16.6811 9.90198C16.1999 9.99452 15.7041 10.111 15.2586 10.2694C15.0356 10.3486 14.7544 10.463 14.4665 10.6297C14.2104 10.778 13.7419 11.0843 13.3567 11.63L18.2585 15.09ZM17.8142 15.794C18.473 15.6673 19.0937 15.608 19.6796 15.608V9.608C18.6869 9.608 17.6863 9.70868 16.6811 9.90198L17.8142 15.794ZM19.6796 15.608C20.2565 15.608 20.333 15.6726 20.1624 15.6095C20.0585 15.5711 19.7047 15.4265 19.3555 15.0388C18.9491 14.5875 18.7116 13.9839 18.7116 13.36H24.7116C24.7116 12.4855 24.3895 11.6625 23.8137 11.0232C23.2952 10.4475 22.6874 10.1463 22.2448 9.98248C21.3969 9.66869 20.4574 9.608 19.6796 9.608V15.608ZM18.7116 13.36V23.616H24.7116V13.36H18.7116ZM20.5196 19.1658L20.5356 15.6778L14.5357 15.6502L14.5197 19.1382L20.5196 19.1658ZM14.6793 14.7468L13.5593 18.2348L19.272 20.0692L20.392 16.5812L14.6793 14.7468ZM16.4156 22.152H17.5196V16.152H16.4156V22.152Z" fill="#2B3990" mask="url(#path-2-outside-1_606_11583)"/>
</svg>
