<svg width="8" height="8" viewBox="0 0 8 8" fill="none" xmlns="http://www.w3.org/2000/svg">
<g clip-path="url(#clip0_4035_232)">
<path d="M3.6665 5.66671L4.33317 6.33337C4.39883 6.39903 4.47678 6.45112 4.56257 6.48666C4.64836 6.52219 4.74031 6.54048 4.83317 6.54048C4.92603 6.54048 5.01798 6.52219 5.10377 6.48666C5.18956 6.45112 5.26751 6.39903 5.33317 6.33337C5.39883 6.26771 5.45092 6.18976 5.48645 6.10397C5.52199 6.01818 5.54028 5.92623 5.54028 5.83337C5.54028 5.74052 5.52199 5.64857 5.48645 5.56278C5.45092 5.47699 5.39883 5.39903 5.33317 5.33337M4.6665 4.66671L5.49983 5.50005C5.63244 5.63265 5.8123 5.70715 5.99983 5.70715C6.18737 5.70715 6.36722 5.63265 6.49983 5.50005C6.63244 5.36744 6.70694 5.18758 6.70694 5.00005C6.70694 4.81251 6.63244 4.63265 6.49983 4.50005L5.2065 3.20671C5.019 3.01945 4.76483 2.91426 4.49983 2.91426C4.23483 2.91426 3.98067 3.01945 3.79316 3.20671L3.49983 3.50005C3.36722 3.63265 3.18737 3.70715 2.99983 3.70715C2.8123 3.70715 2.63244 3.63265 2.49983 3.50005C2.36722 3.36744 2.29272 3.18758 2.29272 3.00005C2.29272 2.81251 2.36722 2.63265 2.49983 2.50005L3.4365 1.56338C3.74058 1.26009 4.13713 1.0669 4.56338 1.01437C4.98963 0.961844 5.42122 1.05299 5.78983 1.27338L5.9465 1.36671C6.08843 1.45237 6.25718 1.48208 6.41983 1.45005L6.99983 1.33338M6.99984 1.00004L7.33317 4.66671H6.6665M0.999837 1.00004L0.666504 4.66671L2.83317 6.83337C2.96578 6.96598 3.14563 7.04048 3.33317 7.04048C3.52071 7.04048 3.70056 6.96598 3.83317 6.83337C3.96578 6.70077 4.04028 6.52091 4.04028 6.33337C4.04028 6.14584 3.96578 5.96598 3.83317 5.83337M0.999837 1.33337H3.6665" stroke="#83CBAA" stroke-width="0.5" stroke-linecap="round" stroke-linejoin="round"/>
</g>
<defs>
<clipPath id="clip0_4035_232">
<rect width="8" height="8" fill="white"/>
</clipPath>
</defs>
</svg>
