<svg width="16" height="16" viewBox="0 0 16 16" fill="none" xmlns="http://www.w3.org/2000/svg">
<path d="M7.71067 14.0747C7.79515 14.1345 7.89613 14.1667 7.99967 14.1667C8.1032 14.1667 8.20418 14.1345 8.28867 14.0747L8 13.6667L8.28933 14.0747L8.29467 14.0707L8.30867 14.0607L8.362 14.022C8.40822 13.9887 8.47378 13.94 8.55867 13.876C9.54933 13.1283 10.4844 12.3097 11.3567 11.4267C12.122 10.648 12.9 9.73804 13.4893 8.77271C14.076 7.81271 14.5 6.75671 14.5 5.69804C14.5 4.44137 14.11 3.45937 13.42 2.79271C12.7333 2.13004 11.8067 1.83337 10.8333 1.83337C9.68333 1.83337 8.668 2.38871 8 3.24471C7.332 2.38871 6.316 1.83337 5.16667 1.83337C3.11333 1.83337 1.5 3.59271 1.5 5.69804C1.5 6.75671 1.92467 7.81204 2.51067 8.77271C3.1 9.73804 3.878 10.648 4.64333 11.4274C5.5732 12.3681 6.57441 13.2356 7.638 14.022L7.69133 14.0607L7.70533 14.0707L7.71067 14.0747Z" fill="#F64C4C"/>
</svg>
