<svg width="25" height="24" viewBox="0 0 25 24" fill="none" xmlns="http://www.w3.org/2000/svg">
<path d="M12.625 6C10.4159 6 8.625 7.79086 8.625 10H10.625C10.625 8.89543 11.5204 8 12.625 8C13.7296 8 14.625 8.89543 14.625 10C14.625 11.1046 13.7296 12 12.625 12H11.625V15H13.625V13.874C15.3502 13.4299 16.625 11.8638 16.625 10C16.625 7.79086 14.8341 6 12.625 6Z" fill="#8E8E8E"/>
<path d="M13.625 16V18H11.625V16H13.625Z" fill="#8E8E8E"/>
<path d="M23.625 12C23.625 18.0751 18.7001 23 12.625 23C6.54987 23 1.625 18.0751 1.625 12C1.625 5.92487 6.54987 1 12.625 1C18.7001 1 23.625 5.92487 23.625 12ZM21.625 12C21.625 7.02944 17.5956 3 12.625 3C7.65444 3 3.625 7.02944 3.625 12C3.625 16.9706 7.65444 21 12.625 21C17.5956 21 21.625 16.9706 21.625 12Z" fill="#8E8E8E"/>
</svg>
