<svg width="25" height="24" viewBox="0 0 25 24" fill="none" xmlns="http://www.w3.org/2000/svg">
<path d="M12.625 23C18.7001 23 23.625 18.0751 23.625 12C23.625 5.92487 18.7001 1 12.625 1C6.54987 1 1.625 5.92487 1.625 12C1.625 18.0751 6.54987 23 12.625 23ZM12.625 6C14.8341 6 16.625 7.79086 16.625 10C16.625 11.8638 15.3502 13.4299 13.625 13.874V15H11.625V12H12.625C13.7296 12 14.625 11.1046 14.625 10C14.625 8.89543 13.7296 8 12.625 8C11.5204 8 10.625 8.89543 10.625 10H8.625C8.625 7.79086 10.4159 6 12.625 6ZM13.625 16V18H11.625V16H13.625Z" fill="#8E8E8E"/>
</svg>
