<svg width="25" height="25" viewBox="0 0 25 25" fill="none" xmlns="http://www.w3.org/2000/svg">
<g clip-path="url(#clip0_1_279)">
<path d="M5.59695 16.7956L1.02328 21.3693L3.85171 24.1977L8.52996 19.5194C11.1649 21.4038 14.7313 21.1813 17.1462 18.8519L23.4375 12.7835L19.2781 8.77135L23.8517 4.19769L21.0233 1.36926L16.345 6.04751C13.7101 4.16313 10.1437 4.38563 7.72879 6.71501L1.4375 12.7835L5.59695 16.7956ZM11.4014 16.648L16.302 11.7474C16.3904 12.0778 16.4375 12.4252 16.4375 12.7835C16.4375 14.9926 14.6466 16.7835 12.4375 16.7835C12.0792 16.7835 11.7319 16.7364 11.4014 16.648ZM8.57299 13.8196C8.48461 13.4891 8.4375 13.1418 8.4375 12.7835C8.4375 10.5743 10.2284 8.78348 12.4375 8.78348C12.7958 8.78348 13.1431 8.83059 13.4736 8.91896L8.57299 13.8196Z" fill="#8E8E8E"/>
</g>
<defs>
<clipPath id="clip0_1_279">
<rect width="24" height="24" fill="white" transform="translate(0.4375 0.783447)"/>
</clipPath>
</defs>
</svg>
