<svg width="25" height="25" viewBox="0 0 25 25" fill="none" xmlns="http://www.w3.org/2000/svg">
<path d="M6.3168 17.4899L1.73039 22.0763L3.14461 23.4905L7.75658 18.8785C10.427 21.4272 14.4855 21.4183 17.1462 18.8519L23.4375 12.7834L18.5582 8.07692L23.1446 3.49051L21.7304 2.07629L17.1184 6.68827C14.448 4.13959 10.3895 4.14847 7.72879 6.71494L1.4375 12.7834L6.3168 17.4899ZM9.17133 17.4638L9.68011 16.955C10.4705 17.4785 11.4184 17.7834 12.4375 17.7834C15.1989 17.7834 17.4375 15.5448 17.4375 12.7834C17.4375 11.7643 17.1326 10.8164 16.6091 10.026L17.1438 9.49136L20.5567 12.7834L15.7577 17.4124C13.8805 19.2231 11.0663 19.2402 9.17133 17.4638ZM8.2659 15.5408L7.73125 16.0754L4.31832 12.7834L9.11728 8.15441C10.9945 6.34369 13.8087 6.32656 15.7037 8.10302L15.1949 8.6118C14.4045 8.08828 13.4566 7.7834 12.4375 7.7834C9.67608 7.7834 7.4375 10.022 7.4375 12.7834C7.4375 13.8025 7.74238 14.7504 8.2659 15.5408ZM11.1441 15.491L15.1451 11.49C15.3325 11.8816 15.4375 12.3203 15.4375 12.7834C15.4375 14.4403 14.0944 15.7834 12.4375 15.7834C11.9744 15.7834 11.5357 15.6784 11.1441 15.491ZM13.7309 10.0758L9.72987 14.0768C9.54245 13.6852 9.4375 13.2465 9.4375 12.7834C9.4375 11.1265 10.7806 9.7834 12.4375 9.7834C12.9006 9.7834 13.3393 9.88835 13.7309 10.0758Z" fill="#8E8E8E"/>
</svg>
