<svg width="25" height="24" viewBox="0 0 25 24" fill="none" xmlns="http://www.w3.org/2000/svg">
<path d="M9.484 20.663H6.194C4.982 20.663 4 19.681 4 18.469V12.015C4.00074 11.5448 4.10194 11.0803 4.29682 10.6524C4.49171 10.2245 4.77578 9.84319 5.13 9.53402L11.06 4.36902C11.4593 4.02164 11.9707 3.83032 12.5 3.83032C13.0293 3.83032 13.5407 4.02164 13.94 4.36902L19.87 9.53502C20.2241 9.84408 20.5081 10.2252 20.703 10.6529C20.8978 11.0806 20.9991 11.545 21 12.015V18.469C21 19.0507 20.769 19.6086 20.3577 20.0201C19.9465 20.4315 19.3887 20.6628 18.807 20.663H15.79V14.082C15.79 13.174 15.054 12.437 14.145 12.437H11.13C10.221 12.437 9.485 13.174 9.485 14.082L9.484 20.663ZM9.484 20.663H15.791" stroke="#CACACA" stroke-width="1.5" stroke-linejoin="round"/>
</svg>
