<svg width="17" height="20" viewBox="0 0 17 20" fill="none" xmlns="http://www.w3.org/2000/svg">
<path d="M3.22 14.64C3.4746 14.5657 3.74828 14.5956 3.98083 14.7232C4.21337 14.8507 4.38573 15.0654 4.45999 15.32C4.53425 15.5746 4.50433 15.8483 4.37681 16.0808C4.24928 16.3134 4.0346 16.4857 3.78 16.56C3.28 16.706 2.92 16.86 2.689 17C2.927 17.143 3.303 17.303 3.82499 17.452C4.97999 17.782 6.63299 18 8.49999 18C10.367 18 12.02 17.782 13.175 17.452C13.698 17.303 14.073 17.143 14.311 17C14.081 16.86 13.721 16.706 13.221 16.56C12.9704 16.4825 12.7603 16.3096 12.636 16.0786C12.5116 15.8476 12.4831 15.577 12.5564 15.3251C12.6297 15.0733 12.7991 14.8603 13.028 14.7321C13.2569 14.604 13.5269 14.5709 13.78 14.64C14.448 14.835 15.06 15.085 15.53 15.406C15.965 15.705 16.5 16.226 16.5 17C16.5 17.783 15.952 18.308 15.51 18.607C15.032 18.929 14.407 19.18 13.724 19.375C12.346 19.77 10.5 20 8.49999 20C6.49999 20 4.65399 19.77 3.276 19.375C2.593 19.18 1.968 18.929 1.49 18.607C1.048 18.307 0.5 17.783 0.5 17C0.5 16.226 1.035 15.705 1.47 15.406C1.94 15.085 2.552 14.835 3.22 14.64ZM8.49999 5.5C6.95999 5.5 5.99799 7.167 6.76799 8.5C7.12499 9.11899 7.78499 9.49999 8.49999 9.49999C10.04 9.49999 11.002 7.833 10.232 6.5C10.0565 6.19597 9.80399 5.9435 9.49996 5.76796C9.19593 5.59243 8.85105 5.50001 8.49999 5.5Z" fill="#83CBAA"/>
<path opacity="0.3" d="M8.49999 0C10.4891 0 12.3968 0.790175 13.8033 2.1967C15.2098 3.60322 16 5.51087 16 7.49999C16 10.068 14.6 12.156 13.15 13.64C12.5736 14.2239 11.9542 14.7638 11.297 15.255C10.703 15.701 9.34499 16.537 9.34499 16.537C9.08743 16.6834 8.79625 16.7603 8.49999 16.7603C8.20373 16.7603 7.91255 16.6834 7.65499 16.537C6.98105 16.1462 6.32938 15.7182 5.70299 15.255C5.0458 14.7638 4.42639 14.2239 3.85 13.64C2.4 12.156 1 10.068 1 7.49999C1 5.51087 1.79018 3.60322 3.1967 2.1967C4.60322 0.790175 6.51087 0 8.49999 0Z" fill="#83CBAA"/>
</svg>
