<svg width="16" height="16" viewBox="0 0 16 16" fill="none" xmlns="http://www.w3.org/2000/svg">
<path d="M1.3335 3.33333C1.3335 2.97971 1.47397 2.64057 1.72402 2.39052C1.97407 2.14048 2.31321 2 2.66683 2H6.66683V14H2.66683C2.31321 14 1.97407 13.8595 1.72402 13.6095C1.47397 13.3594 1.3335 13.0203 1.3335 12.6667V3.33333ZM9.3335 2H13.3335C13.6871 2 14.0263 2.14048 14.2763 2.39052C14.5264 2.64057 14.6668 2.97971 14.6668 3.33333V6.66667H9.3335V2ZM9.3335 9.33333H14.6668V12.6667C14.6668 13.0203 14.5264 13.3594 14.2763 13.6095C14.0263 13.8595 13.6871 14 13.3335 14H9.3335V9.33333Z" stroke="#2B3990" stroke-linecap="round" stroke-linejoin="round"/>
</svg>
