<svg width="16" height="51" viewBox="0 0 16 51" fill="none" xmlns="http://www.w3.org/2000/svg">
<path d="M13.4114 10.2397C11.8796 11.2738 10.0209 11.7262 8.17797 11.5134C6.25343 11.7342 4.30977 11.3067 2.66201 10.3003C1.98892 9.82291 1.46125 9.17242 1.13636 8.41958C0.811469 7.66674 0.701799 6.84036 0.819268 6.03028C0.703961 5.23881 0.804872 4.43129 1.11157 3.69124C1.41826 2.95119 1.9196 2.30548 2.56373 1.82089C4.11006 0.819418 5.95661 0.369993 7.79713 0.547151C9.72112 0.336795 11.6614 0.763498 13.3131 1.76023C13.9904 2.22805 14.5219 2.87348 14.8475 3.6237C15.1731 4.37391 15.2799 5.19905 15.1558 6.00602C15.2617 6.80048 15.1565 7.60846 14.8507 8.35068C14.5449 9.0929 14.0489 9.74386 13.4114 10.2397ZM1.92492 14.631L14.3942 12.9812V50.8536H1.87578L1.92492 14.631Z" fill="#2B3990"/>
</svg>
