<svg width="48" height="48" viewBox="0 0 48 48" fill="none" xmlns="http://www.w3.org/2000/svg">
<path d="M20.2143 33.0531C20.1534 33.2953 18.6299 39 10.2502 39C9.91871 39 9.60076 38.8683 9.36634 38.6339C9.13192 38.3995 9.00023 38.0815 9.00023 37.75C9.00023 29.3703 14.7049 27.8469 14.9471 27.7859C15.2689 27.7055 15.6094 27.7563 15.8938 27.9269C16.1782 28.0976 16.3831 28.3743 16.4635 28.6961C16.5439 29.0179 16.4932 29.3584 16.3225 29.6428C16.1518 29.9272 15.8751 30.1321 15.5534 30.2125C15.4127 30.2516 12.0502 31.2344 11.5596 36.4406C16.7659 35.95 17.7502 32.5937 17.7909 32.4375C17.8737 32.1161 18.0809 31.8408 18.3667 31.6722C18.6526 31.5036 18.9937 31.4554 19.3151 31.5383C19.6364 31.6212 19.9117 31.8283 20.0804 32.1141C20.249 32.4 20.2972 32.7411 20.2143 33.0625V33.0531ZM34.7455 22.5219L34.0002 23.2672V32.3812C34.0021 32.7108 33.9384 33.0375 33.8129 33.3422C33.6873 33.6469 33.5024 33.9236 33.269 34.1562L27.9065 39.5156C27.6752 39.7485 27.4001 39.9333 27.0971 40.0594C26.7941 40.1854 26.4691 40.2502 26.1409 40.25C25.87 40.2499 25.6009 40.2061 25.344 40.1203C24.9029 39.9744 24.5114 39.708 24.2137 39.3513C23.9161 38.9945 23.7241 38.5617 23.6596 38.1016L22.8205 32.0875L15.9127 25.1797L9.90179 24.3406C9.44108 24.276 9.00753 24.0841 8.64992 23.7865C8.29232 23.489 8.02484 23.0975 7.87758 22.6562C7.73031 22.2149 7.70911 21.7413 7.81635 21.2886C7.92359 20.8359 8.15502 20.4221 8.4846 20.0937L13.844 14.7312C14.0766 14.4978 14.3533 14.3129 14.658 14.1874C14.9628 14.0618 15.2894 13.9981 15.619 14H24.733L25.4784 13.2547C29.6471 9.08749 34.6705 8.9078 36.6362 9.02499C37.2457 9.06203 37.8205 9.32085 38.2523 9.75262C38.6841 10.1844 38.9429 10.7593 38.9799 11.3687C39.094 13.3297 38.9143 18.3531 34.7471 22.5219H34.7455ZM10.2502 21.8656L16.0549 22.675L22.233 16.5H15.619L10.2502 21.8656ZM18.269 24L24.0002 29.7312L32.9768 20.7547C34.1865 19.5531 35.125 18.1065 35.7293 16.5121C36.3335 14.9177 36.5894 13.2125 36.4799 11.5109C34.7793 11.4055 33.0757 11.6641 31.483 12.2696C29.8903 12.875 28.4451 13.8133 27.244 15.0219L18.269 24ZM31.5002 25.7672L25.3237 31.9437L26.1362 37.75L31.5002 32.3812V25.7672Z" fill="#2B3990"/>
</svg>
