<svg width="25" height="25" viewBox="0 0 25 25" fill="none" xmlns="http://www.w3.org/2000/svg">
<path d="M22.75 4.78345C22.75 3.67888 21.8546 2.78345 20.75 2.78345H4.75C3.64543 2.78345 2.75 3.67888 2.75 4.78345V20.7834C2.75 21.888 3.64543 22.7834 4.75 22.7834H20.75C21.8546 22.7834 22.75 21.888 22.75 20.7834V4.78345ZM20.75 4.78345V13.9631L16.9841 9.32019L11.3069 14.6287L9.48464 12.351L4.75 16.4092V10.5274C5.21925 10.6933 5.72423 10.7837 6.25 10.7837C8.73528 10.7837 10.75 8.769 10.75 6.28372C10.75 5.75789 10.6596 5.25281 10.4936 4.78345H20.75ZM8.25009 4.78345C8.56455 5.20164 8.75 5.72034 8.75 6.28372C8.75 7.66443 7.63071 8.78372 6.25 8.78372C5.68686 8.78372 5.16817 8.59837 4.75 8.28403V4.78345H8.25009ZM16.7826 12.2467L20.75 17.138V20.7834H16.2306L12.56 16.1951L16.7826 12.2467ZM4.75 19.0434L9.21536 15.2159L13.6694 20.7834H4.75V19.0434Z" fill="#8E8E8E"/>
</svg>
