<svg width="24" height="24" viewBox="0 0 24 24" fill="none" xmlns="http://www.w3.org/2000/svg">
<path d="M12.0264 24H11.9736C5.37143 24 0 18.6286 0 12.0264V11.9736C0 5.37143 5.37143 0 11.9736 0H12.0264C18.6286 0 24 5.37143 24 11.9736V12.0264C24 18.6286 18.6286 24 12.0264 24ZM11.9736 0.812375C5.81905 0.812375 0.812375 5.81905 0.812375 11.9736V12.0264C0.812375 18.181 5.81905 23.1876 11.9736 23.1876H12.0264C18.181 23.1876 23.1876 18.181 23.1876 12.0264V11.9736C23.1876 5.81905 18.181 0.812375 12.0264 0.812375H11.9736Z" fill="url(#paint0_linear_7871_55673)"/>
<path d="M15.588 5.12354H8.41312C6.43092 5.12354 4.81836 6.7361 4.81836 8.7183V15.2823C4.81836 17.2645 6.43092 18.877 8.41312 18.877H15.588C17.5702 18.877 19.1828 17.2645 19.1828 15.2823V8.7183C19.1828 6.7361 17.5702 5.12354 15.588 5.12354ZM6.08648 8.7183C6.08648 7.43556 7.13038 6.39165 8.41312 6.39165H15.588C16.8708 6.39165 17.9147 7.43556 17.9147 8.7183V15.2823C17.9147 16.565 16.8708 17.6089 15.588 17.6089H8.41312C7.13038 17.6089 6.08648 16.565 6.08648 15.2823V8.7183Z" fill="url(#paint1_linear_7871_55673)"/>
<path d="M12.0005 15.3432C13.8438 15.3432 15.3442 13.8436 15.3442 11.9995C15.3442 10.1554 13.8446 8.65576 12.0005 8.65576C10.1564 8.65576 8.65674 10.1554 8.65674 11.9995C8.65674 13.8436 10.1564 15.3432 12.0005 15.3432ZM12.0005 9.92469C13.1451 9.92469 14.0761 10.8557 14.0761 12.0003C14.0761 13.1449 13.1451 14.0759 12.0005 14.0759C10.8558 14.0759 9.92486 13.1449 9.92486 12.0003C9.92486 10.8557 10.8558 9.92469 12.0005 9.92469Z" fill="url(#paint2_linear_7871_55673)"/>
<path d="M15.6539 9.19589C16.1502 9.19589 16.5548 8.79214 16.5548 8.29496C16.5548 7.79779 16.151 7.39404 15.6539 7.39404C15.1567 7.39404 14.7529 7.79779 14.7529 8.29496C14.7529 8.79214 15.1567 9.19589 15.6539 9.19589Z" fill="url(#paint3_linear_7871_55673)"/>
<defs>
<linearGradient id="paint0_linear_7871_55673" x1="3.51109" y1="20.4889" x2="20.4889" y2="3.51108" gradientUnits="userSpaceOnUse">
<stop stop-color="#FAAD4F"/>
<stop offset="0.35" stop-color="#DD2A7B"/>
<stop offset="0.62" stop-color="#9537B0"/>
<stop offset="1" stop-color="#515BD4"/>
</linearGradient>
<linearGradient id="paint1_linear_7871_55673" x1="6.02474" y1="17.9753" x2="17.9756" y2="6.02445" gradientUnits="userSpaceOnUse">
<stop stop-color="#FAAD4F"/>
<stop offset="0.35" stop-color="#DD2A7B"/>
<stop offset="0.62" stop-color="#9537B0"/>
<stop offset="1" stop-color="#515BD4"/>
</linearGradient>
<linearGradient id="paint2_linear_7871_55673" x1="9.63728" y1="14.3627" x2="14.3629" y2="9.63711" gradientUnits="userSpaceOnUse">
<stop stop-color="#FAAD4F"/>
<stop offset="0.35" stop-color="#DD2A7B"/>
<stop offset="0.62" stop-color="#9537B0"/>
<stop offset="1" stop-color="#515BD4"/>
</linearGradient>
<linearGradient id="paint3_linear_7871_55673" x1="15.017" y1="8.93186" x2="16.2908" y2="7.65806" gradientUnits="userSpaceOnUse">
<stop stop-color="#FAAD4F"/>
<stop offset="0.35" stop-color="#DD2A7B"/>
<stop offset="0.62" stop-color="#9537B0"/>
<stop offset="1" stop-color="#515BD4"/>
</linearGradient>
</defs>
</svg>
