<svg width="36" height="36" viewBox="0 0 36 36" fill="none" xmlns="http://www.w3.org/2000/svg">
<path d="M26.009 8.19049C25.653 8.19049 25.305 8.29606 25.009 8.49384C24.713 8.69163 24.4823 8.97275 24.346 9.30166C24.2098 9.63057 24.1742 9.99249 24.2436 10.3417C24.3131 10.6908 24.4845 11.0115 24.7362 11.2633C24.988 11.515 25.3087 11.6864 25.6579 11.7559C26.007 11.8254 26.3689 11.7897 26.6979 11.6535C27.0268 11.5172 27.3079 11.2865 27.5057 10.9905C27.7035 10.6945 27.809 10.3465 27.809 9.99049C27.809 9.5131 27.6194 9.05526 27.2818 8.7177C26.9443 8.38013 26.4864 8.19049 26.009 8.19049ZM32.909 11.8205C32.8796 10.576 32.6465 9.34466 32.219 8.17549C31.8393 7.17431 31.2455 6.26818 30.479 5.52049C29.7363 4.75163 28.8284 4.16175 27.824 3.79549C26.658 3.35473 25.4253 3.1163 24.179 3.09049C22.589 3.00049 22.079 3.00049 17.999 3.00049C13.919 3.00049 13.409 3.00049 11.819 3.09049C10.5728 3.1163 9.34004 3.35473 8.17402 3.79549C7.17199 4.16637 6.26507 4.75561 5.51902 5.52049C4.75016 6.26325 4.16029 7.17115 3.79402 8.17549C3.35326 9.3415 3.11484 10.5742 3.08902 11.8205C2.99902 13.4105 2.99902 13.9205 2.99902 18.0005C2.99902 22.0805 2.99902 22.5905 3.08902 24.1805C3.11484 25.4268 3.35326 26.6595 3.79402 27.8255C4.16029 28.8298 4.75016 29.7377 5.51902 30.4805C6.26507 31.2454 7.17199 31.8346 8.17402 32.2055C9.34004 32.6462 10.5728 32.8847 11.819 32.9105C13.409 33.0005 13.919 33.0005 17.999 33.0005C22.079 33.0005 22.589 33.0005 24.179 32.9105C25.4253 32.8847 26.658 32.6462 27.824 32.2055C28.8284 31.8392 29.7363 31.2493 30.479 30.4805C31.2474 29.7344 31.8415 28.8278 32.219 27.8255C32.6465 26.6563 32.8796 25.425 32.909 24.1805C32.909 22.5905 32.999 22.0805 32.999 18.0005C32.999 13.9205 32.999 13.4105 32.909 11.8205ZM30.209 24.0005C30.1984 24.9527 30.0259 25.8961 29.699 26.7905C29.4595 27.4433 29.0748 28.0331 28.574 28.5155C28.0872 29.0109 27.4986 29.3947 26.849 29.6405C25.9547 29.9674 25.0112 30.1399 24.059 30.1505C22.559 30.2255 22.004 30.2405 18.059 30.2405C14.114 30.2405 13.559 30.2405 12.059 30.1505C11.0703 30.1699 10.0857 30.0176 9.14902 29.7005C8.5283 29.4415 7.96688 29.0587 7.49902 28.5755C7.00116 28.0936 6.62129 27.5033 6.38902 26.8505C6.02159 25.9436 5.81843 24.9786 5.78902 24.0005C5.78902 22.5005 5.69902 21.9455 5.69902 18.0005C5.69902 14.0555 5.69902 13.5005 5.78902 12.0005C5.79449 11.027 5.97224 10.0621 6.31402 9.15049C6.57809 8.51735 6.98342 7.95298 7.49902 7.50049C7.95341 6.98327 8.51697 6.57341 9.14902 6.30049C10.0631 5.96971 11.0269 5.79723 11.999 5.79049C13.499 5.79049 14.054 5.70049 17.999 5.70049C21.944 5.70049 22.499 5.70049 23.999 5.79049C24.9512 5.80112 25.8947 5.97358 26.789 6.30049C27.4707 6.55347 28.0825 6.96476 28.574 7.50049C29.0641 7.96252 29.4479 8.5255 29.699 9.15049C30.0327 10.0638 30.2053 11.0281 30.209 12.0005C30.284 13.5005 30.299 14.0555 30.299 18.0005C30.299 21.9455 30.284 22.5005 30.209 24.0005ZM17.999 10.3055C16.4777 10.3085 14.9915 10.7623 13.728 11.6096C12.4645 12.457 11.4806 13.6598 10.9005 15.0661C10.3204 16.4725 10.1701 18.0192 10.4687 19.5109C10.7673 21.0026 11.5014 22.3723 12.5781 23.447C13.6549 24.5216 15.026 25.253 16.5183 25.5487C18.0106 25.8444 19.557 25.6911 20.9622 25.1083C22.3674 24.5254 23.5683 23.5391 24.4132 22.274C25.2581 21.0089 25.709 19.5218 25.709 18.0005C25.711 16.9881 25.5128 15.9854 25.1259 15.0499C24.7389 14.1144 24.1709 13.2647 23.4543 12.5496C22.7378 11.8344 21.8869 11.268 20.9507 10.8829C20.0145 10.4978 19.0114 10.3015 17.999 10.3055ZM17.999 22.9955C17.0111 22.9955 16.0454 22.7025 15.2239 22.1537C14.4025 21.6048 13.7623 20.8247 13.3842 19.912C13.0062 18.9993 12.9073 17.9949 13.1 17.026C13.2927 16.0571 13.7685 15.1671 14.467 14.4685C15.1656 13.7699 16.0556 13.2942 17.0245 13.1015C17.9935 12.9087 18.9978 13.0077 19.9105 13.3857C20.8232 13.7638 21.6034 14.404 22.1522 15.2254C22.7011 16.0468 22.994 17.0126 22.994 18.0005C22.994 18.6564 22.8648 19.306 22.6138 19.912C22.3628 20.518 21.9949 21.0687 21.531 21.5325C21.0672 21.9963 20.5165 22.3642 19.9105 22.6153C19.3045 22.8663 18.655 22.9955 17.999 22.9955Z" fill="#2B3990"/>
</svg>
