<svg width="43" height="43" viewBox="0 0 43 43" fill="none" xmlns="http://www.w3.org/2000/svg">
<path d="M19.6432 2.92834H37.649C38.989 2.92834 40.0747 4.01406 40.0747 5.35406V24.7198C40.0747 26.0626 38.989 27.1483 37.649 27.1483H22.929M10.4975 12.9312C11.824 12.9312 13.0961 12.4043 14.0341 11.4663C14.972 10.5284 15.499 9.25624 15.499 7.92977C15.499 6.60331 14.972 5.33118 14.0341 4.39323C13.0961 3.45528 11.824 2.92834 10.4975 2.92834C9.17106 2.92834 7.89893 3.45528 6.96098 4.39323C6.02303 5.33118 5.49609 6.60331 5.49609 7.92977C5.49609 9.25624 6.02303 10.5284 6.96098 11.4663C7.89893 12.4043 9.17106 12.9312 10.4975 12.9312Z" stroke="#2B3990" stroke-width="4" stroke-linecap="round" stroke-linejoin="round"/>
<path d="M27.2144 17.291C27.2144 15.671 25.9001 14.3567 24.2801 14.3567H10.4973C8.4902 14.3574 6.56555 15.1551 5.14633 16.5743C3.72711 17.9935 2.92947 19.9182 2.92871 21.9253V28.6424H6.17157L7.25442 40.071H13.7401L16.2316 20.2281H24.2801C25.9001 20.2281 27.2144 18.9138 27.2144 17.291Z" stroke="#2B3990" stroke-width="4" stroke-linecap="round" stroke-linejoin="round"/>
</svg>
