<svg width="25" height="24" viewBox="0 0 25 24" fill="none" xmlns="http://www.w3.org/2000/svg">
<path d="M2.9375 2H4.9375V9.58093L9.16599 8.0708C9.50061 7.4342 10.1683 7 10.9375 7C12.0421 7 12.9375 7.89539 12.9375 9C12.9375 9.13916 12.9233 9.27502 12.8962 9.40613L15.674 13.0172C15.6971 13.0142 15.7205 13.0115 15.7439 13.0093L19.3103 5.16321C19.0756 4.83545 18.9375 4.43384 18.9375 4C18.9375 2.89539 19.8329 2 20.9375 2C22.0421 2 22.9375 2.89539 22.9375 4C22.9375 5.03931 22.1448 5.89331 21.1311 5.99072L17.5647 13.8368C17.7993 14.1646 17.9375 14.5662 17.9375 15C17.9375 16.1046 17.0421 17 15.9375 17C14.8329 17 13.9375 16.1046 13.9375 15C13.9375 14.7296 13.9912 14.4717 14.0884 14.2365L11.5302 10.9108C11.343 10.9688 11.1439 11 10.9375 11C10.2597 11 9.66064 10.6628 9.29892 10.1471L4.9375 11.7047V20H22.9375V22H2.9375V2Z" fill="#8E8E8E"/>
</svg>
