<svg width="36" height="36" viewBox="0 0 36 36" fill="none" xmlns="http://www.w3.org/2000/svg">
<path d="M23.999 12.0005C26.386 12.0005 28.6752 12.9487 30.363 14.6365C32.0508 16.3244 32.999 18.6135 32.999 21.0005V31.5005H26.999V21.0005C26.999 20.2048 26.683 19.4418 26.1203 18.8792C25.5577 18.3166 24.7947 18.0005 23.999 18.0005C23.2034 18.0005 22.4403 18.3166 21.8777 18.8792C21.3151 19.4418 20.999 20.2048 20.999 21.0005V31.5005H14.999V21.0005C14.999 18.6135 15.9472 16.3244 17.6351 14.6365C19.3229 12.9487 21.6121 12.0005 23.999 12.0005ZM2.99902 13.5005H8.99902V31.5005H2.99902V13.5005Z" stroke="#2B3990" stroke-width="2" stroke-linecap="round" stroke-linejoin="round"/>
<path d="M5.99902 9.00049C7.65588 9.00049 8.99902 7.65734 8.99902 6.00049C8.99902 4.34363 7.65588 3.00049 5.99902 3.00049C4.34217 3.00049 2.99902 4.34363 2.99902 6.00049C2.99902 7.65734 4.34217 9.00049 5.99902 9.00049Z" stroke="#2B3990" stroke-width="2" stroke-linecap="round" stroke-linejoin="round"/>
</svg>
