<svg width="24" height="24" viewBox="0 0 24 24" fill="none" xmlns="http://www.w3.org/2000/svg">
<path d="M12.0264 24H11.9736C5.37143 24 0 18.6286 0 12.0264V11.9736C0 5.37143 5.37143 0 11.9736 0H12.0264C18.6286 0 24 5.37143 24 11.9736V12.0264C24 18.6286 18.6286 24 12.0264 24ZM11.9736 0.812375C5.81905 0.812375 0.812375 5.81905 0.812375 11.9736V12.0264C0.812375 18.181 5.81905 23.1876 11.9736 23.1876H12.0264C18.181 23.1876 23.1876 18.181 23.1876 12.0264V11.9736C23.1876 5.81905 18.181 0.812375 12.0264 0.812375H11.9736Z" fill="#007EBB"/>
<path d="M5.93587 8.11337C5.63042 7.82985 5.47852 7.47891 5.47852 7.06135C5.47852 6.64379 5.63123 6.2774 5.93587 5.99307C6.24133 5.70955 6.63452 5.56738 7.11626 5.56738C7.59799 5.56738 7.97575 5.70955 8.2804 5.99307C8.58585 6.27659 8.73775 6.63323 8.73775 7.06135C8.73775 7.48947 8.58504 7.82985 8.2804 8.11337C7.97494 8.39689 7.58743 8.53906 7.11626 8.53906C6.64508 8.53906 6.24133 8.39689 5.93587 8.11337ZM8.48105 9.73975V18.4322H5.73441V9.73975H8.48105Z" fill="#007EBB"/>
<path d="M17.6243 10.5984C18.223 11.2483 18.522 12.1403 18.522 13.276V18.2786H15.9134V13.6285C15.9134 13.0558 15.7648 12.6106 15.4683 12.2938C15.1717 11.977 14.7721 11.8178 14.2716 11.8178C13.7712 11.8178 13.3715 11.9762 13.075 12.2938C12.7785 12.6106 12.6298 13.0558 12.6298 13.6285V18.2786H10.0059V9.71534H12.6298V10.851C12.8955 10.4725 13.2537 10.1735 13.7038 9.95336C14.1538 9.73321 14.66 9.62354 15.2229 9.62354C16.2254 9.62354 17.0264 9.94849 17.6243 10.5984Z" fill="#007EBB"/>
</svg>
