<svg width="25" height="24" viewBox="0 0 25 24" fill="none" xmlns="http://www.w3.org/2000/svg">
<path d="M18.95 6.41062C18.95 6.88981 19.3522 7.27894 19.8486 7.27894C20.3449 7.27894 20.7478 6.8905 20.7478 6.40994C20.7478 5.93144 20.3449 5.54163 19.8493 5.54163C19.3522 5.54163 18.95 5.93213 18.95 6.41062ZM22.4425 13.6156C21.8031 13.6143 21.2854 13.1138 21.2848 12.4957C21.2848 11.8776 21.8024 11.3771 22.4425 11.3764C23.0812 11.3764 23.5989 11.8783 23.6003 12.495C23.5989 13.1137 23.0812 13.6143 22.4425 13.6156ZM19.8486 19.9269C19.0696 19.9262 18.4385 19.3157 18.4378 18.5629C18.4378 17.8087 19.0696 17.1996 19.8486 17.1982C20.6275 17.1996 21.2586 17.8101 21.2593 18.5629C21.2593 19.3157 20.6275 19.9262 19.8486 19.9269ZM13.5167 22.7834C12.5514 22.7828 11.7691 22.0265 11.7684 21.0929C11.7684 20.1606 12.5521 19.403 13.516 19.403C14.4813 19.4037 15.2636 20.1599 15.2643 21.0929C15.2643 22.0251 14.4806 22.7834 13.5153 22.7834H13.5167ZM7.27832 20.5662C6.17282 20.5649 5.2777 19.7 5.27701 18.6316C5.27838 17.5632 6.17282 16.6977 7.27763 16.6963C8.38176 16.6977 9.27757 17.5632 9.27826 18.6316C9.27826 19.6979 8.38176 20.5662 7.27832 20.5662ZM4.62663 14.7672C3.32451 14.7665 2.26851 13.7449 2.26782 12.4847C2.2692 11.2259 3.3252 10.2049 4.62732 10.2036C5.93013 10.2049 6.98613 11.2259 6.98682 12.4847C6.98613 13.7442 5.93013 14.7658 4.62663 14.7672ZM7.27832 8.9145C5.80226 8.9145 4.6012 7.75331 4.6012 6.32675C4.6012 4.89881 5.80226 3.73831 7.27832 3.73831C8.75507 3.73969 9.9527 4.89813 9.95407 6.32675C9.95407 7.75263 8.7537 8.9145 7.27832 8.9145ZM13.5153 6.66431C11.9004 6.66431 10.5859 5.3945 10.5859 3.83181C10.5866 2.27187 11.9011 1 13.516 1C15.1316 1 16.4461 2.2705 16.4461 3.8325C16.4461 5.3945 15.1316 6.66431 13.5153 6.66431Z" fill="#8E8E8E"/>
</svg>
