<svg width="12" height="14" viewBox="0 0 12 14" fill="none" xmlns="http://www.w3.org/2000/svg">
<path d="M2.47984 10.0933C2.64958 10.0438 2.83203 10.0638 2.98706 10.1488C3.14209 10.2338 3.257 10.3769 3.3065 10.5467C3.35601 10.7164 3.33606 10.8989 3.25105 11.0539C3.16603 11.2089 3.02291 11.3238 2.85317 11.3733C2.51984 11.4707 2.27984 11.5733 2.12584 11.6667C2.2845 11.762 2.53517 11.8687 2.88317 11.968C3.65317 12.188 4.75517 12.3333 5.99984 12.3333C7.2445 12.3333 8.3465 12.188 9.1165 11.968C9.46517 11.8687 9.71517 11.762 9.87384 11.6667C9.7205 11.5733 9.4805 11.4707 9.14717 11.3733C8.9801 11.3216 8.84003 11.2064 8.75716 11.0524C8.67428 10.8984 8.65523 10.718 8.70412 10.5501C8.75301 10.3822 8.86591 10.2402 9.0185 10.1548C9.17109 10.0693 9.35114 10.0473 9.51984 10.0933C9.96517 10.2233 10.3732 10.39 10.6865 10.604C10.9765 10.8033 11.3332 11.1507 11.3332 11.6667C11.3332 12.1887 10.9678 12.5387 10.6732 12.738C10.3545 12.9527 9.93784 13.12 9.4825 13.25C8.56384 13.5133 7.33317 13.6667 5.99984 13.6667C4.6665 13.6667 3.43584 13.5133 2.51717 13.25C2.06184 13.12 1.64517 12.9527 1.3265 12.738C1.03184 12.538 0.666504 12.1887 0.666504 11.6667C0.666504 11.1507 1.02317 10.8033 1.31317 10.604C1.6265 10.39 2.0345 10.2233 2.47984 10.0933ZM5.99984 4C4.97317 4 4.33184 5.11133 4.84517 6C5.08317 6.41267 5.52317 6.66667 5.99984 6.66667C7.0265 6.66667 7.66784 5.55533 7.1545 4.66667C7.03748 4.46398 6.86917 4.29567 6.66648 4.17864C6.4638 4.06162 6.23388 4.00001 5.99984 4Z" fill="white"/>
<path opacity="0.3" d="M6 0.333008C7.32608 0.333008 8.59785 0.859792 9.53553 1.79747C10.4732 2.73516 11 4.00693 11 5.33301C11 7.04501 10.0667 8.43701 9.1 9.42634C8.71573 9.81563 8.3028 10.1755 7.86467 10.503C7.46867 10.8003 6.56333 11.3577 6.56333 11.3577C6.39163 11.4553 6.19751 11.5066 6 11.5066C5.80249 11.5066 5.60837 11.4553 5.43667 11.3577C4.98737 11.0971 4.55292 10.8118 4.13533 10.503C3.6972 10.1755 3.28427 9.81563 2.9 9.42634C1.93333 8.43701 1 7.04501 1 5.33301C1 4.00693 1.52678 2.73516 2.46447 1.79747C3.40215 0.859792 4.67392 0.333008 6 0.333008Z" fill="white"/>
</svg>
