<svg width="8" height="8" viewBox="0 0 8 8" fill="none" xmlns="http://www.w3.org/2000/svg">
<path fill-rule="evenodd" clip-rule="evenodd" d="M2.4165 3.33333C2.4165 2.91341 2.58332 2.51068 2.88025 2.21375C3.17718 1.91682 3.57991 1.75 3.99984 1.75C4.41976 1.75 4.82249 1.91682 5.11942 2.21375C5.41636 2.51068 5.58317 2.91341 5.58317 3.33333C5.58317 3.75326 5.41636 4.15599 5.11942 4.45292C4.82249 4.74985 4.41976 4.91667 3.99984 4.91667C3.57991 4.91667 3.17718 4.74985 2.88025 4.45292C2.58332 4.15599 2.4165 3.75326 2.4165 3.33333ZM3.99984 2.25C3.71252 2.25 3.43697 2.36414 3.23381 2.5673C3.03064 2.77047 2.9165 3.04602 2.9165 3.33333C2.9165 3.62065 3.03064 3.8962 3.23381 4.09937C3.43697 4.30253 3.71252 4.41667 3.99984 4.41667C4.28716 4.41667 4.56271 4.30253 4.76587 4.09937C4.96903 3.8962 5.08317 3.62065 5.08317 3.33333C5.08317 3.04602 4.96903 2.77047 4.76587 2.5673C4.56271 2.36414 4.28716 2.25 3.99984 2.25Z" fill="#3B82F6"/>
<path fill-rule="evenodd" clip-rule="evenodd" d="M1.17466 2.95229C1.23178 2.26128 1.5466 1.617 2.05663 1.14729C2.56666 0.677584 3.23463 0.416778 3.92799 0.416626H4.07199C4.76536 0.416778 5.43333 0.677584 5.94336 1.14729C6.45339 1.617 6.7682 2.26128 6.82533 2.95229C6.88887 3.72207 6.65105 4.48645 6.16199 5.08429L4.56433 7.03796C4.49595 7.12157 4.40985 7.18894 4.31226 7.23521C4.21466 7.28147 4.108 7.30547 3.99999 7.30547C3.89198 7.30547 3.78533 7.28147 3.68773 7.23521C3.59013 7.18894 3.50403 7.12157 3.43566 7.03796L1.83799 5.08429C1.34894 4.48645 1.11111 3.72207 1.17466 2.95229ZM3.92799 0.916626C3.3602 0.916866 2.81323 1.13051 2.3956 1.51518C1.97796 1.89984 1.72015 2.42743 1.67333 2.99329C1.62042 3.63392 1.81833 4.27007 2.22533 4.76763L3.82299 6.72163C3.84447 6.74791 3.87152 6.76909 3.90219 6.78364C3.93286 6.79819 3.96638 6.80573 4.00033 6.80573C4.03427 6.80573 4.06779 6.79819 4.09846 6.78364C4.12913 6.76909 4.15618 6.74791 4.17766 6.72163L5.77533 4.76763C6.18209 4.26997 6.37975 3.63383 6.32666 2.99329C6.27983 2.42737 6.02198 1.89974 5.60427 1.51506C5.18656 1.13039 4.63951 0.916782 4.07166 0.916626H3.92799Z" fill="#3B82F6"/>
</svg>
