<svg width="158" height="40" viewBox="0 0 158 40" fill="none" xmlns="http://www.w3.org/2000/svg">
<g clip-path="url(#clip0_2383_19791)">
<path d="M1.29932 4.28906H14.3401V6.95329H6.85949V12.5377H13.2555V15.0923H6.85949V23.8947H1.29932V4.28906Z" fill="#2B3990"/>
<path d="M21.0324 6.40453C20.3728 6.84985 19.5724 7.04467 18.7787 6.95305C17.9499 7.04812 17.1129 6.86404 16.4033 6.43065C16.1135 6.22506 15.8863 5.94493 15.7463 5.62073C15.6064 5.29653 15.5592 4.94066 15.6098 4.59181C15.5601 4.25097 15.6036 3.90323 15.7357 3.58453C15.8677 3.26584 16.0836 2.98777 16.361 2.77909C17.0269 2.34782 17.8221 2.15428 18.6147 2.23057C19.4433 2.13999 20.2788 2.32374 20.9901 2.75297C21.2818 2.95443 21.5106 3.23238 21.6509 3.55545C21.7911 3.87852 21.8371 4.23385 21.7836 4.58136C21.8292 4.92349 21.7839 5.27144 21.6522 5.59106C21.5205 5.91069 21.3069 6.19102 21.0324 6.40453ZM16.0859 8.29561L21.4556 7.58515V23.8944H16.0648L16.0859 8.29561Z" fill="#2B3990"/>
<path d="M29.2693 23.8946H23.8784V8.3585L29.2693 7.56445V9.18389L29.8565 8.68761C30.2682 8.38112 30.7203 8.13155 31.2003 7.9458C31.6276 7.81329 32.0757 7.75842 32.5229 7.78386C32.7602 7.78266 32.9973 7.80013 33.2318 7.8361C33.4867 7.87966 33.7354 7.95332 33.9724 8.05551L34.2475 8.16521V13.269L32.3271 12.172C32.0655 12.0241 31.7866 11.9083 31.4965 11.8272C31.2087 11.7466 30.9151 11.6872 30.6183 11.6496C30.3605 11.6137 30.1009 11.591 29.8407 11.5817H29.3539C29.301 11.5817 29.2693 11.5817 29.2693 11.6078V23.8946Z" fill="#2B3990"/>
<path d="M35.4432 20.0492L36.0569 20.4044C36.5399 20.6427 37.0362 20.8538 37.5435 21.0365C37.9614 21.1828 38.4058 21.3186 38.8767 21.4388C39.3 21.5486 39.7351 21.6083 40.1728 21.6164C40.4301 21.6175 40.6864 21.5841 40.9346 21.5171C41.1696 21.4609 41.3944 21.3693 41.6012 21.2455C41.7814 21.1403 41.9381 20.9998 42.0615 20.8328C42.1746 20.6831 42.224 20.4956 42.199 20.3104C42.2037 20.1578 42.1895 20.0051 42.1567 19.8559C42.1125 19.7071 42.0326 19.5709 41.9239 19.4589C41.7453 19.2668 41.5487 19.0919 41.3367 18.9365C41.0774 18.7484 40.7177 18.4977 40.2786 18.1843L38.4746 16.9775C37.9923 16.6655 37.5359 16.3161 37.1097 15.9327C36.7665 15.6218 36.4627 15.271 36.205 14.8879C35.9764 14.5496 35.8081 14.175 35.7077 13.7804C35.5963 13.3749 35.5359 12.9573 35.5279 12.5371C35.5188 11.8616 35.6559 11.192 35.9299 10.5729C36.1861 9.99667 36.565 9.48173 37.0409 9.06319C37.5414 8.63642 38.1246 8.31471 38.755 8.11765C39.4639 7.89123 40.2054 7.78008 40.9505 7.78853H41.7811C42.0615 7.78853 42.3789 7.8251 42.728 7.87212C43.0772 7.91913 43.4846 7.9766 43.9395 8.04973C44.3945 8.12287 44.9183 8.22735 45.5266 8.35272L46.5265 8.57213V11.3199L45.9181 11.0692C45.3574 10.8707 44.8601 10.714 44.4844 10.6043C44.1088 10.4946 43.6591 10.3901 43.2042 10.2908C42.8075 10.195 42.401 10.1442 41.9927 10.1393C41.5989 10.131 41.2117 10.2403 40.8817 10.4528C40.7347 10.5436 40.6156 10.6724 40.5373 10.8253C40.4589 10.9781 40.4244 11.1491 40.4373 11.3199C40.4281 11.4608 40.4281 11.6022 40.4373 11.7431C40.4604 11.8712 40.519 11.9906 40.6066 12.0879C40.7334 12.2285 40.8773 12.3531 41.0351 12.4588C41.2309 12.5946 41.5165 12.7827 41.8869 13.0177V13.0595L43.7808 14.2297C44.3063 14.5612 44.8083 14.9278 45.2833 15.3267C45.6575 15.6395 45.9883 15.9996 46.2673 16.3976C46.5089 16.7537 46.6878 17.1476 46.7963 17.5626C47.0842 18.7241 46.9916 19.9459 46.5318 21.0522C46.2659 21.6803 45.8694 22.2462 45.3679 22.7134C44.8383 23.1786 44.2194 23.5339 43.548 23.7582C42.805 24.0131 42.0227 24.1386 41.2362 24.1291C40.4241 24.112 39.6151 24.0246 38.8185 23.8679C37.8345 23.6973 36.7958 23.4744 35.7024 23.1993L35.3691 23.1157L35.4432 20.0492Z" fill="#2B3990"/>
<path d="M54.854 19.8141C54.8717 20.0151 54.9663 20.2019 55.1185 20.3365C55.2982 20.4631 55.5076 20.5422 55.7269 20.5664C56.0913 20.6215 56.4588 20.6547 56.8273 20.6657C56.9575 20.6783 57.0886 20.6783 57.2188 20.6657C57.3299 20.6657 57.4939 20.6343 57.7161 20.5977L58.2451 20.5455V23.1261C57.7637 23.2724 57.4674 23.356 57.3563 23.3717L56.2136 23.6747C55.8274 23.7687 55.4994 23.8418 55.2402 23.8941C54.9809 23.9463 54.7482 23.9933 54.5471 24.0194C54.3461 24.0456 54.1451 24.0717 53.9599 24.0874C53.7747 24.103 53.5737 24.1135 53.3515 24.1135C52.8321 24.1831 52.3034 24.1356 51.8052 23.9746C51.307 23.8136 50.8522 23.5432 50.475 23.1838C50.0977 22.8243 49.8079 22.3852 49.6271 21.8993C49.4464 21.4134 49.3794 20.8934 49.4313 20.3783V11.1267H47.8442V8.54602L49.7117 7.8878C49.9303 7.80515 50.1312 7.6829 50.3043 7.52734C50.4682 7.39583 50.6188 7.24887 50.7539 7.08853L50.9338 6.86912L52.4892 4.70117H54.7958V7.94004H58.2186V11.1267H54.7958V18.8686C54.7908 19.1848 54.8102 19.5009 54.854 19.8141Z" fill="#2B3990"/>
<path d="M65.1114 19.3909L65.8097 19.7462C66.4763 20.0387 67.053 20.2686 67.545 20.4462C68.037 20.6238 68.5607 20.7753 69.1321 20.9163C69.6403 21.0461 70.1626 21.1145 70.6875 21.1201C70.9855 21.1192 71.2816 21.0734 71.5657 20.9843C71.841 20.8976 72.1002 20.7671 72.3328 20.5977C72.5474 20.4379 72.7273 20.2372 72.8618 20.0074C73.0002 19.7814 73.0631 19.5183 73.0417 19.2551C73.0446 19.08 73.0304 18.9051 72.9994 18.7327C72.964 18.5656 72.8877 18.4095 72.7772 18.2782C72.6111 18.0817 72.4209 17.9062 72.2111 17.7558C71.9466 17.5573 71.5868 17.3013 71.153 16.9879L68.7882 15.3685C68.2306 14.9834 67.7003 14.561 67.2011 14.1043C66.7974 13.733 66.442 13.3136 66.143 12.8557C65.8707 12.4366 65.6655 11.9784 65.5346 11.4975C65.3987 10.9861 65.3328 10.459 65.3389 9.93032C65.3315 9.11285 65.486 8.30184 65.7939 7.54296C66.0881 6.83279 66.5235 6.18801 67.0741 5.64665C67.6352 5.11002 68.2964 4.686 69.021 4.39812C69.7941 4.09033 70.621 3.9359 71.4546 3.94364C72.3445 3.96765 73.2301 4.07434 74.0997 4.2623C75.1578 4.47126 76.3023 4.73246 77.5332 5.0459L77.8665 5.12948V8.31088L77.2581 8.03924C76.6444 7.79893 76.1154 7.60564 75.671 7.45937C75.2266 7.3131 74.7558 7.1825 74.2532 7.06235C73.8054 6.93428 73.3435 6.8606 72.8777 6.84294C72.3033 6.8304 71.7424 7.01503 71.2906 7.36534C71.0775 7.52096 70.9073 7.72679 70.7955 7.96404C70.6837 8.20129 70.6338 8.46241 70.6504 8.72358C70.6481 8.91321 70.6676 9.10249 70.7086 9.28777C70.7513 9.4554 70.8328 9.61097 70.9467 9.74225C71.1042 9.92465 71.2816 10.0893 71.4757 10.2333C71.774 10.4706 72.0848 10.6921 72.4068 10.8968L75.1578 12.7356C75.679 13.0769 76.1725 13.4576 76.6338 13.8744C77.0201 14.2239 77.3597 14.6207 77.6443 15.055C77.9126 15.4643 78.111 15.9144 78.2315 16.3872C78.3576 16.9089 78.418 17.4441 78.4114 17.9805C78.4116 18.8265 78.2314 19.6631 77.8824 20.4357C77.5488 21.1859 77.0666 21.8626 76.4643 22.426C75.8619 22.9894 75.1515 23.4281 74.3748 23.7164C73.5315 24.038 72.6337 24.1976 71.7297 24.1866C70.9137 24.1759 70.0999 24.1008 69.2961 23.9619C68.1714 23.7734 67.0613 23.5081 65.9737 23.1679L65.0532 22.891L65.1114 19.3909Z" fill="#2B3990"/>
<path d="M86.5214 19.8149C86.5392 20.0159 86.6338 20.2026 86.786 20.3373C86.9676 20.4638 87.1787 20.5429 87.3996 20.5671C87.7641 20.6223 88.1315 20.6554 88.5 20.6664C88.6285 20.679 88.7578 20.679 88.8862 20.6664C88.9973 20.6664 89.1666 20.635 89.4153 20.5985L89.9179 20.5462V23.1269C89.4312 23.2731 89.1349 23.3567 89.0238 23.3724L87.8864 23.6754C87.4949 23.7694 87.1722 23.8426 86.9129 23.8948C86.6537 23.947 86.4209 23.9941 86.2146 24.0202C86.0083 24.0463 85.8178 24.0724 85.6327 24.0881C85.4475 24.1038 85.2412 24.1142 85.019 24.1142C84.4997 24.1828 83.9715 24.1346 83.4738 23.9732C82.976 23.8118 82.5217 23.5414 82.1447 23.1822C81.7677 22.823 81.4778 22.3843 81.2967 21.8989C81.1156 21.4135 81.0479 20.8939 81.0988 20.3791V11.1274H79.5435V8.54675L81.4057 7.88853C81.6258 7.80601 81.8286 7.68378 82.0035 7.52807C82.1672 7.39807 82.3162 7.25094 82.4479 7.08926L82.6277 6.86985L84.2148 4.67578H86.5214V7.91465H89.9443V11.1013H86.5214V18.8693C86.4976 19.1841 86.4976 19.5001 86.5214 19.8149Z" fill="#2B3990"/>
<path d="M101.774 20.598C102.126 20.5632 102.613 20.49 103.234 20.3786L103.678 20.295L104.091 22.9853L103.117 23.2047L101.451 23.6174C100.723 23.8056 99.9847 23.9521 99.2396 24.0563C98.6642 24.1289 98.0846 24.1656 97.5044 24.166C96.5393 24.1812 95.5818 23.9942 94.6952 23.6174C93.8688 23.2565 93.1321 22.7216 92.5368 22.0502C91.9193 21.341 91.4485 20.5194 91.1507 19.6315C90.814 18.6313 90.6495 17.5824 90.664 16.5285C90.6511 15.3278 90.8296 14.1326 91.193 12.9866C91.507 11.9725 92.0212 11.0297 92.706 10.2127C93.357 9.44204 94.1739 8.82453 95.0973 8.40522C96.0718 7.9748 97.1301 7.76081 98.1974 7.77834C99.0418 7.77064 99.8807 7.914 100.673 8.20148C101.418 8.47599 102.084 8.92404 102.615 9.50748C102.895 9.79237 103.156 10.0942 103.398 10.4112C103.626 10.7164 103.804 11.0548 103.927 11.4142C104.065 11.8433 104.162 12.284 104.218 12.7307C104.287 13.3464 104.319 13.9657 104.313 14.5852V15.5464L96.1395 16.424C96.2264 17.6132 96.7383 18.7333 97.5838 19.5845C98.4706 20.2933 99.5858 20.6641 100.726 20.6293C101.076 20.6362 101.425 20.6258 101.774 20.598ZM99.0651 13.159C99.0728 12.6822 99.0445 12.2055 98.9804 11.7329C98.9472 11.4321 98.8632 11.139 98.7318 10.8657C98.6447 10.6809 98.4976 10.5301 98.3138 10.4373C98.1297 10.361 97.9315 10.3236 97.7319 10.3276C97.4775 10.3188 97.226 10.3833 97.0081 10.5132C96.7902 10.643 96.6152 10.8327 96.5045 11.059C96.2083 11.5814 96.0601 12.5008 96.0601 13.8695V13.9792L99.0651 13.5822V13.159Z" fill="#2B3990"/>
<path d="M106.239 29.9906V8.24318L111.635 7.58496V8.88051C111.783 8.79186 111.937 8.71332 112.096 8.64543L112.625 8.41557C113.108 8.2088 113.605 8.03428 114.111 7.89318C114.499 7.79807 114.897 7.75243 115.296 7.75735C116.112 7.75753 116.913 7.96439 117.624 8.35811C118.341 8.73631 118.96 9.27258 119.433 9.9253C119.95 10.65 120.335 11.4578 120.571 12.3127C120.85 13.2863 120.987 14.2942 120.978 15.306C120.979 16.4989 120.772 17.6829 120.365 18.8061C120.006 19.832 119.455 20.782 118.74 21.6061C118.053 22.3896 117.208 23.023 116.259 23.4659C115.265 23.9221 114.181 24.1523 113.085 24.1397C112.844 24.1427 112.604 24.1287 112.366 24.098C112.138 24.0718 111.9 24.03 111.641 23.9778V29.9906H106.239ZM114.334 20.0076C114.94 19.2066 115.245 17.9354 115.249 16.1941C115.252 14.4527 114.979 13.2025 114.429 12.4433C114.151 12.0664 113.784 11.7629 113.36 11.5597C112.935 11.3565 112.467 11.2598 111.995 11.2783C111.875 11.2756 111.754 11.2843 111.635 11.3044V21.2561H111.747C112.248 21.2701 112.745 21.1639 113.196 20.9464C113.646 20.729 114.037 20.4068 114.334 20.0076Z" fill="#2B3990"/>
<path d="M3.5318 36.1549C3.53936 36.3501 3.49906 36.5441 3.41432 36.7206C3.32957 36.897 3.2029 37.0507 3.04509 37.1684C2.66542 37.4316 2.20681 37.5605 1.74366 37.534C1.49185 37.5353 1.24045 37.5143 0.992423 37.4714C0.786609 37.4378 0.586943 37.3745 0.399902 37.2833L0.399902 36.5676C0.608685 36.6592 0.824505 36.7343 1.04533 36.7922C1.29232 36.8563 1.54647 36.8897 1.80185 36.8915C2.06514 36.9086 2.32694 36.8408 2.54779 36.6982C2.62864 36.6375 2.69313 36.5581 2.73557 36.467C2.77801 36.3759 2.7971 36.2759 2.79115 36.1758C2.79579 36.0403 2.7569 35.9068 2.68005 35.7945C2.58347 35.678 2.46256 35.5836 2.3256 35.5176C2.12045 35.4084 1.9084 35.3125 1.69075 35.2303C1.46587 35.1483 1.25112 35.0414 1.05062 34.9116C0.874355 34.8 0.724577 34.6521 0.611517 34.478C0.499866 34.2728 0.445114 34.0422 0.452806 33.8093C0.450746 33.6357 0.489863 33.464 0.567028 33.308C0.644193 33.152 0.757264 33.016 0.897197 32.9108C1.2317 32.6721 1.63824 32.5524 2.0505 32.5713C2.29959 32.5695 2.54808 32.5958 2.79115 32.6496C3.01489 32.6989 3.23294 32.7706 3.44186 32.8638L3.2038 33.4332C3.01819 33.3556 2.82726 33.291 2.63244 33.2399C2.43508 33.1919 2.23261 33.1673 2.02934 33.1668C1.80818 33.1513 1.58869 33.2143 1.41036 33.3444C1.34135 33.3995 1.28629 33.4698 1.24956 33.5496C1.21283 33.6294 1.19543 33.7165 1.19875 33.8041C1.19278 33.9367 1.22784 34.0679 1.29926 34.1802C1.38571 34.2981 1.50016 34.3932 1.63256 34.4571C1.82686 34.558 2.02641 34.6486 2.23037 34.7288C2.4733 34.8241 2.70852 34.9377 2.93399 35.0683C3.11688 35.1757 3.26965 35.3265 3.37838 35.5071C3.48866 35.7051 3.54174 35.9292 3.5318 36.1549Z" fill="#2B3990"/>
<path d="M4.84892 32.4143C4.95381 32.4128 5.05622 32.4459 5.13989 32.5084C5.18315 32.549 5.21656 32.5988 5.23763 32.6539C5.2587 32.7091 5.26688 32.7683 5.26157 32.827C5.2665 32.8857 5.25814 32.9448 5.23709 32.9999C5.21604 33.055 5.18284 33.1048 5.13989 33.1457C5.0569 33.21 4.95443 33.245 4.84892 33.2449C4.74153 33.2466 4.63686 33.2115 4.55266 33.1457C4.50876 33.1055 4.47491 33.0558 4.4538 33.0005C4.43268 32.9452 4.42487 32.8858 4.43098 32.827C4.42445 32.7682 4.43206 32.7087 4.4532 32.6533C4.47435 32.5979 4.50842 32.5483 4.55266 32.5084C4.63736 32.444 4.74211 32.4108 4.84892 32.4143ZM5.20867 33.8039V37.4607H4.4786V33.8039H5.20867Z" fill="#2B3990"/>
<path d="M10.5738 33.7366C10.7439 33.7254 10.9145 33.7484 11.0755 33.804C11.2364 33.8597 11.3842 33.9469 11.5101 34.0604C11.6297 34.2055 11.7189 34.3725 11.7725 34.5519C11.8261 34.7313 11.843 34.9194 11.8223 35.1052V37.4874H11.1028V35.1784C11.1028 34.6142 10.87 34.3321 10.4045 34.3321C10.2713 34.3191 10.1369 34.3396 10.0139 34.3917C9.89087 34.4437 9.78318 34.5257 9.70084 34.6299C9.53633 34.8982 9.46052 35.2104 9.48394 35.5232V37.4926H8.76445V35.1784C8.76445 34.6142 8.53167 34.3321 8.06083 34.3321C7.92192 34.317 7.78148 34.3397 7.65468 34.3977C7.52788 34.4557 7.41953 34.5468 7.34134 34.6612C7.19594 34.9605 7.12866 35.2909 7.1456 35.6224V37.4665H6.41553V33.8097H6.99747L7.09798 34.3008H7.14031C7.24675 34.1169 7.40726 33.9693 7.60057 33.8776C7.79627 33.7883 8.00925 33.742 8.22483 33.7418C8.45216 33.7121 8.68319 33.7535 8.88537 33.8604C9.08754 33.9672 9.25064 34.1341 9.35168 34.3373H9.394C9.50438 34.1389 9.67704 33.9812 9.88601 33.8881C10.1012 33.7883 10.336 33.7366 10.5738 33.7366Z" fill="#2B3990"/>
<path d="M14.8638 33.7359C15.065 33.7319 15.2645 33.7725 15.4476 33.8548C15.6308 33.9371 15.7928 34.0589 15.9219 34.2113C16.1913 34.6366 16.3341 35.128 16.3341 35.6296C16.3341 36.1312 16.1913 36.6227 15.9219 37.0479C15.7941 37.2025 15.6326 37.3265 15.4493 37.4107C15.2661 37.4948 15.0659 37.5369 14.8638 37.5337C14.6483 37.5462 14.4331 37.5049 14.238 37.4136C14.0429 37.3223 13.8742 37.184 13.7476 37.0114H13.7C13.7 37.0949 13.7 37.189 13.7317 37.3039C13.7634 37.4188 13.7317 37.5129 13.7317 37.5964V39.0905H13.0122V33.8038H13.6259L13.7264 34.2949H13.7634C13.8735 34.1351 14.0181 34.0013 14.1867 33.9031C14.3925 33.7868 14.6268 33.7289 14.8638 33.7359ZM14.684 34.3315C14.5473 34.3167 14.409 34.3357 14.2816 34.3868C14.1541 34.4379 14.0415 34.5194 13.9539 34.624C13.7972 34.8971 13.7237 35.2091 13.7423 35.5225V35.6322C13.723 35.9684 13.7941 36.3037 13.9486 36.6039C14.0308 36.7241 14.1447 36.8198 14.2781 36.8806C14.4115 36.9414 14.5592 36.9649 14.7051 36.9487C14.8406 36.9565 14.9756 36.9263 15.0945 36.8616C15.2134 36.7969 15.3114 36.7003 15.377 36.583C15.5369 36.2899 15.6136 35.9596 15.5992 35.627C15.6172 35.2974 15.5401 34.9695 15.377 34.6815C15.3049 34.5662 15.2021 34.4726 15.08 34.4109C14.9578 34.3492 14.8208 34.3217 14.684 34.3315Z" fill="#2B3990"/>
<path d="M18.075 37.466H17.3291V32.3047H18.0592L18.075 37.466Z" fill="#2B3990"/>
<path d="M19.6573 32.4143C19.7622 32.4128 19.8646 32.4459 19.9482 32.5083C19.9915 32.549 20.0249 32.5988 20.046 32.6539C20.067 32.7091 20.0752 32.7683 20.0699 32.827C20.0748 32.8857 20.0665 32.9448 20.0454 32.9999C20.0244 33.055 19.9912 33.1048 19.9482 33.1457C19.8652 33.21 19.7628 33.245 19.6573 33.2449C19.5483 33.2465 19.4419 33.2115 19.3557 33.1457C19.3137 33.1043 19.2815 33.0543 19.2614 32.9992C19.2412 32.9441 19.2337 32.8853 19.2393 32.827C19.2333 32.7687 19.2407 32.7098 19.2608 32.6546C19.281 32.5995 19.3134 32.5495 19.3557 32.5083C19.4424 32.444 19.5488 32.4108 19.6573 32.4143ZM20.017 33.8039V37.4607H19.2869V33.8039H20.017Z" fill="#2B3990"/>
<path d="M22.7143 37.5344C22.4885 37.5449 22.2628 37.5111 22.0503 37.4349C21.8378 37.3586 21.6427 37.2415 21.4764 37.0903C21.3094 36.8931 21.184 36.6648 21.1077 36.419C21.0314 36.1732 21.0056 35.9148 21.032 35.659C21.0151 35.2804 21.0932 34.9035 21.2595 34.5619C21.3915 34.3027 21.6024 34.0908 21.8626 33.9559C22.145 33.817 22.4571 33.7471 22.7725 33.7522C22.9685 33.7529 23.1637 33.7757 23.3545 33.8201C23.5092 33.853 23.6599 33.9021 23.8041 33.9664L23.5819 34.5515C23.4494 34.4986 23.3133 34.455 23.1746 34.4209C23.0418 34.385 22.9049 34.3657 22.7672 34.3634C22.0954 34.3634 21.7621 34.8022 21.7621 35.6694C21.7381 36.0039 21.8234 36.3371 22.0054 36.6202C22.0912 36.7287 22.2026 36.815 22.3298 36.8714C22.457 36.9279 22.5963 36.9528 22.7355 36.9441C22.9142 36.9457 23.0922 36.9228 23.2645 36.8761C23.4151 36.8347 23.5606 36.7769 23.6983 36.7038V37.3254C23.5638 37.405 23.4174 37.4632 23.2645 37.4978C23.0831 37.53 22.8985 37.5423 22.7143 37.5344Z" fill="#2B3990"/>
<path d="M25.0318 32.4153C25.1367 32.4138 25.2391 32.4469 25.3228 32.5093C25.367 32.5493 25.4011 32.5989 25.4222 32.6543C25.4434 32.7097 25.451 32.7692 25.4445 32.828C25.4506 32.8868 25.4428 32.9462 25.4216 33.0015C25.4005 33.0568 25.3667 33.1065 25.3228 33.1467C25.2398 33.211 25.1373 33.246 25.0318 33.2459C24.9244 33.2476 24.8198 33.2125 24.7356 33.1467C24.6926 33.1058 24.6594 33.056 24.6384 33.0009C24.6173 32.9457 24.6089 32.8867 24.6139 32.828C24.6086 32.7693 24.6167 32.7101 24.6378 32.6549C24.6589 32.5997 24.6923 32.55 24.7356 32.5093C24.8203 32.445 24.925 32.4117 25.0318 32.4153ZM25.3916 33.8049V37.4617H24.6615V33.8049H25.3916Z" fill="#2B3990"/>
<path d="M27.9364 36.9494C28.035 36.957 28.1341 36.957 28.2327 36.9494C28.3217 36.9377 28.4088 36.9149 28.4919 36.8815V37.4039C28.3901 37.4472 28.2836 37.4788 28.1745 37.4979C28.0438 37.523 27.9109 37.5352 27.7777 37.5345C27.5967 37.534 27.4173 37.5004 27.2487 37.4352C27.0772 37.3661 26.9352 37.2406 26.8466 37.08C26.736 36.8635 26.6849 36.6221 26.6985 36.38V34.3583H26.1694V34.0292L26.6985 33.7575L26.9524 32.9844H27.3809V33.8045H28.439V34.3583H27.3809V36.3695C27.3738 36.4488 27.3833 36.5286 27.4088 36.6041C27.4342 36.6796 27.4752 36.7491 27.5291 36.8083C27.5831 36.8588 27.6473 36.8974 27.7175 36.9217C27.7877 36.946 27.8623 36.9555 27.9364 36.9494Z" fill="#2B3990"/>
<path d="M28.7402 33.8041H29.5232L30.2956 35.8936C30.3538 36.0556 30.4067 36.2071 30.449 36.3534C30.492 36.4956 30.5256 36.6404 30.5495 36.7869C30.576 36.6668 30.6077 36.531 30.6553 36.369C30.703 36.2071 30.7612 36.0504 30.8193 35.8884L31.5494 33.7988H32.3324L30.7453 37.978C30.6395 38.293 30.458 38.578 30.2162 38.8086C29.9762 39.0177 29.6631 39.1264 29.3433 39.1116C29.2464 39.1177 29.1493 39.1177 29.0524 39.1116L28.8355 39.075V38.4743H29.0153H29.2428C29.3386 38.4819 29.435 38.4701 29.526 38.4396C29.6169 38.409 29.7006 38.3604 29.7719 38.2967C29.9086 38.1657 30.0119 38.0046 30.0734 37.8265L30.2268 37.4295L28.7402 33.8041Z" fill="#2B3990"/>
<path d="M35.2266 32.4143C35.3315 32.4128 35.4339 32.4459 35.5176 32.5083C35.5608 32.549 35.5942 32.5988 35.6153 32.6539C35.6364 32.7091 35.6446 32.7683 35.6392 32.827C35.6442 32.8857 35.6358 32.9448 35.6148 32.9999C35.5937 33.055 35.5605 33.1048 35.5176 33.1457C35.4346 33.21 35.3321 33.245 35.2266 33.2449C35.1176 33.2465 35.0113 33.2115 34.925 33.1457C34.883 33.1043 34.8508 33.0543 34.8307 32.9992C34.8106 32.9441 34.8031 32.8853 34.8087 32.827C34.8027 32.7687 34.81 32.7098 34.8302 32.6546C34.8503 32.5995 34.8827 32.5495 34.925 32.5083C35.0118 32.444 35.1182 32.4108 35.2266 32.4143ZM35.5863 33.8039V37.4607H34.8563V33.8039H35.5863Z" fill="#2B3990"/>
<path d="M39.2575 36.4374C39.266 36.5957 39.2335 36.7536 39.1632 36.8962C39.0928 37.0387 38.9869 37.1613 38.8554 37.2523C38.5257 37.458 38.1391 37.5567 37.7497 37.5344C37.5244 37.5367 37.2994 37.5175 37.0779 37.4769C36.8948 37.4444 36.717 37.3882 36.5488 37.3098V36.6777C36.731 36.7635 36.9204 36.8335 37.1149 36.8866C37.3209 36.9477 37.5347 36.9794 37.7497 36.9807C37.9559 36.9952 38.1619 36.9498 38.3423 36.8501C38.3995 36.8121 38.4464 36.7608 38.4787 36.7006C38.511 36.6405 38.5278 36.5734 38.5274 36.5053C38.529 36.4251 38.5049 36.3465 38.4587 36.2806C38.3861 36.1971 38.2981 36.128 38.1994 36.0769C38.0284 35.9859 37.8517 35.9057 37.6704 35.8366C37.4623 35.758 37.2607 35.6637 37.0673 35.5545C36.9166 35.4747 36.7877 35.36 36.6917 35.2202C36.5912 35.0649 36.5447 34.8815 36.5594 34.6978C36.5543 34.5527 36.5877 34.4089 36.6564 34.2806C36.7251 34.1522 36.8266 34.0439 36.9509 33.9664C37.2585 33.7958 37.6092 33.716 37.9614 33.7366C38.1748 33.7371 38.3876 33.7598 38.5962 33.8045C38.7961 33.85 38.991 33.9147 39.1781 33.9978L38.9401 34.5202C38.7781 34.4526 38.612 34.3951 38.4428 34.3478C38.2707 34.2992 38.0927 34.2746 37.9137 34.2746C37.7415 34.2651 37.5698 34.3012 37.4164 34.3791C37.3698 34.4023 37.3294 34.436 37.2983 34.4775C37.2673 34.519 37.2466 34.567 37.2378 34.6179C37.2291 34.6687 37.2325 34.7209 37.2479 34.7701C37.2633 34.8194 37.2903 34.8644 37.3265 34.9015C37.4047 34.9829 37.4981 35.0485 37.6016 35.0948C37.7339 35.1575 37.9137 35.2359 38.1306 35.3247C38.3345 35.395 38.5311 35.4842 38.7179 35.5911C38.8691 35.6678 38.9983 35.781 39.0935 35.9202C39.1987 36.0728 39.2557 36.2528 39.2575 36.4374Z" fill="#2B3990"/>
<path d="M43.3842 36.9494C43.4828 36.957 43.5818 36.957 43.6804 36.9494C43.7694 36.9377 43.8565 36.9149 43.9397 36.8815V37.4039C43.8374 37.4457 43.731 37.4772 43.6222 37.4979C43.4915 37.523 43.3586 37.5352 43.2255 37.5345C43.0444 37.534 42.865 37.5004 42.6964 37.4352C42.5244 37.3649 42.381 37.2399 42.2891 37.08C42.1828 36.8622 42.1336 36.6214 42.1462 36.38V34.3583H41.6172V34.0292L42.1462 33.7575L42.4002 32.9844H42.8446V33.8045H43.9026V34.3583H42.8446V36.3695C42.8387 36.4487 42.8487 36.5282 42.8741 36.6036C42.8996 36.6789 42.9399 36.7485 42.9927 36.8083C43.0449 36.8568 43.1065 36.8943 43.1738 36.9185C43.2411 36.9428 43.3126 36.9533 43.3842 36.9494Z" fill="#2B3990"/>
<path d="M45.4791 33.6838C45.4791 33.804 45.4791 33.9137 45.4791 34.0286C45.4791 34.1435 45.4791 34.2271 45.4474 34.3002H45.5003C45.6117 34.116 45.778 33.97 45.9764 33.8823C46.1802 33.7895 46.4026 33.743 46.6271 33.7465C46.9895 33.7218 47.3476 33.8359 47.627 34.0652C47.7572 34.2047 47.8557 34.3701 47.9159 34.5503C47.9761 34.7305 47.9967 34.9213 47.9761 35.11V37.4921H47.2408V35.1831C47.2408 34.6137 46.9868 34.3316 46.479 34.3316C46.3301 34.3133 46.179 34.3347 46.0414 34.3935C45.9037 34.4523 45.7845 34.5463 45.696 34.6659C45.535 34.9603 45.4599 35.2931 45.4791 35.6271V37.466H44.749V32.3047H45.4791V33.6838Z" fill="#2B3990"/>
<path d="M50.6111 33.7362C50.8239 33.7258 51.0364 33.7605 51.2344 33.838C51.4324 33.9155 51.6114 34.034 51.7591 34.1854C52.0552 34.5193 52.2071 34.9543 52.1824 35.3974V35.7892H49.6906C49.6796 36.1026 49.7849 36.4091 49.9869 36.6512C50.0924 36.7535 50.2185 36.8329 50.357 36.8842C50.4955 36.9355 50.6433 36.9575 50.791 36.9489C51.0043 36.9515 51.2173 36.9304 51.4259 36.8862C51.6233 36.8383 51.8163 36.7736 52.0025 36.6929V37.2885C51.8214 37.3703 51.6315 37.4316 51.4364 37.4713C51.2155 37.5164 50.9902 37.5374 50.7646 37.534C50.4346 37.5428 50.1075 37.471 49.8123 37.325C49.5394 37.1852 49.3161 36.9665 49.1722 36.6982C49.0063 36.3749 48.9262 36.0155 48.9394 35.6534C48.9286 35.2937 49.0009 34.9364 49.151 34.6086C49.2767 34.3398 49.4789 34.1129 49.7329 33.9556C49.9994 33.8035 50.3035 33.7276 50.6111 33.7362ZM50.6111 34.2951C50.4942 34.2905 50.3776 34.3104 50.269 34.3536C50.1605 34.3969 50.0625 34.4624 49.9816 34.5459C49.8105 34.7468 49.7135 34.9991 49.7065 35.2616H51.4523C51.4592 35.0119 51.3851 34.7666 51.2407 34.5616C51.1655 34.47 51.0689 34.398 50.9592 34.3516C50.8496 34.3051 50.7301 34.2858 50.6111 34.2951Z" fill="#2B3990"/>
<path d="M57.4721 36.4369C57.4806 36.5947 57.4487 36.7521 57.3794 36.8945C57.31 37.037 57.2055 37.1599 57.0753 37.2518C56.7456 37.4576 56.359 37.5562 55.9696 37.5339C55.7443 37.5365 55.5192 37.5172 55.2977 37.4765C55.1151 37.4425 54.9374 37.3864 54.7687 37.3093V36.6772C54.9508 36.7631 55.1402 36.833 55.3348 36.8862C55.5426 36.9469 55.7581 36.9786 55.9749 36.9802C56.1811 36.9947 56.3871 36.9493 56.5674 36.8496C56.624 36.8114 56.6702 36.7599 56.7016 36.6997C56.733 36.6395 56.7487 36.5725 56.7473 36.5048C56.7481 36.4255 56.7261 36.3476 56.6838 36.2802C56.6113 36.1966 56.5233 36.1275 56.4246 36.0764C56.2452 35.9838 56.0596 35.9035 55.8691 35.8361C55.6615 35.7565 55.4599 35.6622 55.266 35.554C55.1181 35.4722 54.9914 35.3578 54.8957 35.2197C54.7952 35.0644 54.7487 34.881 54.7634 34.6973C54.7572 34.5527 54.7896 34.4089 54.8573 34.2806C54.9251 34.1522 55.0259 34.0437 55.1496 33.9659C55.4686 33.7784 55.837 33.6892 56.2077 33.71C56.4211 33.7108 56.6339 33.7335 56.8425 33.7779C57.0422 33.8242 57.237 33.8889 57.4245 33.9712L57.1811 34.4936C57.0212 34.4252 56.8568 34.3676 56.6891 34.3212C56.5171 34.2726 56.339 34.248 56.1601 34.248C55.9773 34.2343 55.7943 34.2705 55.631 34.3525C55.5796 34.38 55.5366 34.4207 55.5068 34.4704C55.477 34.5201 55.4614 34.5769 55.4617 34.6346C55.4594 34.7166 55.4876 34.7965 55.5411 34.8593C55.6213 34.9406 55.7165 35.0062 55.8215 35.0525C55.9537 35.1152 56.1336 35.1936 56.3505 35.2824C56.5535 35.3548 56.7499 35.4439 56.9377 35.5488C57.0875 35.6257 57.2149 35.739 57.3081 35.8779C57.4216 36.0423 57.479 36.2381 57.4721 36.4369Z" fill="#2B3990"/>
<path d="M59.8693 33.7362C60.0821 33.7258 60.2946 33.7605 60.4926 33.838C60.6906 33.9155 60.8695 34.034 61.0173 34.1854C61.3115 34.5201 61.4615 34.955 61.4353 35.3974V35.7892H58.9488C58.9326 36.1033 59.0386 36.4117 59.2451 36.6511C59.3506 36.7535 59.4766 36.8329 59.6152 36.8842C59.7537 36.9355 59.9015 36.9575 60.0492 36.9489C60.2625 36.9514 60.4754 36.9304 60.684 36.8862C60.88 36.839 61.0713 36.7743 61.2554 36.6929V37.2885C61.0762 37.3704 60.888 37.4318 60.6946 37.4713C60.4719 37.5164 60.2448 37.5374 60.0175 37.534C59.6876 37.5415 59.3608 37.4698 59.0652 37.325C58.7932 37.1838 58.5703 36.9655 58.4251 36.6982C58.261 36.3745 58.1828 36.015 58.1976 35.6534C58.1868 35.2937 58.2591 34.9364 58.4092 34.6086C58.5349 34.3398 58.7371 34.1129 58.9911 33.9556C59.2574 33.803 59.5616 33.727 59.8693 33.7362ZM59.8693 34.2951C59.7523 34.2898 59.6355 34.3094 59.5268 34.3527C59.4182 34.396 59.3203 34.4619 59.2398 34.5459C59.0668 34.7461 58.9679 34.9985 58.9594 35.2616H60.7105C60.719 35.0125 60.6467 34.7672 60.5042 34.5616C60.4285 34.4693 60.331 34.3967 60.2203 34.3503C60.1097 34.3038 59.9891 34.2849 59.8693 34.2951Z" fill="#2B3990"/>
<path d="M63.8841 37.5344C63.4352 37.5501 62.998 37.3906 62.6673 37.0904C62.4973 36.8954 62.3684 36.6688 62.2885 36.4238C62.2085 36.1789 62.179 35.9206 62.2018 35.6642C62.1849 35.2856 62.263 34.9088 62.4293 34.5672C62.5647 34.302 62.7838 34.0875 63.0535 33.956C63.3338 33.8165 63.6443 33.7466 63.9582 33.7523C64.1542 33.7527 64.3494 33.7755 64.5401 33.8202C64.6951 33.8522 64.8459 33.9012 64.9898 33.9665L64.7729 34.5515C64.6386 34.4987 64.5007 34.455 64.3602 34.4209C64.2274 34.385 64.0906 34.3657 63.9529 34.3635C63.2863 34.3635 62.9477 34.8023 62.9477 35.6695C62.9253 36.0045 63.0125 36.3378 63.1964 36.6202C63.2816 36.7295 63.3928 36.8163 63.5202 36.8728C63.6476 36.9293 63.7871 36.9538 63.9264 36.9441C64.1051 36.9462 64.2833 36.9234 64.4555 36.8762C64.6077 36.8347 64.755 36.7769 64.8946 36.7038V37.3255C64.7596 37.4042 64.6133 37.4623 64.4608 37.4979C64.2706 37.5315 64.0771 37.5438 63.8841 37.5344Z" fill="#2B3990"/>
<path d="M67.683 33.736H67.8893L68.0851 33.7621L68.011 34.436C67.8902 34.4044 67.7657 34.3886 67.6407 34.389C67.456 34.3901 67.2749 34.4389 67.1153 34.5306C66.9556 34.6222 66.8231 34.7535 66.7307 34.9114C66.6278 35.0988 66.5767 35.3096 66.5826 35.5226V37.4503H65.8525V33.7935H66.4292L66.5297 34.4778C66.6514 34.2772 66.8092 34.1002 66.9953 33.9554C67.1913 33.8049 67.4348 33.7272 67.683 33.736Z" fill="#2B3990"/>
<path d="M70.1644 33.7362C70.3771 33.7258 70.5896 33.7605 70.7876 33.838C70.9857 33.9155 71.1646 34.034 71.3124 34.1854C71.6065 34.5201 71.7565 34.955 71.7303 35.3974V35.7892H69.2438C69.2276 36.1033 69.3336 36.4117 69.5401 36.6512C69.6456 36.7535 69.7717 36.8329 69.9102 36.8842C70.0487 36.9355 70.1966 36.9575 70.3442 36.9489C70.5576 36.9515 70.7705 36.9304 70.9791 36.8862C71.1766 36.8383 71.3695 36.7736 71.5557 36.6929V37.2885C71.3744 37.3697 71.1846 37.431 70.9897 37.4713C70.7687 37.5162 70.5434 37.5372 70.3178 37.534C69.9861 37.5422 69.6575 37.4705 69.3602 37.325C69.0898 37.1835 68.8687 36.9651 68.7254 36.6982C68.5595 36.3749 68.4795 36.0155 68.4926 35.6534C68.4818 35.2937 68.5542 34.9364 68.7042 34.6086C68.8299 34.3398 69.0321 34.1129 69.2862 33.9556C69.5524 33.803 69.8566 33.727 70.1644 33.7362ZM70.1644 34.2951C70.0474 34.2905 69.9308 34.3104 69.8223 34.3536C69.7137 34.3969 69.6157 34.4624 69.5348 34.5459C69.3639 34.7474 69.2654 34.999 69.2544 35.2616H71.0055C71.0099 35.0122 70.936 34.7677 70.7939 34.5616C70.7187 34.47 70.6221 34.398 70.5125 34.3516C70.4028 34.3051 70.2833 34.2858 70.1644 34.2951Z" fill="#2B3990"/>
<path d="M74.042 36.9494C74.1406 36.957 74.2396 36.957 74.3382 36.9494C74.4273 36.9381 74.5145 36.9153 74.5975 36.8815V37.4039C74.4957 37.4472 74.3892 37.4788 74.28 37.4979C74.1493 37.523 74.0164 37.5352 73.8833 37.5345C73.6933 37.5374 73.5046 37.5037 73.3278 37.4352C73.1572 37.3646 73.0156 37.2395 72.9257 37.08C72.8151 36.8635 72.764 36.6221 72.7776 36.38V34.3583H72.2485V34.0292L72.7776 33.7575L73.0315 32.9844H73.4812V33.8045H74.5393V34.3583H73.4812V36.3695C73.4741 36.4488 73.4835 36.5286 73.509 36.6041C73.5345 36.6796 73.5755 36.7491 73.6293 36.8083C73.684 36.8595 73.7491 36.8985 73.8202 36.9229C73.8914 36.9472 73.967 36.9562 74.042 36.9494Z" fill="#2B3990"/>
<path d="M80.5329 35.6326C80.5658 36.1435 80.3971 36.6471 80.0621 37.0378C79.8965 37.2055 79.6967 37.3364 79.476 37.422C79.2553 37.5076 79.0186 37.5458 78.7818 37.5341C78.4687 37.5405 78.1597 37.4629 77.8877 37.3095C77.6251 37.157 77.4135 36.9318 77.2793 36.6617C77.1185 36.3369 77.0404 35.9783 77.0518 35.6169C77.0192 35.1076 77.188 34.6057 77.5227 34.2169C77.6857 34.0442 77.8843 33.9082 78.1052 33.8181C78.3261 33.728 78.5641 33.6858 78.803 33.6945C79.1159 33.6898 79.4244 33.7674 79.697 33.9191C79.9609 34.0693 80.1743 34.2928 80.3107 34.5617C80.4753 34.8943 80.5518 35.2628 80.5329 35.6326ZM77.8031 35.6326C77.7833 35.9709 77.8662 36.3074 78.0411 36.599C78.1256 36.7156 78.2392 36.8086 78.3708 36.869C78.5024 36.9295 78.6477 36.9552 78.7924 36.9438C78.9378 36.9551 79.0838 36.9294 79.2162 36.869C79.3487 36.8086 79.4633 36.7156 79.5489 36.599C79.7239 36.3074 79.8068 35.9709 79.787 35.6326C79.8067 35.2952 79.7219 34.9599 79.5436 34.6714C79.4564 34.557 79.3413 34.4664 79.209 34.4079C79.0767 34.3494 78.9315 34.325 78.7871 34.337C78.6434 34.3249 78.499 34.3493 78.3675 34.4078C78.236 34.4663 78.1219 34.5571 78.0359 34.6714C77.864 34.9621 77.7831 35.2965 77.8031 35.6326Z" fill="#2B3990"/>
<path d="M83.3318 34.3585H82.4007V37.4929H81.6759V34.3585H81.0464V34.0189L81.6759 33.7943V33.5644C81.6571 33.3851 81.676 33.2039 81.7316 33.0322C81.7871 32.8605 81.878 32.702 81.9987 32.5667C82.255 32.3578 82.5822 32.2532 82.9139 32.2741C83.0611 32.2722 83.2082 32.2844 83.353 32.3107C83.4852 32.342 83.5963 32.3682 83.6916 32.3995L83.5011 32.9532C83.4177 32.9262 83.333 32.9035 83.2472 32.8853C83.1481 32.864 83.047 32.8535 82.9456 32.854C82.5859 32.854 82.4166 33.0943 82.4166 33.5697V33.8047H83.3318V34.3585Z" fill="#2B3990"/>
<path d="M86.6325 33.6838C86.6325 33.804 86.6325 33.9137 86.6325 34.0286C86.6325 34.1435 86.6325 34.2271 86.6325 34.3002C86.744 34.116 86.9102 33.97 87.1086 33.8823C87.3125 33.7895 87.5349 33.743 87.7593 33.7465C88.1217 33.7218 88.4798 33.8359 88.7592 34.0652C88.8894 34.2047 88.9879 34.3701 89.0481 34.5503C89.1084 34.7305 89.1289 34.9213 89.1084 35.11V37.4921H88.3836V35.1831C88.3836 34.6137 88.1297 34.3316 87.6218 34.3316C87.473 34.3139 87.3221 34.3355 87.1845 34.3942C87.047 34.453 86.9277 34.5467 86.8388 34.6659C86.6815 34.9614 86.6101 35.2941 86.6325 35.6271V37.466H85.9077V32.3047H86.6325V33.6838Z" fill="#2B3990"/>
<path d="M91.7433 33.7365C92.1216 33.7061 92.4981 33.8139 92.8013 34.0395C92.926 34.1634 93.0218 34.3126 93.0822 34.4768C93.1425 34.641 93.1658 34.8162 93.1505 34.9902V37.4664H92.6215L92.4786 36.944C92.3365 37.125 92.1559 37.273 91.9496 37.3776C91.7216 37.4828 91.4709 37.5313 91.2195 37.5186C90.9194 37.5301 90.625 37.4356 90.3889 37.2522C90.2732 37.1456 90.1832 37.0146 90.1255 36.8691C90.0678 36.7235 90.0439 36.567 90.0556 36.4111C90.0471 36.2456 90.082 36.0806 90.1571 35.9323C90.2322 35.784 90.3449 35.6575 90.4841 35.5649C90.8814 35.3363 91.3369 35.2257 91.7962 35.2462H92.431V35.0425C92.4483 34.9451 92.4422 34.8452 92.4133 34.7506C92.3844 34.656 92.3334 34.5694 92.2645 34.4978C92.1956 34.4262 92.1106 34.3715 92.0164 34.3382C91.9222 34.3048 91.8214 34.2938 91.7221 34.3059C91.5426 34.3084 91.3644 34.3366 91.1931 34.3895C91.0202 34.4416 90.852 34.508 90.6905 34.588L90.4577 34.0656C90.6493 33.9668 90.8516 33.8896 91.0608 33.8357C91.2828 33.7729 91.5123 33.7396 91.7433 33.7365ZM91.9178 35.7216C91.6113 35.7111 91.3077 35.7834 91.0396 35.9305C90.9573 35.9899 90.8918 36.0691 90.8492 36.1605C90.8066 36.2519 90.7884 36.3526 90.7963 36.4529C90.792 36.5298 90.8049 36.6066 90.8342 36.678C90.8634 36.7493 90.9083 36.8134 90.9656 36.8656C91.0974 36.9557 91.255 37.0015 91.4152 36.9962C91.6733 37.0042 91.9255 36.9188 92.1242 36.7559C92.223 36.6664 92.3 36.5561 92.3494 36.433C92.3989 36.31 92.4196 36.1775 92.4098 36.0455V35.7216H91.9178Z" fill="#2B3990"/>
<path d="M96.1552 33.7362C96.3562 33.7329 96.5555 33.7738 96.7385 33.8561C96.9215 33.9383 97.0837 34.0597 97.2133 34.2115C97.5128 34.6237 97.657 35.1264 97.6206 35.6325C97.6564 36.1376 97.5103 36.6391 97.208 37.0482C97.0802 37.2028 96.9186 37.3268 96.7354 37.4109C96.5521 37.4951 96.352 37.5371 96.1499 37.534C95.9112 37.5438 95.674 37.4916 95.4621 37.3825C95.2972 37.2904 95.1532 37.166 95.0389 37.0168H94.9913C94.9913 37.1004 94.9913 37.1944 95.023 37.3094C95.0548 37.4243 95.023 37.5183 95.023 37.6019V39.096H94.293V33.8041H94.8855L94.986 34.2951H95.023C95.1331 34.1353 95.2777 34.0015 95.4463 33.9033C95.6613 33.7812 95.9075 33.7232 96.1552 33.7362ZM95.9806 34.3317C95.8439 34.317 95.7056 34.336 95.5782 34.387C95.4508 34.4381 95.3382 34.5196 95.2505 34.6242C95.0895 34.8939 95.0139 35.2051 95.0336 35.5175V35.6272C95.0143 35.9634 95.0855 36.2987 95.2399 36.5989C95.3217 36.7195 95.4356 36.8156 95.5691 36.8764C95.7026 36.9372 95.8504 36.9605 95.9965 36.9437C96.1356 36.953 96.2745 36.9224 96.3965 36.8557C96.5185 36.789 96.6184 36.6889 96.6842 36.5676C96.8441 36.2744 96.9208 35.9442 96.9064 35.6116C96.9244 35.282 96.8474 34.9541 96.6842 34.666C96.6106 34.5557 96.5086 34.4666 96.3887 34.4078C96.2688 34.3491 96.1353 34.3228 96.0018 34.3317H95.9806Z" fill="#2B3990"/>
<path d="M100.504 33.7366C100.705 33.7333 100.904 33.7742 101.087 33.8564C101.27 33.9387 101.432 34.0601 101.562 34.2119C101.861 34.6241 102.006 35.1268 101.969 35.6329C102.005 36.138 101.859 36.6395 101.557 37.0486C101.429 37.2032 101.267 37.3272 101.084 37.4113C100.901 37.4955 100.701 37.5375 100.498 37.5344C100.26 37.5442 100.023 37.492 99.8107 37.3829C99.6448 37.2922 99.5005 37.1675 99.3875 37.0172H99.3293C99.3293 37.1008 99.3557 37.1948 99.3663 37.3098C99.3769 37.4247 99.3663 37.5187 99.3663 37.6023V39.0964H98.6362V33.8045H99.2287L99.3293 34.2955H99.3663C99.488 34.1154 99.6547 33.9694 99.8502 33.8715C100.046 33.7736 100.264 33.7271 100.483 33.7366H100.504ZM100.334 34.3321C100.198 34.3174 100.059 34.3364 99.932 34.3874C99.8046 34.4385 99.692 34.52 99.6044 34.6246C99.4433 34.8943 99.3678 35.2055 99.3875 35.5179V35.6276C99.3681 35.9638 99.4393 36.2991 99.5938 36.5993C99.6755 36.7199 99.7894 36.816 99.9229 36.8768C100.056 36.9376 100.204 36.9609 100.35 36.9441C100.486 36.9513 100.62 36.9209 100.739 36.8562C100.858 36.7916 100.956 36.6953 101.022 36.5784C101.182 36.2853 101.259 35.955 101.244 35.6224C101.262 35.2928 101.185 34.965 101.022 34.6769C100.949 34.5638 100.847 34.4721 100.726 34.4114C100.605 34.3508 100.47 34.3234 100.334 34.3321Z" fill="#2B3990"/>
<path d="M103.361 32.4143C103.466 32.4128 103.569 32.4459 103.652 32.5083C103.696 32.549 103.729 32.5988 103.75 32.6539C103.771 32.7091 103.779 32.7683 103.774 32.827C103.779 32.8857 103.771 32.9448 103.75 32.9999C103.728 33.055 103.695 33.1048 103.652 33.1457C103.569 33.21 103.467 33.245 103.361 33.2449C103.252 33.2465 103.146 33.2115 103.06 33.1457C103.018 33.1043 102.986 33.0543 102.965 32.9992C102.945 32.9441 102.938 32.8853 102.943 32.827C102.937 32.7687 102.945 32.7098 102.965 32.6546C102.985 32.5995 103.018 32.5495 103.06 32.5083C103.147 32.444 103.253 32.4108 103.361 32.4143ZM103.716 33.8039V37.4607H102.991V33.8039H103.716Z" fill="#2B3990"/>
<path d="M106.805 33.7366C107.165 33.7122 107.52 33.8285 107.794 34.0605C107.923 34.2005 108.021 34.3661 108.08 34.5462C108.14 34.7264 108.159 34.917 108.138 35.1053V37.4874H107.419V35.1836C107.419 34.6142 107.165 34.3321 106.657 34.3321C106.508 34.315 106.357 34.3363 106.219 34.394C106.08 34.4517 105.96 34.5438 105.868 34.6612C105.71 34.9562 105.636 35.2889 105.657 35.6224V37.4665H104.927V33.8097H105.503L105.609 34.3008H105.678C105.793 34.1121 105.965 33.964 106.17 33.8776C106.37 33.7893 106.586 33.7414 106.805 33.7366Z" fill="#2B3990"/>
<path d="M110.789 33.7362C111.002 33.7258 111.214 33.7605 111.412 33.838C111.61 33.9155 111.789 34.034 111.937 34.1854C112.231 34.5201 112.381 34.955 112.355 35.3974V35.7892H109.868C109.852 36.1033 109.958 36.4117 110.165 36.6512C110.27 36.7535 110.396 36.8329 110.535 36.8842C110.673 36.9355 110.821 36.9575 110.969 36.9489C111.182 36.9514 111.395 36.9304 111.604 36.8862C111.801 36.8383 111.994 36.7736 112.18 36.6929V37.2885C111.999 37.3697 111.809 37.431 111.614 37.4713C111.393 37.5162 111.168 37.5372 110.942 37.534C110.611 37.5422 110.282 37.4705 109.985 37.325C109.714 37.1835 109.493 36.9651 109.35 36.6982C109.184 36.3749 109.104 36.0155 109.117 35.6534C109.106 35.2937 109.179 34.9364 109.329 34.6086C109.454 34.3398 109.657 34.1129 109.911 33.9556C110.177 33.803 110.481 33.727 110.789 33.7362ZM110.789 34.2951C110.672 34.2905 110.555 34.3104 110.447 34.3536C110.338 34.3969 110.24 34.4624 110.159 34.5459C109.988 34.7474 109.89 34.999 109.879 35.2616H111.63C111.634 35.0122 111.561 34.7677 111.418 34.5616C111.343 34.47 111.247 34.398 111.137 34.3516C111.027 34.3051 110.908 34.2858 110.789 34.2951Z" fill="#2B3990"/>
<path d="M115.793 36.4369C115.802 36.5947 115.77 36.7521 115.701 36.8945C115.631 37.037 115.527 37.1599 115.396 37.2518C115.067 37.4576 114.68 37.5562 114.291 37.5339C114.065 37.5365 113.84 37.5172 113.619 37.4765C113.436 37.4434 113.258 37.3872 113.09 37.3093V36.6772C113.272 36.7631 113.461 36.833 113.656 36.8862C113.862 36.9472 114.076 36.9789 114.291 36.9802C114.499 36.9958 114.707 36.9503 114.889 36.8496C114.945 36.8114 114.991 36.7599 115.023 36.6997C115.054 36.6395 115.07 36.5725 115.068 36.5048C115.07 36.4246 115.046 36.346 115 36.2802C114.929 36.1965 114.843 36.1273 114.746 36.0764C114.575 35.9849 114.398 35.9046 114.217 35.8361C114.009 35.7565 113.808 35.6622 113.614 35.554C113.464 35.4724 113.336 35.3581 113.238 35.2197C113.142 35.0628 113.097 34.8802 113.111 34.6973C113.105 34.5527 113.137 34.4089 113.205 34.2806C113.273 34.1522 113.374 34.0437 113.497 33.9659C113.816 33.7784 114.185 33.6892 114.555 33.71C114.769 33.7108 114.981 33.7335 115.19 33.7779C115.39 33.825 115.584 33.8897 115.772 33.9712L115.529 34.4936C115.367 34.4245 115.201 34.3669 115.031 34.3212C114.859 34.272 114.681 34.2474 114.502 34.248C114.328 34.2386 114.155 34.2746 114 34.3525C113.948 34.379 113.904 34.4196 113.874 34.4695C113.844 34.5194 113.829 34.5766 113.83 34.6346C113.828 34.7166 113.856 34.7965 113.91 34.8593C113.99 34.9406 114.085 35.0062 114.19 35.0525C114.317 35.1152 114.497 35.1936 114.719 35.2824C114.922 35.3548 115.119 35.4439 115.307 35.5488C115.456 35.6257 115.584 35.739 115.677 35.8779C115.774 36.0477 115.814 36.2431 115.793 36.4369Z" fill="#2B3990"/>
<path d="M119.19 36.4376C119.198 36.5955 119.167 36.7529 119.097 36.8953C119.028 37.0377 118.923 37.1606 118.793 37.2526C118.463 37.4583 118.077 37.557 117.687 37.5347C117.462 37.5372 117.237 37.518 117.015 37.4772C116.833 37.4433 116.655 37.3871 116.486 37.31V36.6779C116.669 36.7638 116.858 36.8337 117.053 36.8869C117.26 36.9477 117.476 36.9793 117.693 36.9809C117.899 36.9955 118.105 36.9501 118.285 36.8503C118.342 36.8124 118.389 36.7611 118.422 36.7009C118.454 36.6408 118.471 36.5736 118.47 36.5055C118.47 36.4257 118.446 36.3478 118.402 36.2809C118.329 36.1974 118.241 36.1282 118.142 36.0772C117.963 35.9846 117.777 35.9043 117.587 35.8369C117.379 35.7572 117.178 35.6629 116.984 35.5548C116.836 35.473 116.709 35.3586 116.613 35.2204C116.513 35.0652 116.466 34.8818 116.481 34.6981C116.475 34.5534 116.507 34.4097 116.575 34.2813C116.643 34.153 116.744 34.0444 116.867 33.9667C117.179 33.7841 117.537 33.6952 117.899 33.7107C118.112 33.7115 118.325 33.7343 118.534 33.7786C118.734 33.8249 118.928 33.8896 119.116 33.9719L118.872 34.4943C118.713 34.426 118.548 34.3684 118.38 34.3219C118.208 34.2733 118.03 34.2487 117.851 34.2488C117.677 34.2398 117.504 34.2758 117.349 34.3533C117.297 34.3807 117.254 34.4215 117.225 34.4712C117.195 34.5209 117.179 34.5776 117.18 34.6354C117.177 34.7173 117.205 34.7973 117.259 34.86C117.339 34.9413 117.434 35.0069 117.539 35.0533C117.672 35.116 117.851 35.1943 118.068 35.2831C118.271 35.3555 118.468 35.4446 118.656 35.5496C118.805 35.6265 118.933 35.7397 119.026 35.8787C119.139 36.043 119.197 36.2388 119.19 36.4376Z" fill="#2B3990"/>
<path d="M137.738 5.02051C137.738 5.02051 136.23 6.62949 137.484 7.49667C138.737 8.36385 146.356 12.4177 146.356 12.4177C146.672 12.6511 146.92 12.9631 147.074 13.3219C147.228 13.6807 147.283 14.0735 147.234 14.4602C147.139 15.9177 147.265 21.7372 147.265 21.7372C147.208 22.0563 147.077 22.3579 146.881 22.6181C146.686 22.8783 146.431 23.09 146.139 23.2365C145.165 23.6701 137.632 28.168 137.632 28.168C137.463 28.466 137.406 28.8131 137.471 29.1484C137.536 29.4838 137.718 29.7858 137.986 30.0016C138.96 30.712 146.356 34.6143 146.356 34.6143C146.356 34.6143 147.361 35.4188 147.234 36.3748C147.177 37.583 147.187 38.7933 147.265 40.0003L137.515 34.4263C137.515 34.4263 135.833 33.6218 135.833 32.0128C135.833 30.4038 135.896 24.8612 135.896 24.8612C135.982 24.5694 136.133 24.3006 136.34 24.0752C136.546 23.8498 136.801 23.6738 137.087 23.5604C138.145 23.038 146.271 18.3364 146.271 18.3364L146.117 16.5394L136.939 11.493C136.695 11.321 136.5 11.0909 136.372 10.8241C136.243 10.5573 136.185 10.2626 136.203 9.96762C136.2 8.90688 136.253 7.84671 136.362 6.79144C136.362 6.79144 136.172 5.77276 137.738 5.02051Z" fill="#2B3990"/>
<path d="M156.995 7.24045L147.948 12.2346C147.25 12.804 146.594 12.6995 145.88 12.2346L137.055 7.44418C136.341 6.84865 136.278 5.95012 137.055 5.40161L145.753 0.407482C146.483 -0.0574521 146.938 -0.208947 147.821 0.407482L156.995 5.22399C157.783 5.74639 157.55 6.67626 156.995 7.24045Z" fill="#83CBAA"/>
<path d="M146.361 18.425L137.336 23.4191C136.637 23.9886 135.976 23.8841 135.267 23.4191L126.437 18.6288C126.287 18.5032 126.166 18.3468 126.083 18.1704C126 17.994 125.958 17.8019 125.958 17.6075C125.958 17.413 126 17.2209 126.083 17.0445C126.166 16.8681 126.287 16.7117 126.437 16.5862L135.135 11.5921C135.865 11.1271 136.32 10.9756 137.203 11.5921L146.361 16.3824C147.165 16.931 146.943 17.8608 146.361 18.425Z" fill="#B12F53"/>
<path d="M157.482 29.6516L148.451 34.6457C147.753 35.2151 147.097 35.1054 146.382 34.6457L137.558 29.8501C137.407 29.7251 137.285 29.5688 137.202 29.3924C137.118 29.2159 137.075 29.0235 137.075 28.8288C137.075 28.6341 137.118 28.4417 137.202 28.2652C137.285 28.0888 137.407 27.9325 137.558 27.8075L146.255 22.8186C146.986 22.3537 147.44 22.2022 148.324 22.8186L157.482 27.609C158.286 28.1575 158.053 29.0874 157.482 29.6516Z" fill="#F47E42"/>
</g>
<defs>
<clipPath id="clip0_2383_19791">
<rect width="157.6" height="40" fill="white" transform="translate(0.399902)"/>
</clipPath>
</defs>
</svg>
