<svg width="49" height="60" viewBox="0 0 49 60" fill="none" xmlns="http://www.w3.org/2000/svg">
<path d="M18.6053 7.53027C18.6053 7.53027 16.3437 9.94375 18.2244 11.2445C20.1051 12.5453 31.5323 18.626 31.5323 18.626C32.0066 18.9761 32.3784 19.4441 32.6099 19.9823C32.8413 20.5206 32.924 21.1098 32.8496 21.6899C32.7068 23.8761 32.8972 32.6054 32.8972 32.6054C32.8114 33.084 32.614 33.5363 32.3206 33.9266C32.0273 34.3169 31.646 34.6345 31.207 34.8543C29.7468 35.5047 18.4466 42.2514 18.4466 42.2514C18.1937 42.6985 18.1084 43.2192 18.2057 43.7222C18.3029 44.2251 18.5765 44.6782 18.9783 45.0019C20.4384 46.0676 31.5323 51.921 31.5323 51.921C31.5323 51.921 33.0401 53.1278 32.8496 54.5617C32.7639 56.3739 32.7798 58.1894 32.8972 59.9999L18.272 51.6389C18.272 51.6389 15.7485 50.4322 15.7485 48.0187C15.7485 45.6052 15.8438 37.2913 15.8438 37.2913C15.9719 36.8535 16.1992 36.4504 16.5086 36.1123C16.8179 35.7742 17.2012 35.5102 17.6293 35.3401C19.2164 34.5565 31.4054 27.5041 31.4054 27.5041L31.1752 24.8086L17.4071 17.239C17.042 16.9811 16.7493 16.6358 16.5564 16.2356C16.3635 15.8354 16.2766 15.3933 16.304 14.9509C16.2994 13.3598 16.3788 11.7696 16.5421 10.1867C16.5421 10.1867 16.2564 8.65865 18.6053 7.53027Z" fill="#2B3990"/>
<path d="M47.4903 10.8607L33.9205 18.3518C32.8731 19.206 31.889 19.0492 30.8177 18.3518L17.5813 11.1663C16.51 10.273 16.4147 8.92518 17.5813 8.10241L30.6273 0.611223C31.7224 -0.0861782 32.4049 -0.313421 33.7301 0.611223L47.4903 7.83598C48.6727 8.61958 48.3236 10.0144 47.4903 10.8607Z" fill="#83CBAA"/>
<path d="M31.5403 27.6375L18.0022 35.1286C16.9547 35.9828 15.9628 35.826 14.8994 35.1286L1.65502 27.9431C1.42944 27.7548 1.24816 27.5201 1.12382 27.2556C0.999479 26.991 0.935059 26.7028 0.935059 26.4111C0.935059 26.1195 0.999479 25.8313 1.12382 25.5667C1.24816 25.3021 1.42944 25.0675 1.65502 24.8792L14.701 17.388C15.7961 16.6906 16.4786 16.4634 17.8038 17.388L31.5403 24.5736C32.7465 25.3964 32.4132 26.7912 31.5403 27.6375Z" fill="#B12F53"/>
<path d="M48.2205 44.4769L34.6745 51.9681C33.627 52.8222 32.643 52.6576 31.5717 51.9681L18.3352 44.7746C18.1084 44.5871 17.926 44.3527 17.8008 44.088C17.6757 43.8234 17.6108 43.5348 17.6108 43.2427C17.6108 42.9506 17.6757 42.6621 17.8008 42.3974C17.926 42.1327 18.1084 41.8983 18.3352 41.7108L31.3812 34.2274C32.4763 33.53 33.1588 33.3028 34.484 34.2274L48.2205 41.413C49.4267 42.2358 49.0775 43.6306 48.2205 44.4769Z" fill="#F47E42"/>
</svg>
