<svg width="49" height="60" viewBox="0 0 49 60" fill="none" xmlns="http://www.w3.org/2000/svg">
<path d="M30.3947 7.53027C30.3947 7.53027 32.6563 9.94375 30.7756 11.2445C28.8949 12.5453 17.4677 18.626 17.4677 18.626C16.9934 18.9761 16.6216 19.4441 16.3901 19.9823C16.1587 20.5206 16.076 21.1098 16.1504 21.6899C16.2932 23.8761 16.1028 32.6054 16.1028 32.6054C16.1886 33.084 16.386 33.5363 16.6794 33.9266C16.9727 34.3169 17.354 34.6345 17.793 34.8543C19.2532 35.5047 30.5534 42.2514 30.5534 42.2514C30.8063 42.6985 30.8916 43.2192 30.7943 43.7222C30.6971 44.2251 30.4235 44.6782 30.0217 45.0019C28.5616 46.0676 17.4677 51.921 17.4677 51.921C17.4677 51.921 15.9599 53.1278 16.1504 54.5617C16.2361 56.3739 16.2202 58.1894 16.1028 59.9999L30.728 51.6389C30.728 51.6389 33.2515 50.4322 33.2515 48.0187C33.2515 45.6052 33.1562 37.2913 33.1562 37.2913C33.0281 36.8535 32.8008 36.4504 32.4914 36.1123C32.1821 35.7742 31.7988 35.5102 31.3707 35.3401C29.7836 34.5565 17.5946 27.5041 17.5946 27.5041L17.8248 24.8086L31.5929 17.239C31.958 16.9811 32.2507 16.6358 32.4436 16.2356C32.6365 15.8354 32.7234 15.3933 32.696 14.9509C32.7006 13.3598 32.6212 11.7696 32.4579 10.1867C32.4579 10.1867 32.7436 8.65865 30.3947 7.53027Z" fill="#2B3990"/>
<path d="M1.50966 10.8607L15.0795 18.3518C16.1269 19.206 17.111 19.0492 18.1823 18.3518L31.4187 11.1663C32.49 10.273 32.5853 8.92518 31.4187 8.10241L18.3727 0.611223C17.2776 -0.0861782 16.5951 -0.313421 15.2699 0.611223L1.50966 7.83598C0.327263 8.61958 0.676426 10.0144 1.50966 10.8607Z" fill="#83CBAA"/>
<path d="M17.4597 27.6375L30.9978 35.1286C32.0453 35.9828 33.0372 35.826 34.1006 35.1286L47.345 27.9431C47.5706 27.7548 47.7518 27.5201 47.8762 27.2556C48.0005 26.991 48.0649 26.7028 48.0649 26.4111C48.0649 26.1195 48.0005 25.8313 47.8762 25.5667C47.7518 25.3021 47.5706 25.0675 47.345 24.8792L34.299 17.388C33.2039 16.6906 32.5214 16.4634 31.1962 17.388L17.4597 24.5736C16.2535 25.3964 16.5868 26.7912 17.4597 27.6375Z" fill="#B12F53"/>
<path d="M0.779549 44.4769L14.3255 51.9681C15.373 52.8222 16.357 52.6576 17.4283 51.9681L30.6648 44.7746C30.8916 44.5871 31.074 44.3527 31.1992 44.088C31.3243 43.8234 31.3892 43.5348 31.3892 43.2427C31.3892 42.9506 31.3243 42.6621 31.1992 42.3974C31.074 42.1327 30.8916 41.8983 30.6648 41.7108L17.6188 34.2274C16.5237 33.53 15.8412 33.3028 14.516 34.2274L0.779549 41.413C-0.426653 42.2358 -0.0774899 43.6306 0.779549 44.4769Z" fill="#F47E42"/>
</svg>
