<svg width="24" height="24" viewBox="0 0 24 24" fill="none" xmlns="http://www.w3.org/2000/svg">
<g clip-path="url(#clip0_4977_49636)">
<path d="M11.5934 23.1248H5.33366C3.63247 23.1248 2.25217 21.7394 2.25217 20.0433V4.95671C2.25217 3.25552 3.63756 1.87521 5.33366 1.87521H11.6953C12.0773 1.87521 12.3829 1.56961 12.3829 1.18761C12.3829 0.805603 12.0773 0.5 11.6953 0.5H5.33366C2.87356 0.5 0.876953 2.5017 0.876953 4.95671V20.0433C0.876953 22.5034 2.87865 24.5 5.33366 24.5H11.5934C11.9754 24.5 12.281 24.1944 12.281 23.8124C12.281 23.4304 11.9703 23.1248 11.5934 23.1248Z" fill="#4B4B4B"/>
<path d="M22.9209 12.0162L18.5507 7.64607C18.2808 7.37612 17.8479 7.37612 17.5779 7.64607C17.308 7.91601 17.308 8.34895 17.5779 8.6189L20.7766 11.8175H6.82579C6.44379 11.8175 6.13818 12.1231 6.13818 12.5051C6.13818 12.8872 6.44379 13.1928 6.82579 13.1928H20.7766L17.5779 16.3914C17.308 16.6613 17.308 17.0943 17.5779 17.3642C17.7103 17.4967 17.8886 17.568 18.0618 17.568C18.235 17.568 18.4132 17.5018 18.5457 17.3642L22.9158 12.9941C23.1908 12.7191 23.1908 12.281 22.9209 12.0162Z" fill="#4B4B4B"/>
</g>
<defs>
<clipPath id="clip0_4977_49636">
<rect width="24" height="24" fill="white"/>
</clipPath>
</defs>
</svg>
