<svg width="24" height="24" viewBox="0 0 24 24" fill="none" xmlns="http://www.w3.org/2000/svg">
<path d="M5.55279 11.8947L12 15.1183L18.4472 11.8947L17.5528 10.1059L12 12.8823L6.44721 10.1059L5.55279 11.8947Z" fill="#8E8E8E"/>
<path d="M13.1094 2.53805C12.4376 2.09018 11.5624 2.09018 10.8906 2.53805L2.8906 7.87138C2.3342 8.24231 2 8.86678 2 9.53548V20.0003C2 21.1049 2.89543 22.0003 4 22.0003H20C21.1046 22.0003 22 21.1049 22 20.0003V9.53548C22 8.86677 21.6658 8.24231 21.1094 7.87138L13.1094 2.53805ZM12 4.20215L20 9.53548V20.0003H4V9.53548L12 4.20215Z" fill="#8E8E8E"/>
</svg>
