<svg width="24" height="24" viewBox="0 0 24 24" fill="none" xmlns="http://www.w3.org/2000/svg">
<path d="M20.6364 4.33325H3.36364C3.00227 4.33422 2.65598 4.4794 2.40046 4.73705C2.14494 4.9947 2.00096 5.34388 2 5.70825V17.6249C2 17.9896 2.14367 18.3393 2.3994 18.5972C2.65513 18.8551 3.00198 18.9999 3.36364 18.9999H20.6364C20.998 18.9999 21.3449 18.8551 21.6006 18.5972C21.8563 18.3393 22 17.9896 22 17.6249V5.70825C21.999 5.34388 21.8551 4.9947 21.5995 4.73705C21.344 4.4794 20.9977 4.33422 20.6364 4.33325ZM12 11.7308L3.65455 5.24992H20.3455L12 11.7308ZM9.41273 10.8783L2.90909 17.4343V5.82834L9.41273 10.8783ZM10.1382 11.442L12 12.8858L13.8618 11.4411L20.4482 18.0833H3.55182L10.1382 11.442ZM14.5873 10.8773L21.0909 5.82834V17.4352L14.5873 10.8773Z" fill="#4B4B4B"/>
</svg>
