<svg width="25" height="24" viewBox="0 0 25 24" fill="none" xmlns="http://www.w3.org/2000/svg">
<path d="M5.6875 14C6.79207 14 7.6875 13.1046 7.6875 12C7.6875 10.8954 6.79207 10 5.6875 10C4.58293 10 3.6875 10.8954 3.6875 12C3.6875 13.1046 4.58293 14 5.6875 14Z" fill="#8E8E8E"/>
<path d="M14.6875 12C14.6875 13.1046 13.7921 14 12.6875 14C11.5829 14 10.6875 13.1046 10.6875 12C10.6875 10.8954 11.5829 10 12.6875 10C13.7921 10 14.6875 10.8954 14.6875 12Z" fill="#8E8E8E"/>
<path d="M21.6875 12C21.6875 13.1046 20.7921 14 19.6875 14C18.5829 14 17.6875 13.1046 17.6875 12C17.6875 10.8954 18.5829 10 19.6875 10C20.7921 10 21.6875 10.8954 21.6875 12Z" fill="#8E8E8E"/>
</svg>
