<svg width="25" height="24" viewBox="0 0 25 24" fill="none" xmlns="http://www.w3.org/2000/svg">
<path d="M10.625 5C10.625 6.10457 11.5204 7 12.625 7C13.7296 7 14.625 6.10457 14.625 5C14.625 3.89543 13.7296 3 12.625 3C11.5204 3 10.625 3.89543 10.625 5Z" fill="#8E8E8E"/>
<path d="M12.625 14C11.5204 14 10.625 13.1046 10.625 12C10.625 10.8954 11.5204 10 12.625 10C13.7296 10 14.625 10.8954 14.625 12C14.625 13.1046 13.7296 14 12.625 14Z" fill="#8E8E8E"/>
<path d="M12.625 21C11.5204 21 10.625 20.1046 10.625 19C10.625 17.8954 11.5204 17 12.625 17C13.7296 17 14.625 17.8954 14.625 19C14.625 20.1046 13.7296 21 12.625 21Z" fill="#8E8E8E"/>
</svg>
