<svg width="25" height="24" viewBox="0 0 25 24" fill="none" xmlns="http://www.w3.org/2000/svg">
<path d="M4.6875 15C6.34435 15 7.6875 13.6569 7.6875 12C7.6875 10.3431 6.34435 9 4.6875 9C3.03065 9 1.6875 10.3431 1.6875 12C1.6875 13.6569 3.03065 15 4.6875 15Z" fill="#8E8E8E"/>
<path d="M15.6875 12C15.6875 13.6569 14.3444 15 12.6875 15C11.0306 15 9.6875 13.6569 9.6875 12C9.6875 10.3431 11.0306 9 12.6875 9C14.3444 9 15.6875 10.3431 15.6875 12Z" fill="#8E8E8E"/>
<path d="M23.6875 12C23.6875 13.6569 22.3444 15 20.6875 15C19.0306 15 17.6875 13.6569 17.6875 12C17.6875 10.3431 19.0306 9 20.6875 9C22.3444 9 23.6875 10.3431 23.6875 12Z" fill="#8E8E8E"/>
</svg>
