<svg width="25" height="24" viewBox="0 0 25 24" fill="none" xmlns="http://www.w3.org/2000/svg">
<path d="M9.625 4C9.625 5.65685 10.9681 7 12.625 7C14.2819 7 15.625 5.65685 15.625 4C15.625 2.34315 14.2819 1 12.625 1C10.9681 1 9.625 2.34315 9.625 4Z" fill="#8E8E8E"/>
<path d="M12.625 15C10.9681 15 9.625 13.6569 9.625 12C9.625 10.3431 10.9681 9 12.625 9C14.2819 9 15.625 10.3431 15.625 12C15.625 13.6569 14.2819 15 12.625 15Z" fill="#8E8E8E"/>
<path d="M12.625 23C10.9681 23 9.625 21.6569 9.625 20C9.625 18.3431 10.9681 17 12.625 17C14.2819 17 15.625 18.3431 15.625 20C15.625 21.6569 14.2819 23 12.625 23Z" fill="#8E8E8E"/>
</svg>
