<svg width="16" height="18" viewBox="0 0 16 18" fill="none" xmlns="http://www.w3.org/2000/svg">
<path d="M3.99984 13.666V7.66602C3.99984 6.60515 4.42126 5.58773 5.17141 4.83759C5.92156 4.08744 6.93897 3.66602 7.99984 3.66602C9.0607 3.66602 10.0781 4.08744 10.8283 4.83759C11.5784 5.58773 11.9998 6.60515 11.9998 7.66602V13.666M3.99984 13.666H11.9998M3.99984 13.666H2.6665M11.9998 13.666H13.3332M7.33317 15.666H8.6665" stroke="white" stroke-linecap="round" stroke-linejoin="round"/>
<path d="M7.99967 3.66634C8.36786 3.66634 8.66634 3.36786 8.66634 2.99967C8.66634 2.63148 8.36786 2.33301 7.99967 2.33301C7.63148 2.33301 7.33301 2.63148 7.33301 2.99967C7.33301 3.36786 7.63148 3.66634 7.99967 3.66634Z" stroke="white"/>
</svg>
