<svg width="35" height="54" viewBox="0 0 35 54" fill="none" xmlns="http://www.w3.org/2000/svg">
<path d="M0.273193 53.0103V2.50974L12.8039 0.981262V3.9897C13.1471 3.78386 13.5042 3.60147 13.8727 3.44382L15.1012 2.91006C16.2231 2.42991 17.3764 2.02464 18.5532 1.69698C19.4531 1.47614 20.3779 1.37015 21.3051 1.38158C23.1981 1.38199 25.0593 1.86234 26.7105 2.77662C28.3755 3.65485 29.8132 4.90015 30.9119 6.41587C32.1111 8.09862 33.0049 9.9745 33.5532 11.9596C34.2009 14.2206 34.5194 16.561 34.4991 18.9106C34.5013 21.6806 34.0192 24.4302 33.0741 27.0382C32.2424 29.4206 30.9628 31.6266 29.3026 33.5404C27.707 35.3597 25.7446 36.8306 23.5409 37.8589C21.2334 38.9183 18.7145 39.453 16.17 39.4238C15.6114 39.4307 15.0531 39.3983 14.4992 39.3268C13.9709 39.2661 13.4181 39.1691 12.8162 39.0478V53.0103H0.273193ZM19.0692 29.8283C20.4779 27.9683 21.1863 25.0164 21.1945 20.9728C21.2027 16.9292 20.568 14.0259 19.2903 12.2629C18.6464 11.3878 17.7938 10.683 16.8081 10.2111C15.8223 9.73925 14.7339 9.51482 13.6392 9.55775C13.3595 9.55138 13.0797 9.57169 12.8039 9.6184V32.7276H13.0619C14.226 32.7602 15.3808 32.5134 16.4271 32.0084C17.4734 31.5035 18.38 30.7554 19.0692 29.8283Z" fill="#2B3990"/>
</svg>
