<svg width="25" height="24" viewBox="0 0 25 24" fill="none" xmlns="http://www.w3.org/2000/svg">
<path d="M18.2549 13.9999C18.8513 14.0004 19.4231 14.2377 19.8446 14.6596C20.2661 15.0815 20.5029 15.6535 20.5029 16.2499V16.8249C20.5029 17.7189 20.1829 18.5839 19.6029 19.2629C18.0329 21.0959 15.6459 22.0009 12.4999 22.0009C9.35391 22.0009 6.96791 21.0959 5.40191 19.2609C4.82251 18.5822 4.50411 17.7192 4.50391 16.8269V16.2489C4.50417 15.6525 4.7412 15.0806 5.16292 14.6589C5.58463 14.2372 6.15652 14.0001 6.75291 13.9999H18.2549ZM18.2549 15.4999H6.75191C6.55299 15.4999 6.36223 15.5789 6.22158 15.7196C6.08092 15.8602 6.00191 16.051 6.00191 16.2499V16.8269C6.00191 17.3619 6.19391 17.8799 6.54191 18.2869C7.79491 19.7559 9.76191 20.5009 12.4989 20.5009C15.2379 20.5009 17.2049 19.7559 18.4619 18.2879C18.8106 17.8802 19.0021 17.3613 19.0019 16.8249V16.2489C19.0016 16.0505 18.9228 15.8603 18.7826 15.7199C18.6424 15.5795 18.4533 15.5004 18.2549 15.4999ZM12.4999 2.00488C13.1565 2.00488 13.8067 2.13421 14.4133 2.38548C15.02 2.63676 15.5711 3.00506 16.0354 3.46935C16.4997 3.93364 16.868 4.48484 17.1193 5.09147C17.3706 5.69809 17.4999 6.34827 17.4999 7.00488C17.4999 7.66149 17.3706 8.31167 17.1193 8.9183C16.868 9.52493 16.4997 10.0761 16.0354 10.5404C15.5711 11.0047 15.02 11.373 14.4133 11.6243C13.8067 11.8756 13.1565 12.0049 12.4999 12.0049C11.1738 12.0049 9.90205 11.4781 8.96437 10.5404C8.02669 9.60273 7.49991 8.33097 7.49991 7.00488C7.49991 5.6788 8.02669 4.40703 8.96437 3.46935C9.90205 2.53167 11.1738 2.00488 12.4999 2.00488ZM12.4999 3.50488C12.0403 3.50488 11.5852 3.59541 11.1605 3.7713C10.7359 3.9472 10.35 4.205 10.025 4.53001C9.70003 4.85501 9.44222 5.24085 9.26633 5.66549C9.09044 6.09013 8.99991 6.54526 8.99991 7.00488C8.99991 7.46451 9.09044 7.91963 9.26633 8.34427C9.44222 8.76891 9.70003 9.15475 10.025 9.47976C10.35 9.80476 10.7359 10.0626 11.1605 10.2385C11.5852 10.4144 12.0403 10.5049 12.4999 10.5049C13.4282 10.5049 14.3184 10.1361 14.9748 9.47976C15.6312 8.82338 15.9999 7.93314 15.9999 7.00488C15.9999 6.07662 15.6312 5.18639 14.9748 4.53001C14.3184 3.87363 13.4282 3.50488 12.4999 3.50488Z" fill="#83CBAA"/>
</svg>
