<svg width="41" height="41" viewBox="0 0 41 41" fill="none" xmlns="http://www.w3.org/2000/svg">
<path d="M20.5 6.5C19.7044 6.5 18.9413 6.81607 18.3787 7.37868C17.8161 7.94129 17.5 8.70435 17.5 9.5C17.5 10.2956 17.8161 11.0587 18.3787 11.6213C18.9413 12.1839 19.7044 12.5 20.5 12.5C21.2957 12.5 22.0587 12.1839 22.6213 11.6213C23.1839 11.0587 23.5 10.2956 23.5 9.5C23.5 8.70435 23.1839 7.94129 22.6213 7.37868C22.0587 6.81607 21.2957 6.5 20.5 6.5ZM15.5 9.5C15.5 8.17392 16.0268 6.90215 16.9645 5.96447C17.9021 5.02678 19.1739 4.5 20.5 4.5C21.8261 4.5 23.0979 5.02678 24.0355 5.96447C24.9732 6.90215 25.5 8.17392 25.5 9.5C25.5 10.8261 24.9732 12.0979 24.0355 13.0355C23.0979 13.9732 21.8261 14.5 20.5 14.5C19.1739 14.5 17.9021 13.9732 16.9645 13.0355C16.0268 12.0979 15.5 10.8261 15.5 9.5ZM31.5 8.5C30.9696 8.5 30.4609 8.71071 30.0858 9.08579C29.7107 9.46086 29.5 9.96957 29.5 10.5C29.5 11.0304 29.7107 11.5391 30.0858 11.9142C30.4609 12.2893 30.9696 12.5 31.5 12.5C32.0304 12.5 32.5391 12.2893 32.9142 11.9142C33.2893 11.5391 33.5 11.0304 33.5 10.5C33.5 9.96957 33.2893 9.46086 32.9142 9.08579C32.5391 8.71071 32.0304 8.5 31.5 8.5ZM27.5 10.5C27.5 9.43913 27.9214 8.42172 28.6716 7.67157C29.4217 6.92143 30.4391 6.5 31.5 6.5C32.5609 6.5 33.5783 6.92143 34.3284 7.67157C35.0786 8.42172 35.5 9.43913 35.5 10.5C35.5 11.5609 35.0786 12.5783 34.3284 13.3284C33.5783 14.0786 32.5609 14.5 31.5 14.5C30.4391 14.5 29.4217 14.0786 28.6716 13.3284C27.9214 12.5783 27.5 11.5609 27.5 10.5ZM7.5 10.5C7.5 9.96957 7.71071 9.46086 8.08579 9.08579C8.46086 8.71071 8.96957 8.5 9.5 8.5C10.0304 8.5 10.5391 8.71071 10.9142 9.08579C11.2893 9.46086 11.5 9.96957 11.5 10.5C11.5 11.0304 11.2893 11.5391 10.9142 11.9142C10.5391 12.2893 10.0304 12.5 9.5 12.5C8.96957 12.5 8.46086 12.2893 8.08579 11.9142C7.71071 11.5391 7.5 11.0304 7.5 10.5ZM9.5 6.5C8.43913 6.5 7.42172 6.92143 6.67157 7.67157C5.92143 8.42172 5.5 9.43913 5.5 10.5C5.5 11.5609 5.92143 12.5783 6.67157 13.3284C7.42172 14.0786 8.43913 14.5 9.5 14.5C10.5609 14.5 11.5783 14.0786 12.3284 13.3284C13.0786 12.5783 13.5 11.5609 13.5 10.5C13.5 9.43913 13.0786 8.42172 12.3284 7.67157C11.5783 6.92143 10.5609 6.5 9.5 6.5ZM10.7 30.496L10.5 30.5C9.43913 30.5 8.42172 30.0786 7.67157 29.3284C6.92143 28.5783 6.5 27.5609 6.5 26.5V19C6.5 18.8674 6.55268 18.7402 6.64645 18.6464C6.74022 18.5527 6.86739 18.5 7 18.5H10.528C10.608 17.766 10.868 17.084 11.258 16.5H7C5.62 16.5 4.5 17.62 4.5 19V26.5C4.49991 27.3562 4.68308 28.2026 5.0372 28.9822C5.39133 29.7617 5.90821 30.4565 6.55311 31.0197C7.19801 31.583 7.956 32.0017 8.77613 32.2477C9.59627 32.4937 10.4596 32.5613 11.308 32.446C11.0393 31.8185 10.8356 31.165 10.7 30.496ZM29.692 32.446C29.956 32.482 30.2253 32.5 30.5 32.5C32.0913 32.5 33.6174 31.8679 34.7426 30.7426C35.8679 29.6174 36.5 28.0913 36.5 26.5V19C36.5 17.62 35.38 16.5 34 16.5H29.742C30.134 17.084 30.392 17.766 30.472 18.5H34C34.1326 18.5 34.2598 18.5527 34.3536 18.6464C34.4473 18.7402 34.5 18.8674 34.5 19V26.5C34.5001 27.0422 34.39 27.5788 34.1764 28.0771C33.9627 28.5755 33.65 29.0252 33.2572 29.3989C32.8643 29.7727 32.3996 30.0627 31.8913 30.2512C31.3829 30.4398 30.8415 30.5231 30.3 30.496C30.1644 31.165 29.9607 31.8185 29.692 32.446ZM15 16.5C13.62 16.5 12.5 17.62 12.5 19V28.5C12.5 30.6217 13.3429 32.6566 14.8431 34.1569C16.3434 35.6571 18.3783 36.5 20.5 36.5C22.6217 36.5 24.6566 35.6571 26.1569 34.1569C27.6571 32.6566 28.5 30.6217 28.5 28.5V19C28.5 17.62 27.38 16.5 26 16.5H15ZM14.5 19C14.5 18.8674 14.5527 18.7402 14.6464 18.6464C14.7402 18.5527 14.8674 18.5 15 18.5H26C26.1326 18.5 26.2598 18.5527 26.3536 18.6464C26.4473 18.7402 26.5 18.8674 26.5 19V28.5C26.5 30.0913 25.8679 31.6174 24.7426 32.7426C23.6174 33.8679 22.0913 34.5 20.5 34.5C18.9087 34.5 17.3826 33.8679 16.2574 32.7426C15.1321 31.6174 14.5 30.0913 14.5 28.5V19Z" fill="#83CBAA"/>
</svg>
