<svg width="25" height="24" viewBox="0 0 25 24" fill="none" xmlns="http://www.w3.org/2000/svg">
<path d="M23.6875 12C23.6875 18.0751 18.7626 23 12.6875 23C6.61237 23 1.6875 18.0751 1.6875 12C1.6875 5.92487 6.61237 1 12.6875 1C18.7626 1 23.6875 5.92487 23.6875 12ZM21.6875 12C21.6875 11.1945 21.5817 10.4136 21.3832 9.67069L13.1341 12.6185L11.7622 20.953C12.0664 20.9841 12.3751 21 12.6875 21C17.6581 21 21.6875 16.9706 21.6875 12ZM20.6535 7.80759C20.1425 6.83867 19.4599 5.97429 18.6461 5.25489L15.1348 9.77968L20.6535 7.80759ZM17.0084 4.10313C15.7258 3.39989 14.2534 3 12.6875 3C11.0094 3 9.43865 3.45925 8.09395 4.25891L12.2813 10.1945L17.0084 4.10313ZM6.49804 5.46617C4.76712 7.10642 3.6875 9.42713 3.6875 12C3.6875 15.9625 6.24825 19.3269 9.80515 20.5285L11.1898 12.1168L6.49804 5.46617Z" fill="#8E8E8E"/>
</svg>
