<svg width="24" height="24" viewBox="0 0 24 24" fill="none" xmlns="http://www.w3.org/2000/svg">
<path d="M6.99984 11.0001V9.16675C6.99984 6.12918 9.23841 3.66675 11.9998 3.66675C14.7613 3.66675 16.9998 6.12918 16.9998 9.16675V11.0001M3.6665 16.3334C3.6665 13.9764 3.6665 12.7979 4.39874 12.0657C5.13097 11.3334 6.30948 11.3334 8.6665 11.3334H15.3332C17.6902 11.3334 18.8687 11.3334 19.6009 12.0657C20.3332 12.7979 20.3332 13.9764 20.3332 16.3334C20.3332 18.6904 20.3332 19.8689 19.6009 20.6012C18.8687 21.3334 17.6902 21.3334 15.3332 21.3334H8.6665C6.30948 21.3334 5.13097 21.3334 4.39874 20.6012C3.6665 19.8689 3.6665 18.6904 3.6665 16.3334Z" stroke="#4B4B4B" stroke-width="0.833333" stroke-linecap="round"/>
</svg>
