<svg width="24" height="24" viewBox="0 0 24 24" fill="none" xmlns="http://www.w3.org/2000/svg">
<path d="M12.0199 19.8632C9.68987 19.8632 7.35987 19.4932 5.14987 18.7532C4.30987 18.4632 3.66987 17.8732 3.38987 17.1032C3.09987 16.3332 3.19987 15.4832 3.65987 14.7232L4.80987 12.8132C5.04987 12.4132 5.26987 11.6132 5.26987 11.1432V8.25317C5.26987 4.53317 8.29987 1.50317 12.0199 1.50317C15.7399 1.50317 18.7699 4.53317 18.7699 8.25317V11.1432C18.7699 11.6032 18.9899 12.4132 19.2299 12.8232L20.3699 14.7232C20.7999 15.4432 20.8799 16.3132 20.5899 17.1032C20.2999 17.8932 19.6699 18.4932 18.8799 18.7532C16.6799 19.4932 14.3499 19.8632 12.0199 19.8632ZM12.0199 3.00317C9.12987 3.00317 6.76987 5.35317 6.76987 8.25317V11.1432C6.76987 11.8732 6.46987 12.9532 6.09987 13.5832L4.94987 15.4932C4.72987 15.8632 4.66987 16.2532 4.79987 16.5832C4.91987 16.9232 5.21987 17.1832 5.62987 17.3232C9.80987 18.7232 14.2399 18.7232 18.4199 17.3232C18.7799 17.2032 19.0599 16.9332 19.1899 16.5732C19.3199 16.2132 19.2899 15.8232 19.0899 15.4932L17.9399 13.5832C17.5599 12.9332 17.2699 11.8632 17.2699 11.1332V8.25317C17.2699 5.35317 14.9199 3.00317 12.0199 3.00317Z" fill="#4B4B4B"/>
<path d="M12.02 22.1433C11.03 22.1433 10.07 21.7433 9.37002 21.0433C8.67002 20.3433 8.27002 19.3833 8.27002 18.3933H9.77002C9.77002 18.9833 10.01 19.5633 10.43 19.9833C10.85 20.4033 11.43 20.6433 12.02 20.6433C13.26 20.6433 14.27 19.6333 14.27 18.3933H15.77C15.77 20.4633 14.09 22.1433 12.02 22.1433Z" fill="#4B4B4B"/>
</svg>
