<svg width="25" height="39" viewBox="0 0 25 39" fill="none" xmlns="http://www.w3.org/2000/svg">
<path d="M12.5391 38.8537H0.020752V2.77662L12.5391 0.932739V4.69329L13.9028 3.54086C14.8587 2.82916 15.9085 2.24963 17.0232 1.81829C18.0154 1.51057 19.056 1.38316 20.0944 1.44223C20.6455 1.43946 21.196 1.48002 21.7406 1.56354C22.3325 1.66469 22.9099 1.83575 23.4605 2.07304L24.0993 2.32778V14.1796L19.6399 11.6321C19.0323 11.2887 18.3846 11.0199 17.7111 10.8315C17.0427 10.6442 16.361 10.5063 15.6718 10.419C15.073 10.3356 14.4702 10.283 13.8659 10.2613H12.7357C12.6128 10.2613 12.5391 10.2613 12.5391 10.322V38.8537Z" fill="#2B3990"/>
</svg>
