<svg width="24" height="24" viewBox="0 0 24 24" fill="none" xmlns="http://www.w3.org/2000/svg">
<path d="M12.0004 3.5999C10.8973 3.5999 9.80499 3.81717 8.78585 4.23931C7.76672 4.66145 6.84071 5.28019 6.06069 6.06021C5.28068 6.84022 4.66194 7.76623 4.2398 8.78536C3.81766 9.8045 3.60039 10.8968 3.60039 11.9999C3.60039 13.103 3.81766 14.1953 4.2398 15.2144C4.66194 16.2336 5.28068 17.1596 6.06069 17.9396C6.84071 18.7196 7.76672 19.3384 8.78585 19.7605C9.80499 20.1826 10.8973 20.3999 12.0004 20.3999C14.2282 20.3999 16.3648 19.5149 17.9401 17.9396C19.5154 16.3643 20.4004 14.2277 20.4004 11.9999C20.4004 9.77208 19.5154 7.63551 17.9401 6.06021C16.3648 4.4849 14.2282 3.5999 12.0004 3.5999ZM2.40039 11.9999C2.40039 9.45382 3.41182 7.01203 5.21217 5.21168C7.01252 3.41133 9.45431 2.3999 12.0004 2.3999C14.5465 2.3999 16.9883 3.41133 18.7886 5.21168C20.589 7.01203 21.6004 9.45382 21.6004 11.9999C21.6004 14.546 20.589 16.9878 18.7886 18.7881C16.9883 20.5885 14.5465 21.5999 12.0004 21.5999C9.45431 21.5999 7.01252 20.5885 5.21217 18.7881C3.41182 16.9878 2.40039 14.546 2.40039 11.9999Z" fill="#8E8E8E"/>
</svg>
