<svg width="24" height="24" viewBox="0 0 24 24" fill="none" xmlns="http://www.w3.org/2000/svg">
<path d="M11.9982 2.39899C17.3004 2.39899 21.5987 6.69722 21.5987 11.9995C21.5987 17.3008 17.3004 21.599 11.9982 21.599C6.69594 21.599 2.39771 17.3008 2.39771 11.9995C2.39771 6.69722 6.69594 2.39899 11.9982 2.39899ZM11.9982 3.83877C10.9191 3.82707 9.84846 4.02949 8.84815 4.43433C7.84784 4.83917 6.93776 5.43839 6.17057 6.1973C5.40339 6.95621 4.79434 7.85973 4.37868 8.85559C3.96301 9.85145 3.74899 10.9199 3.74899 11.999C3.74899 13.0781 3.96301 14.1465 4.37868 15.1424C4.79434 16.1382 5.40339 17.0418 6.17057 17.8007C6.93776 18.5596 7.84784 19.1588 8.84815 19.5636C9.84846 19.9685 10.9191 20.1709 11.9982 20.1592C14.1406 20.1263 16.1842 19.2522 17.6876 17.7255C19.191 16.1989 20.0337 14.1421 20.0337 11.9995C20.0337 9.85679 19.191 7.80008 17.6876 6.27341C16.1842 4.74673 14.1406 3.87163 11.9982 3.83877ZM11.9943 6.23937C13.5213 6.23937 14.9856 6.84593 16.0653 7.92562C17.145 9.00531 17.7516 10.4697 17.7516 11.9966C17.7516 13.5235 17.145 14.9879 16.0653 16.0676C14.9856 17.1472 13.5213 17.7538 11.9943 17.7538C10.4674 17.7538 9.00307 17.1472 7.92338 16.0676C6.84369 14.9879 6.23713 13.5235 6.23713 11.9966C6.23713 10.4697 6.84369 9.00531 7.92338 7.92562C9.00307 6.84593 10.4674 6.23937 11.9943 6.23937Z" fill="#83CBAA"/>
</svg>
