<svg width="8" height="8" viewBox="0 0 8 8" fill="none" xmlns="http://www.w3.org/2000/svg">
<path d="M2.74759 2.44664L0.620922 2.75497L0.583255 2.76264C0.526235 2.77778 0.474254 2.80778 0.432619 2.84957C0.390985 2.89137 0.36119 2.94347 0.346276 3.00055C0.331362 3.05763 0.331864 3.11764 0.347731 3.17447C0.363598 3.23129 0.394261 3.28288 0.436589 3.32397L1.97726 4.82364L1.61392 6.94197L1.60959 6.97864C1.6061 7.03762 1.61834 7.09646 1.64507 7.14914C1.6718 7.20183 1.71205 7.24646 1.7617 7.27848C1.81135 7.31049 1.86862 7.32874 1.92764 7.33134C1.98666 7.33395 2.04531 7.32082 2.09759 7.29331L3.99959 6.29331L5.89725 7.29331L5.93059 7.30864C5.98561 7.33031 6.0454 7.33696 6.10384 7.32789C6.16228 7.31883 6.21725 7.29438 6.26312 7.25706C6.30899 7.21974 6.34411 7.17089 6.36487 7.11552C6.38563 7.06015 6.39128 7.00025 6.38126 6.94197L6.01759 4.82364L7.55892 3.32364L7.58492 3.29531C7.62206 3.24956 7.64641 3.19479 7.6555 3.13657C7.66458 3.07835 7.65806 3.01877 7.63662 2.96388C7.61517 2.909 7.57956 2.86079 7.53342 2.82415C7.48727 2.78751 7.43224 2.76375 7.37392 2.75531L5.24726 2.44664L4.29659 0.519974C4.26908 0.464152 4.22649 0.417146 4.17365 0.384276C4.12081 0.351405 4.05982 0.333984 3.99759 0.333984C3.93536 0.333984 3.87437 0.351405 3.82153 0.384276C3.76868 0.417146 3.7261 0.464152 3.69859 0.519974L2.74759 2.44664Z" fill="#FFAD0D"/>
</svg>
