<svg width="32" height="48" viewBox="0 0 32 48" fill="none" xmlns="http://www.w3.org/2000/svg">
<path d="M0.769657 36.3969L2.39127 37.2217C3.93918 37.9011 5.27824 38.4348 6.42074 38.8473C7.56324 39.2597 8.77946 39.6115 10.1062 39.939C11.2864 40.2404 12.4991 40.3992 13.718 40.4122C14.4101 40.4102 15.0978 40.3038 15.7573 40.0967C16.3968 39.8956 16.9985 39.5924 17.5386 39.1991C18.0371 38.8281 18.4548 38.3619 18.7671 37.8283C19.0884 37.3037 19.2345 36.6926 19.1848 36.0815C19.1917 35.6749 19.1587 35.2687 19.0865 34.8684C19.0045 34.4802 18.8273 34.1179 18.5706 33.813C18.1849 33.3565 17.7433 32.9491 17.2561 32.5999C16.6418 32.1389 15.8065 31.5445 14.7991 30.8167L9.30772 27.0561C8.01276 26.1618 6.78137 25.181 5.62222 24.1205C4.68478 23.2583 3.85946 22.2844 3.16522 21.2212C2.53287 20.2479 2.05635 19.184 1.75246 18.0672C1.43672 16.8797 1.28384 15.6556 1.29791 14.4279C1.28064 12.5297 1.63955 10.6464 2.35442 8.88416C3.03773 7.23506 4.0486 5.73779 5.32738 4.48068C6.63018 3.23453 8.16553 2.24991 9.84826 1.58141C11.6435 0.866683 13.5637 0.508066 15.4993 0.526034C17.5658 0.581798 19.6224 0.829551 21.6418 1.26601C24.0988 1.75125 26.7565 2.35779 29.6148 3.08564L30.3887 3.27973V10.6674L28.976 10.0366C27.5509 9.47857 26.3224 9.02973 25.2905 8.69007C24.2585 8.35041 23.1652 8.04714 21.9981 7.76813C20.9583 7.47074 19.8857 7.29964 18.804 7.25864C17.4703 7.22951 16.1677 7.65825 15.1185 8.47172C14.6238 8.83309 14.2285 9.31105 13.9689 9.86198C13.7092 10.4129 13.5934 11.0193 13.632 11.6257C13.6266 12.0661 13.672 12.5056 13.7671 12.9359C13.8663 13.3251 14.0556 13.6864 14.32 13.9912C14.6858 14.4148 15.0978 14.7972 15.5485 15.1315C16.241 15.6826 16.9628 16.1968 17.7106 16.6721L24.0988 20.9422C25.309 21.7347 26.4549 22.6188 27.5263 23.5867C28.4233 24.3984 29.2118 25.3197 29.8727 26.3283C30.4958 27.2787 30.9565 28.3237 31.2364 29.4216C31.5291 30.6333 31.6694 31.876 31.6541 33.1215C31.6546 35.0861 31.236 37.0288 30.4256 38.823C29.651 40.565 28.5313 42.1363 27.1325 43.4446C25.7338 44.753 24.0841 45.7718 22.2806 46.4412C20.3222 47.188 18.2374 47.5585 16.1382 47.5329C14.2434 47.5083 12.3536 47.3338 10.4871 47.0113C7.87534 46.5735 5.29751 45.9574 2.7721 45.1674L0.634521 44.5245L0.769657 36.3969Z" fill="#2B3990"/>
</svg>
