<svg width="28" height="39" viewBox="0 0 28 39" fill="none" xmlns="http://www.w3.org/2000/svg">
<path d="M0.875602 28.9254L2.30066 29.7503C3.42234 30.3036 4.57487 30.7936 5.75274 31.2181C6.72325 31.5578 7.75519 31.8732 8.84856 32.1522C9.83166 32.4073 10.8421 32.5457 11.8584 32.5646C12.4559 32.5672 13.051 32.4897 13.6274 32.3341C14.1731 32.2036 14.6952 31.9908 15.1753 31.7033C15.5939 31.459 15.9575 31.1329 16.2441 30.745C16.5068 30.3973 16.6215 29.9619 16.5635 29.5319C16.5745 29.1775 16.5415 28.823 16.4652 28.4765C16.3626 28.1308 16.1772 27.8146 15.9247 27.5546C15.51 27.1086 15.0534 26.7024 14.5611 26.3415C13.9591 25.9048 13.1237 25.3225 12.1041 24.5947L7.91489 21.7924C6.79497 21.0679 5.73512 20.2566 4.74537 19.3663C3.94839 18.6444 3.243 17.8297 2.64464 16.9401C2.11364 16.1544 1.72305 15.2845 1.48985 14.3684C1.23115 13.4266 1.09087 12.4569 1.07217 11.4813C1.05126 9.91259 1.36957 8.35758 2.00583 6.92007C2.60059 5.58195 3.48053 4.38618 4.58567 3.41427C5.74782 2.42326 7.10208 1.6762 8.566 1.21859C10.2123 0.692819 11.9341 0.434708 13.6643 0.45435H15.593C16.2441 0.45435 16.9812 0.539266 17.792 0.648443C18.6028 0.75762 19.5488 0.89106 20.6053 1.06089C21.6618 1.23072 22.878 1.47334 24.2908 1.76448L26.6126 2.27397V8.65478L25.1998 8.0725C23.8976 7.61153 22.7429 7.2476 21.8706 6.99286C20.9984 6.73811 19.9542 6.4955 18.8977 6.26501C17.9765 6.0426 17.0326 5.92457 16.0844 5.91322C15.1699 5.89398 14.2707 6.14765 13.5046 6.64107C13.1631 6.85208 12.8866 7.15118 12.7047 7.50607C12.5228 7.86095 12.4426 8.25815 12.4726 8.65478C12.4512 8.98197 12.4512 9.31019 12.4726 9.63737C12.5263 9.93496 12.6624 10.2121 12.8657 10.438C13.1601 10.7646 13.4943 11.0539 13.8608 11.2993C14.3154 11.6147 14.9787 12.0514 15.8387 12.5973V12.6943L20.2367 15.4116C21.457 16.1815 22.6227 17.0326 23.7256 17.9591C24.5945 18.6855 25.3628 19.5216 26.0107 20.4459C26.5718 21.2727 26.9872 22.1874 27.2391 23.1511C27.9076 25.8484 27.6926 28.6855 26.6249 31.2545C26.0073 32.713 25.0866 34.0272 23.9222 35.1121C22.6923 36.1922 21.2552 37.0172 19.6962 37.5382C17.9707 38.1301 16.1542 38.4215 14.3277 38.3995C12.4419 38.3597 10.5633 38.1568 8.71342 37.793C6.42841 37.3967 4.01647 36.8791 1.47757 36.2402L0.703613 36.0462L0.875602 28.9254Z" fill="#2B3990"/>
</svg>
