<svg width="25" height="25" viewBox="0 0 25 25" fill="none" xmlns="http://www.w3.org/2000/svg">
<path d="M14.0046 16.8431C12.8538 17.5468 11.5009 17.9524 10.0532 17.9524C5.86443 17.9524 2.46875 14.5567 2.46875 10.3679C2.46875 6.17913 5.86443 2.78345 10.0532 2.78345C14.242 2.78345 17.6377 6.17913 17.6377 10.3679C17.6377 11.8156 17.2321 13.1685 16.5284 14.3193L22.4688 20.2597L19.945 22.7834L14.0046 16.8431ZM14.0685 10.3679C14.0685 8.15033 12.2708 6.35261 10.0532 6.35261C7.83563 6.35261 6.03791 8.15033 6.03791 10.3679C6.03791 12.5855 7.83563 14.3832 10.0532 14.3832C12.2708 14.3832 14.0685 12.5855 14.0685 10.3679Z" fill="#8E8E8E"/>
</svg>
