<svg width="25" height="25" viewBox="0 0 25 25" fill="none" xmlns="http://www.w3.org/2000/svg">
<path d="M2.46875 10.615C2.46875 6.28975 5.97505 2.78345 10.3003 2.78345C14.6255 2.78345 18.1318 6.28975 18.1318 10.615C18.1318 12.4456 17.5037 14.1295 16.4513 15.463L22.4688 21.4804L21.1658 22.7834L15.1483 16.766C13.8148 17.8184 12.1309 18.4465 10.3003 18.4465C5.97505 18.4465 2.46875 14.9402 2.46875 10.615ZM10.3003 4.62616C6.99275 4.62616 4.31146 7.30745 4.31146 10.615C4.31146 13.9225 6.99275 16.6038 10.3003 16.6038C13.6078 16.6038 16.2891 13.9225 16.2891 10.615C16.2891 7.30745 13.6078 4.62616 10.3003 4.62616Z" fill="#8E8E8E"/>
</svg>
