<svg width="37" height="36" viewBox="0 0 37 36" fill="none" xmlns="http://www.w3.org/2000/svg">
<circle cx="18.9458" cy="18" r="17.5" fill="white" stroke="#CACACA"/>
<mask id="path-2-outside-1_607_2382" maskUnits="userSpaceOnUse" x="9.9458" y="9" width="16" height="18" fill="black">
<rect fill="white" x="9.9458" y="9" width="16" height="18"/>
<path d="M14.7017 16.784C14.403 16.784 14.1417 16.432 13.9177 15.728C13.7043 15.024 13.5977 14.3467 13.5977 13.696C13.5977 13.5467 13.763 13.3813 14.0937 13.2C14.4243 13.008 14.9257 12.8373 15.5977 12.688C16.2697 12.5387 17.0003 12.464 17.7897 12.464C20.851 12.464 22.3817 13.536 22.3817 15.68C22.3817 16.2773 22.2537 16.8373 21.9977 17.36C21.7417 17.8827 21.459 18.304 21.1497 18.624C20.8403 18.9333 20.4777 19.2213 20.0617 19.488C19.5817 19.7867 19.123 20.0213 18.6857 20.192H21.8857C21.9497 20.192 22.019 20.224 22.0937 20.288C22.1683 20.3413 22.2483 20.512 22.3337 20.8C22.419 21.0773 22.4617 21.4293 22.4617 21.856C22.4617 22.272 22.435 22.624 22.3817 22.912C22.3283 23.1893 22.2643 23.392 22.1897 23.52C22.0297 23.808 21.8857 23.9627 21.7577 23.984L21.6777 24H14.6697C13.9977 24 13.6617 22.9493 13.6617 20.848C13.6617 20.6133 14.355 19.968 15.7417 18.912C16.2643 18.528 16.7443 18.1067 17.1817 17.648C17.619 17.1893 17.8377 16.816 17.8377 16.528C17.8377 16.208 17.5977 16.048 17.1177 16.048C16.6377 16.048 16.131 16.1707 15.5977 16.416C15.075 16.6613 14.7763 16.784 14.7017 16.784Z"/>
</mask>
<path d="M13.9177 15.728L11.0466 16.598L11.0526 16.6179L11.0589 16.6376L13.9177 15.728ZM14.0937 13.2L15.5362 15.8304L15.5683 15.8128L15.6001 15.7944L14.0937 13.2ZM15.5977 12.688L14.9469 9.75944L14.9469 9.75944L15.5977 12.688ZM21.9977 17.36L19.3035 16.0404L19.3035 16.0404L21.9977 17.36ZM21.1497 18.624L23.271 20.7453L23.289 20.7273L23.3066 20.7091L21.1497 18.624ZM20.0617 19.488L21.6466 22.0352L21.6637 22.0245L21.6807 22.0136L20.0617 19.488ZM18.6857 20.192L17.595 17.3973L18.6857 23.192V20.192ZM22.0937 20.288L20.1413 22.5658L20.242 22.6521L20.35 22.7292L22.0937 20.288ZM22.3337 20.8L19.4573 21.6523L19.4617 21.6673L19.4663 21.6823L22.3337 20.8ZM22.3817 22.912L25.3277 23.4785L25.3296 23.4684L25.3315 23.4583L22.3817 22.912ZM22.1897 23.52L19.5983 22.0084L19.5825 22.0356L19.5672 22.0631L22.1897 23.52ZM21.7577 23.984L21.2645 21.0248L21.2168 21.0328L21.1693 21.0423L21.7577 23.984ZM21.6777 24V27H21.9747L22.266 26.9417L21.6777 24ZM15.7417 18.912L13.9654 16.4944L13.9446 16.5096L13.9241 16.5253L15.7417 18.912ZM17.1817 17.648L15.0105 15.5778L15.0105 15.5778L17.1817 17.648ZM15.5977 16.416L14.344 13.6905L14.3334 13.6954L14.323 13.7003L15.5977 16.416ZM14.7017 13.784C15.8866 13.784 16.5325 14.519 16.6904 14.7317C16.8469 14.9425 16.8469 15.0399 16.7765 14.8184L11.0589 16.6376C11.2124 17.1201 11.4551 17.7455 11.8729 18.3083C12.2922 18.873 13.218 19.784 14.7017 19.784V13.784ZM16.7887 14.858C16.6499 14.3999 16.5977 14.0163 16.5977 13.696H10.5977C10.5977 14.677 10.7588 15.6481 11.0466 16.598L16.7887 14.858ZM16.5977 13.696C16.5977 14.7675 16.0138 15.4105 15.843 15.5813C15.6402 15.7841 15.4875 15.8571 15.5362 15.8304L12.6512 10.5696C12.3692 10.7242 11.9685 10.9705 11.6004 11.3387C11.2642 11.6749 10.5977 12.4752 10.5977 13.696H16.5977ZM15.6001 15.7944C15.5429 15.8276 15.5554 15.8119 15.6845 15.7679C15.8062 15.7265 15.9896 15.6741 16.2485 15.6166L14.9469 9.75944C14.174 9.9312 13.317 10.1819 12.5873 10.6056L15.6001 15.7944ZM16.2485 15.6166C16.6783 15.521 17.188 15.464 17.7897 15.464V9.464C16.8127 9.464 15.861 9.5563 14.9469 9.75944L16.2485 15.6166ZM17.7897 15.464C18.3895 15.464 18.8211 15.5174 19.1167 15.5864C19.4117 15.6553 19.5138 15.7261 19.5127 15.7253C19.4925 15.7111 19.4285 15.6519 19.3858 15.5623C19.3504 15.4877 19.3817 15.5004 19.3817 15.68H25.3817C25.3817 13.7957 24.6489 11.9973 22.9546 10.8107C21.4552 9.76057 19.5785 9.464 17.7897 9.464V15.464ZM19.3817 15.68C19.3817 15.8324 19.3529 15.9396 19.3035 16.0404L24.6919 18.6796C25.1545 17.7351 25.3817 16.7223 25.3817 15.68H19.3817ZM19.3035 16.0404C19.1455 16.363 19.0288 16.5016 18.9927 16.5389L23.3066 20.7091C23.8892 20.1064 24.3379 19.4024 24.6919 18.6796L19.3035 16.0404ZM19.0284 16.5027C18.8896 16.6414 18.7001 16.7973 18.4427 16.9624L21.6807 22.0136C22.2552 21.6453 22.7911 21.2252 23.271 20.7453L19.0284 16.5027ZM18.4768 16.9408C18.123 17.161 17.8298 17.3057 17.595 17.3973L19.7763 22.9867C20.4163 22.737 21.0404 22.4124 21.6466 22.0352L18.4768 16.9408ZM18.6857 23.192H21.8857V17.192H18.6857V23.192ZM21.8857 23.192C20.936 23.192 20.3311 22.7284 20.1413 22.5658L24.046 18.0102C23.707 17.7196 22.9634 17.192 21.8857 17.192V23.192ZM20.35 22.7292C19.9847 22.4683 19.7738 22.1875 19.682 22.0546C19.5788 21.9052 19.5191 21.7843 19.4933 21.7293C19.4435 21.6231 19.4354 21.5786 19.4573 21.6523L25.2101 19.9477C25.1466 19.7334 25.0558 19.4596 24.9261 19.1827C24.8526 19.0261 24.5445 18.3519 23.8374 17.8468L20.35 22.7292ZM19.4663 21.6823C19.4467 21.6183 19.447 21.5964 19.4515 21.633C19.4557 21.6681 19.4617 21.74 19.4617 21.856H25.4617C25.4617 21.2571 25.4051 20.581 25.201 19.9177L19.4663 21.6823ZM19.4617 21.856C19.4617 22.1584 19.4412 22.3154 19.4318 22.3657L25.3315 23.4583C25.4289 22.9326 25.4617 22.3856 25.4617 21.856H19.4617ZM19.4357 22.3455C19.4242 22.4048 19.4208 22.4069 19.4329 22.3686C19.4395 22.3477 19.4534 22.3063 19.4771 22.2498C19.5003 22.1944 19.539 22.1101 19.5983 22.0084L24.781 25.0316C25.1181 24.4537 25.2574 23.844 25.3277 23.4785L19.4357 22.3455ZM19.5672 22.0631C19.5474 22.0987 19.6074 21.9781 19.766 21.8077C19.8837 21.6813 20.378 21.1726 21.2645 21.0248L22.2509 26.9432C23.2654 26.7741 23.8957 26.1773 24.1574 25.8963C24.46 25.5712 24.672 25.2293 24.8121 24.9769L19.5672 22.0631ZM21.1693 21.0423L21.0893 21.0583L22.266 26.9417L22.346 26.9257L21.1693 21.0423ZM21.6777 21H14.6697V27H21.6777V21ZM14.6697 21C14.9886 21 15.3288 21.065 15.657 21.2116C15.9802 21.356 16.2232 21.5486 16.3935 21.7261C16.5585 21.8981 16.6539 22.0539 16.7029 22.1457C16.7522 22.2382 16.7704 22.2961 16.7711 22.2982C16.7724 22.3021 16.7631 22.2735 16.7497 22.2034C16.7364 22.1345 16.7215 22.0378 16.7078 21.909C16.68 21.6482 16.6617 21.299 16.6617 20.848H10.6617C10.6617 21.9817 10.7432 23.147 11.0562 24.1258C11.3266 24.9712 12.2684 27 14.6697 27V21ZM16.6617 20.848C16.6617 21.1958 16.5988 21.4781 16.5409 21.6692C16.4822 21.8629 16.4134 22.0129 16.3625 22.1118C16.2652 22.3013 16.1734 22.4195 16.1482 22.4516C16.0967 22.517 16.0994 22.5014 16.2256 22.384C16.4635 22.1625 16.891 21.8076 17.5593 21.2987L13.9241 16.5253C13.2057 17.0724 12.5932 17.5681 12.1377 17.992C11.9173 18.1972 11.66 18.453 11.4352 18.7384C11.3233 18.8805 11.1665 19.0959 11.0258 19.3697C10.9058 19.6033 10.6617 20.1352 10.6617 20.848H16.6617ZM17.5179 21.3296C18.1788 20.8441 18.7915 20.307 19.3529 19.7182L15.0105 15.5778C14.6972 15.9064 14.3498 16.2119 13.9654 16.4944L17.5179 21.3296ZM19.3529 19.7182C19.6649 19.391 19.9953 18.9961 20.2623 18.5402C20.5157 18.1076 20.8377 17.4077 20.8377 16.528H14.8377C14.8377 16.2211 14.8955 15.9779 14.9483 15.8182C15.0008 15.6596 15.0577 15.5545 15.085 15.5078C15.1334 15.4252 15.1358 15.4464 15.0105 15.5778L19.3529 19.7182ZM20.8377 16.528C20.8377 15.4941 20.3784 14.3763 19.3218 13.6718C18.4798 13.1106 17.5963 13.048 17.1177 13.048V19.048C17.0805 19.048 16.9584 19.0458 16.7819 19.0066C16.6065 18.9676 16.3143 18.878 15.9936 18.6642C15.6528 18.437 15.3303 18.1015 15.1094 17.6596C14.8947 17.2302 14.8377 16.8248 14.8377 16.528H20.8377ZM17.1177 13.048C16.1194 13.048 15.1847 13.3038 14.344 13.6905L16.8514 19.1415C17.0773 19.0375 17.1559 19.048 17.1177 19.048V13.048ZM14.323 13.7003C14.0774 13.8156 13.9237 13.8834 13.8419 13.9169C13.7976 13.9352 13.8119 13.9278 13.8632 13.9109C13.8884 13.9026 13.9575 13.8804 14.0547 13.8576C14.1049 13.8458 14.1807 13.8296 14.2752 13.8155C14.3634 13.8023 14.5134 13.784 14.7017 13.784V19.784C15.2639 19.784 15.7252 19.6147 15.7361 19.6111C15.8808 19.5636 16.0165 19.5102 16.1214 19.4671C16.3383 19.378 16.5953 19.2618 16.8724 19.1317L14.323 13.7003Z" fill="#8E8E8E" mask="url(#path-2-outside-1_607_2382)"/>
</svg>
