<svg width="25" height="24" viewBox="0 0 25 24" fill="none" xmlns="http://www.w3.org/2000/svg">
<g clip-path="url(#clip0_1_259)">
<path d="M15.2856 13.5C14.4571 14.9349 12.6224 15.4265 11.1875 14.598C9.75261 13.7696 9.26099 11.9349 10.0894 10.5C10.9178 9.06509 12.7526 8.57347 14.1875 9.4019C15.6224 10.2303 16.114 12.0651 15.2856 13.5Z" fill="#8E8E8E"/>
<path d="M19.2096 3.06381C20.0352 3.5405 20.4096 4.53365 20.1041 5.4368L19.7729 6.41593C19.7706 6.42281 19.776 6.45084 19.8037 6.48655C20.3028 7.13116 20.711 7.84042 21.0186 8.5942C21.0355 8.63543 21.0567 8.65397 21.0637 8.65536L22.0798 8.85858C23.0146 9.0455 23.6875 9.86631 23.6876 10.8198L23.6876 13.1802C23.6875 14.1335 23.0146 14.9543 22.0798 15.1413L21.0646 15.3444C21.0576 15.3458 21.0362 15.3644 21.0192 15.4058C20.8658 15.7801 20.6864 16.1455 20.4818 16.5C20.2771 16.8545 20.0503 17.1925 19.8029 17.5125C19.7755 17.548 19.7701 17.5758 19.7724 17.5827L20.1041 18.5632C20.4096 19.4664 20.0352 20.4597 19.2095 20.9362L17.1655 22.1163C16.3398 22.5932 15.2924 22.4208 14.6632 21.7047L13.979 20.9263C13.9744 20.921 13.9477 20.9118 13.9035 20.9179C13.0969 21.0284 12.2785 21.0294 11.471 20.9195C11.4261 20.9134 11.399 20.9227 11.3944 20.928L10.7119 21.7046C10.0826 22.4207 9.03524 22.5931 8.20961 22.1164L6.16544 20.9362C5.33981 20.4595 4.96542 19.4663 5.27092 18.5632L5.60218 17.584C5.60447 17.5772 5.59897 17.5491 5.57138 17.5134C5.07233 16.869 4.66406 16.1596 4.35637 15.4057C4.33952 15.3645 4.31825 15.3459 4.31128 15.3445L3.29523 15.1413C2.36046 14.9542 1.6876 14.1335 1.68758 13.1801L1.68755 10.8197C1.68764 9.86634 2.36048 9.0456 3.29537 8.85858L4.31032 8.65562C4.31738 8.65421 4.33884 8.63553 4.3559 8.59395C4.50945 8.21954 4.68874 7.85427 4.89329 7.49999C5.09783 7.14571 5.32452 6.8078 5.57199 6.48762C5.59945 6.45209 5.60488 6.42421 5.60258 6.41743L5.27085 5.43681C4.96534 4.53372 5.33975 3.54055 6.16538 3.06386L8.20954 1.88366C9.03517 1.40698 10.0825 1.57933 10.7119 2.29545L11.3958 3.07372C11.4005 3.07905 11.4272 3.08821 11.4714 3.08215C12.2779 2.97165 13.0964 2.97056 13.9042 3.08048C13.949 3.08657 13.976 3.07729 13.9807 3.07191L14.6631 2.2954C15.2925 1.57928 16.3398 1.40693 17.1654 1.88361L19.2096 3.06381ZM17.0176 14.5C18.3983 12.1085 17.579 9.05056 15.1875 7.66985C12.796 6.28913 9.73807 7.10851 8.35736 9.49997C6.97665 11.8914 7.79603 14.9494 10.1875 16.3301C12.579 17.7108 15.6369 16.8914 17.0176 14.5Z" fill="#8E8E8E"/>
</g>
<defs>
<clipPath id="clip0_1_259">
<rect width="24" height="24" fill="white" transform="translate(0.6875)"/>
</clipPath>
</defs>
</svg>
