<svg width="24" height="24" viewBox="0 0 24 24" fill="none" xmlns="http://www.w3.org/2000/svg">
<path d="M15.9167 5.54175L7.52083 10.7084M7.52083 13.9376L15.9167 18.4584M15.9167 5.54175L7.52083 10.7084M7.52083 13.9376L15.9167 18.4584M8.16667 12.0001C8.16667 13.4268 7.01007 14.5834 5.58333 14.5834C4.1566 14.5834 3 13.4268 3 12.0001C3 10.5733 4.1566 9.41675 5.58333 9.41675C7.01007 9.41675 8.16667 10.5733 8.16667 12.0001ZM21.0833 4.25008C21.0833 5.67682 19.9267 6.83342 18.5 6.83342C17.0733 6.83342 15.9167 5.67682 15.9167 4.25008C15.9167 2.82335 17.0733 1.66675 18.5 1.66675C19.9267 1.66675 21.0833 2.82335 21.0833 4.25008ZM21.0833 19.7501C21.0833 21.1768 19.9267 22.3334 18.5 22.3334C17.0733 22.3334 15.9167 21.1768 15.9167 19.7501C15.9167 18.3233 17.0733 17.1667 18.5 17.1667C19.9267 17.1667 21.0833 18.3233 21.0833 19.7501ZM8.16667 12.0001C8.16667 13.4268 7.01007 14.5834 5.58333 14.5834C4.1566 14.5834 3 13.4268 3 12.0001C3 10.5733 4.1566 9.41675 5.58333 9.41675C7.01007 9.41675 8.16667 10.5733 8.16667 12.0001Z" stroke="#4B4B4B" stroke-width="0.833333" stroke-linejoin="round"/>
</svg>
