<svg width="24" height="25" viewBox="0 0 24 25" fill="none" xmlns="http://www.w3.org/2000/svg">
<path d="M15 12.7834C15 14.4403 13.6569 15.7834 12 15.7834C10.3431 15.7834 9 14.4403 9 12.7834C9 11.1266 10.3431 9.78345 12 9.78345C13.6569 9.78345 15 11.1266 15 12.7834Z" fill="#8E8E8E"/>
<path d="M7.29129 6.71498L1 12.7834L7.29129 18.8519C9.96124 21.4273 14.0388 21.4273 16.7087 18.8519L23 12.7834L16.7087 6.71499C14.0388 4.1396 9.96124 4.1396 7.29129 6.71498ZM17 12.7834C17 15.5449 14.7614 17.7834 12 17.7834C9.23858 17.7834 7 15.5449 7 12.7834C7 10.022 9.23858 7.78345 12 7.78345C14.7614 7.78345 17 10.022 17 12.7834Z" fill="#8E8E8E"/>
</svg>
