<svg width="29" height="36" viewBox="0 0 29 36" fill="none" xmlns="http://www.w3.org/2000/svg">
<path d="M10.6826 4.51807C10.6826 4.51807 9.3256 5.96615 10.454 6.74662C11.5825 7.52708 18.4388 11.1755 18.4388 11.1755C18.7234 11.3856 18.9464 11.6664 19.0853 11.9893C19.2241 12.3122 19.2738 12.6658 19.2292 13.0138C19.1435 14.3256 19.2577 19.5631 19.2577 19.5631C19.2062 19.8503 19.0878 20.1217 18.9118 20.3559C18.7357 20.5901 18.507 20.7806 18.2436 20.9125C17.3675 21.3027 10.5874 25.3508 10.5874 25.3508C10.4356 25.619 10.3844 25.9314 10.4428 26.2332C10.5011 26.535 10.6653 26.8068 10.9064 27.001C11.7825 27.6404 18.4388 31.1525 18.4388 31.1525C18.4388 31.1525 19.3434 31.8766 19.2292 32.7369C19.1777 33.8243 19.1873 34.9136 19.2577 35.9998L10.4826 30.9833C10.4826 30.9833 8.96851 30.2592 8.96851 28.8111C8.96851 27.363 9.02564 22.3747 9.02564 22.3747C9.1025 22.112 9.23891 21.8701 9.42453 21.6673C9.61014 21.4644 9.84009 21.306 10.0969 21.204C11.0492 20.7338 18.3626 16.5024 18.3626 16.5024L18.2245 14.885L9.96362 10.3433C9.7446 10.1886 9.56899 9.98139 9.45323 9.74126C9.33747 9.50114 9.28537 9.23591 9.3018 8.97046C9.29902 8.0158 9.34669 7.06165 9.44464 6.1119C9.44464 6.1119 9.27323 5.19509 10.6826 4.51807Z" fill="#2B3990"/>
<path d="M28.0139 6.5164L19.872 11.0111C19.2435 11.5236 18.6531 11.4295 18.0103 11.0111L10.0684 6.69976C9.42566 6.16378 9.36852 5.35511 10.0684 4.86144L17.8961 0.366734C18.5531 -0.0517069 18.9626 -0.188053 19.7577 0.366734L28.0139 4.70159C28.7233 5.17175 28.5138 6.00863 28.0139 6.5164Z" fill="#83CBAA"/>
<path d="M18.4437 16.5823L10.3209 21.077C9.69238 21.5895 9.09721 21.4955 8.45919 21.077L0.512541 16.7657C0.377195 16.6527 0.268429 16.5119 0.193824 16.3532C0.119219 16.1944 0.0805664 16.0215 0.0805664 15.8465C0.0805664 15.6715 0.119219 15.4986 0.193824 15.3399C0.268429 15.1811 0.377195 15.0403 0.512541 14.9274L8.34016 10.4327C8.99722 10.0142 9.4067 9.87787 10.2018 10.4327L18.4437 14.744C19.1674 15.2377 18.9674 16.0745 18.4437 16.5823Z" fill="#B12F53"/>
<path d="M28.4519 26.6863L20.3244 31.181C19.6959 31.6935 19.1055 31.5948 18.4627 31.181L10.5208 26.865C10.3847 26.7525 10.2753 26.6118 10.2002 26.453C10.1251 26.2942 10.0862 26.1211 10.0862 25.9458C10.0862 25.7706 10.1251 25.5974 10.2002 25.4386C10.2753 25.2798 10.3847 25.1392 10.5208 25.0267L18.3484 20.5367C19.0055 20.1182 19.4149 19.9819 20.2101 20.5367L28.4519 24.848C29.1757 25.3417 28.9662 26.1785 28.4519 26.6863Z" fill="#F47E42"/>
</svg>
