<svg width="393" height="399" viewBox="0 0 393 399" fill="none" xmlns="http://www.w3.org/2000/svg">
<path d="M172.659 84.7886C179.715 85.0626 187.802 88.1225 195.481 92.3102C198.286 93.8395 199.018 96.5582 197.351 99.4473C195.726 102.261 193.137 102.81 190.367 101.423C184.922 98.6958 179.385 96.4219 173.287 95.5193C164.238 94.1802 159.253 99.468 161.358 108.32C162.57 113.417 165.084 117.939 167.274 122.614C168.921 126.131 169.455 129.732 165.283 131.681C161.191 133.594 159.277 130.713 157.597 127.379C154.282 120.802 151.391 114.09 150.357 106.757C148.615 94.41 157.82 84.5901 172.659 84.7886Z" fill="#B12F53"/>
<path d="M20.1795 141.825C2.02568 136.197 -16.8698 122.607 -33.9165 106.371C-40.1428 100.441 -40.1516 92.8628 -33.8048 86.5127C-27.6216 80.3281 -20.506 80.7051 -14.2717 86.2418C-2.01502 97.1249 10.7953 106.894 26.0213 113.489C48.6151 123.274 65.2604 112.999 65.9528 88.5198C66.3524 74.4234 62.9659 60.914 60.5302 47.2333C58.6983 36.9442 59.8172 27.2096 72.0227 25.0471C83.9929 22.9255 86.9638 31.7478 89.0094 41.5886C93.045 60.9949 95.8857 80.4596 93.4664 100.247C89.3931 133.56 58.6201 152.678 20.1795 141.825Z" fill="#83CBAA"/>
<path d="M33.9338 182.122C36.2973 182.081 38.1133 183.106 39.2715 185.12C40.4879 187.235 40.4588 189.483 39.0507 191.465C35.8117 196.025 32.5384 200.566 29.0938 204.97C26.9681 207.688 24.0546 208.367 21.0661 206.449C18.2397 204.635 17.1254 201.652 18.9155 198.833C22.2216 193.624 26.0181 188.719 29.7564 183.798C30.6874 182.572 32.2948 182.08 33.9338 182.122Z" fill="#75E2FF"/>
<path d="M63.1211 391.856C63.0275 394.855 61.7494 396.814 59.4345 397.994C56.977 399.246 54.4709 398.976 52.4657 397.135C48.7854 393.758 45.1565 390.305 41.7505 386.655C39.5799 384.33 39.4769 381.41 41.4082 378.837C43.3051 376.311 46.2043 375.253 48.9498 376.821C54.4667 379.971 58.4903 384.883 62.4833 389.725C62.9784 390.326 62.9763 391.336 63.1211 391.856Z" fill="#B12F53"/>
<path d="M323.988 93.4799C326.996 93.4075 328.767 94.4098 329.927 96.4795C331.283 98.8995 331.314 101.46 329.515 103.473C326.018 107.386 322.375 111.202 318.49 114.723C316.241 116.76 313.307 116.67 310.88 114.716C308.607 112.884 307.475 110.165 309.035 107.604C312.365 102.136 317.014 97.773 322.148 93.9712C322.775 93.5063 323.767 93.5337 323.988 93.4799Z" fill="#83CBAA"/>
<path d="M-11.1177 340.077C-10.9185 336.27 -8.73252 333.993 -4.95298 333.974C-0.957332 333.954 1.26397 336.622 1.29515 340.446C1.32632 344.246 -1.07043 346.705 -4.8542 346.667C-8.7262 346.628 -10.9259 344.211 -11.1177 340.077Z" fill="#D9534F"/>
<path d="M402.447 213.563C402.282 217.429 400.23 219.546 396.491 219.612C392.606 219.682 390.581 217.182 390.572 213.598C390.564 210.07 392.775 207.745 396.399 207.725C400.077 207.706 402.267 209.754 402.447 213.563Z" fill="#D9534F"/>
</svg>
