<svg width="393" height="399" viewBox="0 0 393 399" fill="none" xmlns="http://www.w3.org/2000/svg">
<path d="M206.027 314.711C198.971 314.437 190.883 311.377 183.204 307.19C180.4 305.661 179.668 302.942 181.335 300.053C182.959 297.239 185.549 296.69 188.319 298.077C193.764 300.804 199.3 303.078 205.398 303.981C214.448 305.32 219.433 300.032 217.328 291.18C216.116 286.083 213.601 281.561 211.412 276.886C209.765 273.369 209.23 269.768 213.402 267.819C217.494 265.906 219.409 268.787 221.089 272.121C224.403 278.698 227.294 285.41 228.329 292.743C230.071 305.09 220.865 314.91 206.027 314.711Z" fill="#B12F53"/>
<path d="M358.506 257.675C376.66 263.303 395.555 276.893 412.602 293.129C418.828 299.059 418.837 306.637 412.49 312.987C406.307 319.172 399.192 318.795 392.957 313.258C380.701 302.375 367.89 292.606 352.664 286.011C330.07 276.226 313.425 286.501 312.733 310.98C312.333 325.077 315.72 338.586 318.155 352.267C319.987 362.556 318.868 372.29 306.663 374.453C294.693 376.575 291.722 367.752 289.676 357.911C285.641 338.505 282.8 319.04 285.219 299.253C289.292 265.94 320.065 246.822 358.506 257.675Z" fill="#83CBAA"/>
<path d="M344.752 217.378C342.388 217.42 340.572 216.394 339.414 214.38C338.198 212.265 338.227 210.017 339.635 208.035C342.874 203.475 346.147 198.934 349.592 194.53C351.717 191.812 354.631 191.133 357.619 193.051C360.446 194.865 361.56 197.848 359.77 200.667C356.464 205.876 352.667 210.781 348.929 215.702C347.998 216.928 346.391 217.421 344.752 217.378Z" fill="#75E2FF"/>
<path d="M315.564 7.64362C315.658 4.6445 316.936 2.68631 319.251 1.50643C321.709 0.25363 324.215 0.524176 326.22 2.36454C329.9 5.74198 333.529 9.19497 336.935 12.8445C339.106 15.1705 339.209 18.0903 337.277 20.6625C335.38 23.1893 332.481 24.2465 329.736 22.6788C324.219 19.5286 320.195 14.6167 316.202 9.77515C315.707 9.17438 315.709 8.16355 315.564 7.64362Z" fill="#B12F53"/>
<path d="M54.6975 306.02C51.6894 306.093 49.9183 305.09 48.7585 303.021C47.4021 300.601 47.3715 298.041 49.1706 296.027C52.6675 292.114 56.3102 288.298 60.1959 284.777C62.4442 282.74 65.3788 282.831 67.8052 284.784C70.0783 286.616 71.2106 289.335 69.6509 291.896C66.3204 297.364 61.6717 301.727 56.5379 305.529C55.9102 305.994 54.9184 305.966 54.6975 306.02Z" fill="#83CBAA"/>
<path d="M389.803 59.4232C389.604 63.2302 387.418 65.5065 383.639 65.5255C379.643 65.5456 377.422 62.8783 377.39 59.0544C377.359 55.2537 379.756 52.7946 383.54 52.8326C387.412 52.8717 389.611 55.2886 389.803 59.4232Z" fill="#D9534F"/>
</svg>
