<svg width="183" height="152" viewBox="0 0 183 152" fill="none" xmlns="http://www.w3.org/2000/svg">
<path d="M81.0822 13.1818C84.1943 13.3027 87.7614 14.6523 91.1482 16.4993C92.3852 17.1738 92.708 18.3729 91.9727 19.6472C91.2564 20.8883 90.1141 21.1304 88.8925 20.5185C86.491 19.3157 84.049 18.3128 81.3594 17.9147C77.3682 17.3241 75.1693 19.6563 76.0979 23.5603C76.6325 25.8084 77.7415 27.8031 78.7072 29.8652C79.4336 31.4161 79.6693 33.0043 77.8291 33.8642C76.0245 34.7077 75.1801 33.4373 74.4389 31.9665C72.9771 29.066 71.702 26.1056 71.2457 22.871C70.4776 17.4254 74.5375 13.0943 81.0822 13.1818Z" fill="#FFAD0D"/>
<path d="M13.8301 38.3381C5.82329 35.8559 -2.5107 29.8621 -10.0292 22.7007C-12.7754 20.0854 -12.7793 16.743 -9.97999 13.9423C-7.25282 11.2145 -4.11444 11.3808 -1.36479 13.8228C4.04111 18.6228 9.6912 22.9314 16.4067 25.8401C26.3719 30.1561 33.7134 25.6244 34.0188 14.8275C34.195 8.61021 32.7014 2.6518 31.6271 -3.38216C30.8191 -7.92027 31.3126 -12.2138 36.6959 -13.1676C41.9755 -14.1033 43.2858 -10.2122 44.188 -5.8718C45.9679 2.68748 47.2208 11.2725 46.1538 19.9999C44.3573 34.6928 30.7846 43.125 13.8301 38.3381Z" fill="#F64C4C"/>
<path d="M19.8966 56.1115C20.939 56.0931 21.74 56.5454 22.2508 57.4336C22.7873 58.3667 22.7745 59.3581 22.1534 60.2322C20.7248 62.2432 19.2811 64.2462 17.7619 66.1887C16.8243 67.3875 15.5393 67.687 14.2212 66.841C12.9746 66.0409 12.4831 64.7254 13.2727 63.4818C14.7309 61.1845 16.4053 59.0208 18.0541 56.8505C18.4647 56.3098 19.1737 56.0926 19.8966 56.1115Z" fill="#75E2FF"/>
<path d="M32.7699 148.616C32.7287 149.939 32.1649 150.803 31.144 151.323C30.0601 151.876 28.9547 151.756 28.0703 150.944C26.4471 149.455 24.8465 147.932 23.3443 146.322C22.387 145.296 22.3415 144.009 23.1933 142.874C24.0299 141.76 25.3087 141.293 26.5196 141.985C28.9528 143.374 30.7275 145.541 32.4886 147.676C32.707 147.941 32.7061 148.387 32.7699 148.616Z" fill="#FFAD0D"/>
<path d="M147.827 17.0152C149.154 16.9832 149.935 17.4253 150.446 18.3382C151.045 19.4055 151.058 20.5347 150.265 21.4228C148.722 23.1487 147.116 24.8316 145.402 26.3846C144.41 27.283 143.116 27.2432 142.046 26.3813C141.043 25.5736 140.544 24.3743 141.232 23.2448C142.701 20.8332 144.751 18.9087 147.015 17.2319C147.292 17.0268 147.73 17.0389 147.827 17.0152Z" fill="#F64C4C"/>
<path d="M0.0263672 125.778C0.114226 124.099 1.07836 123.095 2.74535 123.087C4.50765 123.078 5.48737 124.254 5.50112 125.941C5.51487 127.617 4.45777 128.702 2.78892 128.685C1.08114 128.668 0.110963 127.602 0.0263672 125.778Z" fill="#47B881"/>
<path d="M182.432 69.9786C182.359 71.6838 181.454 72.6174 179.805 72.6467C178.091 72.6773 177.198 71.5747 177.194 69.9942C177.191 68.4379 178.166 67.4127 179.764 67.4039C181.386 67.3952 182.352 68.2988 182.432 69.9786Z" fill="#47B881"/>
</svg>
