<svg width="104" height="24" viewBox="0 0 104 24" fill="none" xmlns="http://www.w3.org/2000/svg">
<path d="M0.615234 1.79739H11.8805V4.09889H5.4184V8.92301H10.9436V11.1297H5.4184V18.7337H0.615234V1.79739Z" fill="#2B3990"/>
<path d="M17.6615 3.62517C17.0917 4.00986 16.4003 4.17815 15.7147 4.09901C14.9987 4.18113 14.2757 4.02212 13.6627 3.64773C13.4123 3.47013 13.216 3.22814 13.0952 2.94808C12.9743 2.66802 12.9335 2.36061 12.9772 2.05925C12.9343 1.76482 12.9718 1.46442 13.0859 1.18911C13.2 0.91381 13.3865 0.673601 13.6261 0.493331C14.2014 0.120778 14.8883 -0.0464106 15.573 0.0194931C16.2887 -0.0587605 17.0105 0.0999755 17.625 0.470767C17.8769 0.644798 18.0746 0.884902 18.1958 1.16399C18.3169 1.44307 18.3566 1.75003 18.3105 2.05022C18.3499 2.34577 18.3107 2.64634 18.197 2.92245C18.0832 3.19857 17.8987 3.44073 17.6615 3.62517ZM13.3885 5.25878L18.0271 4.64505V18.7338H13.3702L13.3885 5.25878Z" fill="#2B3990"/>
<path d="M24.777 18.7336H20.1201V5.31277L24.777 4.62683V6.02578L25.2843 5.59707C25.6399 5.33231 26.0305 5.11672 26.4451 4.95626C26.8143 4.84179 27.2014 4.79439 27.5876 4.81637C27.7927 4.81533 27.9974 4.83042 28.2 4.86149C28.4202 4.89912 28.635 4.96276 28.8398 5.05103L29.0775 5.1458V9.55474L27.4185 8.60706C27.1925 8.47932 26.9516 8.3793 26.701 8.30922C26.4524 8.23955 26.1988 8.18827 25.9424 8.15579C25.7197 8.12476 25.4954 8.10518 25.2706 8.09713H24.8502C24.8045 8.09713 24.777 8.09713 24.777 8.11969V18.7336Z" fill="#2B3990"/>
<path d="M30.1109 15.4124L30.641 15.7193C31.0583 15.9251 31.487 16.1074 31.9252 16.2653C32.2862 16.3917 32.6701 16.509 33.0768 16.6128C33.4426 16.7077 33.8184 16.7592 34.1965 16.7662C34.4188 16.7672 34.6402 16.7384 34.8546 16.6805C35.0576 16.6319 35.2518 16.5528 35.4304 16.4458C35.5861 16.3549 35.7214 16.2336 35.828 16.0893C35.9258 15.96 35.9684 15.798 35.9469 15.638C35.9509 15.5062 35.9387 15.3743 35.9103 15.2454C35.8721 15.1168 35.8031 14.9992 35.7092 14.9025C35.5549 14.7365 35.3851 14.5854 35.2019 14.4512C34.978 14.2887 34.6672 14.0721 34.2879 13.8014L32.7295 12.7589C32.3129 12.4894 31.9186 12.1876 31.5504 11.8564C31.254 11.5878 30.9915 11.2848 30.7689 10.9538C30.5714 10.6615 30.4261 10.3379 30.3394 9.99712C30.2431 9.64676 30.1909 9.28603 30.184 8.92308C30.1762 8.33953 30.2946 7.76105 30.5313 7.22629C30.7526 6.72851 31.0799 6.28367 31.491 5.92211C31.9233 5.55345 32.4271 5.27554 32.9717 5.10531C33.5842 4.90972 34.2247 4.8137 34.8683 4.82101H35.5858C35.828 4.82101 36.1022 4.85259 36.4039 4.89321C36.7055 4.93382 37.0574 4.98346 37.4504 5.04664C37.8434 5.10982 38.2959 5.20008 38.8214 5.30838L39.6852 5.49792V7.87162L39.1596 7.655C38.6752 7.48352 38.2456 7.34814 37.9211 7.25337C37.5967 7.1586 37.2082 7.06835 36.8152 6.98261C36.4725 6.89987 36.1214 6.85596 35.7686 6.85174C35.4284 6.84458 35.0939 6.93895 34.8089 7.1225C34.6819 7.201 34.579 7.31227 34.5114 7.44429C34.4437 7.57631 34.4138 7.72407 34.425 7.87162C34.417 7.99333 34.417 8.11543 34.425 8.23715C34.445 8.34785 34.4956 8.45094 34.5713 8.53499C34.6808 8.65649 34.8051 8.76411 34.9414 8.85539C35.1105 8.97272 35.3573 9.13518 35.6772 9.33826V9.37436L37.3133 10.3852C37.7673 10.6716 38.2009 10.9882 38.6112 11.3329C38.9344 11.6031 39.2202 11.9141 39.4612 12.258C39.67 12.5656 39.8245 12.9058 39.9183 13.2643C40.1669 14.2677 40.0869 15.3232 39.6898 16.2788C39.46 16.8214 39.1175 17.3103 38.6843 17.7139C38.2268 18.1157 37.6922 18.4226 37.1122 18.6164C36.4703 18.8366 35.7946 18.945 35.1151 18.9368C34.4136 18.922 33.7147 18.8465 33.0266 18.7112C32.1765 18.5638 31.2793 18.3713 30.3348 18.1336L30.0469 18.0614L30.1109 15.4124Z" fill="#2B3990"/>
<path d="M46.8786 15.2093C46.8939 15.383 46.9756 15.5443 47.1071 15.6606C47.2623 15.7699 47.4432 15.8382 47.6327 15.8592C47.9475 15.9068 48.2649 15.9354 48.5833 15.9449C48.6957 15.9558 48.809 15.9558 48.9214 15.9449C49.0174 15.9449 49.1591 15.9178 49.351 15.8863L49.808 15.8411V18.0704C49.3922 18.1968 49.1362 18.269 49.0403 18.2825L48.0531 18.5443C47.7195 18.6255 47.4362 18.6887 47.2122 18.7338C46.9883 18.7789 46.7872 18.8195 46.6135 18.8421C46.4399 18.8647 46.2662 18.8872 46.1063 18.9008C45.9463 18.9143 45.7726 18.9233 45.5807 18.9233C45.132 18.9835 44.6753 18.9424 44.2449 18.8033C43.8145 18.6642 43.4217 18.4307 43.0958 18.1202C42.7699 17.8097 42.5195 17.4304 42.3634 17.0106C42.2072 16.5909 42.1494 16.1417 42.1943 15.6967V7.70466H40.8232V5.47537L42.4365 4.90676C42.6253 4.83536 42.7989 4.72976 42.9483 4.59538C43.09 4.48178 43.2201 4.35482 43.3368 4.21631L43.4922 4.02678L44.8358 2.15399H46.8283V4.95189H49.7852V7.70466H46.8283V14.3925C46.824 14.6657 46.8408 14.9387 46.8786 15.2093Z" fill="#2B3990"/>
<path d="M55.7397 14.8438L56.343 15.1506C56.9188 15.4033 57.4169 15.6019 57.842 15.7553C58.267 15.9088 58.7194 16.0396 59.213 16.1615C59.652 16.2736 60.1032 16.3327 60.5566 16.3375C60.814 16.3368 61.0699 16.2972 61.3152 16.2201C61.5531 16.1453 61.777 16.0325 61.9779 15.8862C62.1633 15.7482 62.3187 15.5748 62.4349 15.3763C62.5544 15.1811 62.6088 14.9538 62.5903 14.7264C62.5928 14.5752 62.5806 14.4241 62.5537 14.2752C62.5232 14.1308 62.4573 13.996 62.3618 13.8826C62.2183 13.7128 62.054 13.5612 61.8728 13.4313C61.6443 13.2598 61.3335 13.0387 60.9588 12.7679L58.9159 11.369C58.4342 11.0363 57.9761 10.6714 57.5449 10.2769C57.1962 9.95613 56.8892 9.59384 56.6309 9.19833C56.3956 8.83624 56.2184 8.44048 56.1053 8.02502C55.9879 7.58325 55.931 7.12791 55.9362 6.6712C55.9298 5.96503 56.0633 5.26443 56.3293 4.60887C56.5835 3.9954 56.9595 3.4384 57.4352 2.97075C57.9199 2.50718 58.491 2.14089 59.117 1.89221C59.7849 1.62632 60.4992 1.49291 61.2193 1.4996C61.988 1.52034 62.7531 1.61251 63.5043 1.77488C64.4183 1.95538 65.407 2.18102 66.4703 2.45179L66.7582 2.52399V5.27225L66.2326 5.03759C65.7025 4.83 65.2455 4.66303 64.8616 4.53667C64.4777 4.41031 64.071 4.2975 63.6368 4.1937C63.25 4.08307 62.851 4.01942 62.4486 4.00417C61.9525 3.99333 61.4679 4.15283 61.0776 4.45544C60.8935 4.58988 60.7465 4.76768 60.6499 4.97263C60.5533 5.17757 60.5102 5.40314 60.5246 5.62875C60.5226 5.79257 60.5395 5.95608 60.5749 6.11613C60.6118 6.26094 60.6822 6.39533 60.7805 6.50874C60.9166 6.6663 61.0699 6.80856 61.2375 6.93293C61.4952 7.13792 61.7637 7.32923 62.0419 7.50605L64.4183 9.09454C64.8685 9.38934 65.2948 9.71826 65.6934 10.0783C66.0271 10.3803 66.3204 10.723 66.5663 11.0982C66.798 11.4518 66.9694 11.8405 67.0735 12.2489C67.1824 12.6997 67.2346 13.162 67.2289 13.6253C67.2291 14.3562 67.0734 15.0789 66.7719 15.7463C66.4838 16.3943 66.0672 16.9789 65.5469 17.4656C65.0265 17.9523 64.4128 18.3313 63.7419 18.5803C63.0134 18.8581 62.2378 18.996 61.4569 18.9865C60.752 18.9773 60.049 18.9124 59.3547 18.7924C58.3831 18.6295 57.4241 18.4003 56.4846 18.1065L55.6895 17.8673L55.7397 14.8438Z" fill="#2B3990"/>
<path d="M74.2345 15.2094C74.2498 15.383 74.3315 15.5444 74.463 15.6607C74.6199 15.77 74.8023 15.8383 74.9931 15.8592C75.3079 15.9069 75.6254 15.9355 75.9437 15.945C76.0546 15.9558 76.1664 15.9558 76.2773 15.945C76.3733 15.945 76.5195 15.9179 76.7343 15.8863L77.1685 15.8412V18.0705C76.748 18.1968 76.4921 18.269 76.3961 18.2826L75.4136 18.5443C75.0754 18.6255 74.7966 18.6887 74.5727 18.7338C74.3487 18.779 74.1477 18.8196 73.9694 18.8421C73.7912 18.8647 73.6267 18.8873 73.4667 18.9008C73.3068 18.9143 73.1285 18.9234 72.9366 18.9234C72.488 18.9826 72.0317 18.941 71.6017 18.8015C71.1718 18.6621 70.7793 18.4285 70.4536 18.1182C70.128 17.808 69.8775 17.429 69.7211 17.0097C69.5646 16.5903 69.5062 16.1415 69.5501 15.6968V7.7047H68.2065V5.47541L69.8152 4.9068C70.0054 4.83552 70.1805 4.72994 70.3316 4.59542C70.4731 4.48312 70.6018 4.35603 70.7155 4.21635L70.8709 4.02682L72.2419 2.13147H74.2345V4.92937H77.1913V7.68214H74.2345V14.3926C74.2139 14.6645 74.2139 14.9375 74.2345 15.2094Z" fill="#2B3990"/>
<path d="M87.4104 15.8862C87.7151 15.8561 88.1356 15.7929 88.6718 15.6966L89.0557 15.6244L89.4121 17.9485L88.5712 18.138L87.1317 18.4945C86.5028 18.657 85.865 18.7836 85.2214 18.8736C84.7242 18.9364 84.2236 18.968 83.7224 18.9684C82.8887 18.9815 82.0616 18.82 81.2957 18.4945C80.5817 18.1827 79.9454 17.7207 79.4311 17.1407C78.8977 16.528 78.4909 15.8182 78.2337 15.0513C77.9429 14.1872 77.8008 13.2812 77.8133 12.3707C77.8021 11.3335 77.9563 10.301 78.2703 9.3111C78.5415 8.43499 78.9857 7.62058 79.5773 6.91483C80.1396 6.24908 80.8454 5.71565 81.643 5.35342C82.4848 4.98161 83.399 4.79675 84.3211 4.8119C85.0505 4.80524 85.7751 4.92908 86.4599 5.17743C87.1028 5.41456 87.6782 5.80161 88.1371 6.30561C88.3788 6.55172 88.6046 6.81246 88.8135 7.08632C89.0104 7.34998 89.1645 7.64229 89.2705 7.95276C89.3895 8.32339 89.4737 8.70407 89.5218 9.08997C89.5818 9.62186 89.6093 10.1568 89.6041 10.692V11.5223L82.5433 12.2805C82.6184 13.3078 83.0605 14.2754 83.7909 15.0107C84.5571 15.623 85.5204 15.9433 86.5056 15.9132C86.8075 15.9192 87.1095 15.9102 87.4104 15.8862ZM85.0706 9.46002C85.0773 9.04813 85.0528 8.63633 84.9974 8.22804C84.9687 7.96823 84.8961 7.71502 84.7826 7.47892C84.7074 7.31928 84.5804 7.18904 84.4216 7.10888C84.2626 7.04295 84.0913 7.01066 83.9189 7.01411C83.6991 7.00651 83.4819 7.0622 83.2937 7.17438C83.1054 7.28655 82.9543 7.45038 82.8586 7.6459C82.6027 8.09717 82.4747 8.89141 82.4747 10.0737V10.1685L85.0706 9.82555V9.46002Z" fill="#2B3990"/>
<path d="M91.2676 24V5.2135L95.9291 4.6449V5.76406C96.0567 5.68748 96.1896 5.61963 96.3267 5.56098L96.7837 5.36242C97.201 5.1838 97.6301 5.03304 98.0679 4.91115C98.4026 4.829 98.7467 4.78956 99.0916 4.79382C99.7958 4.79397 100.488 4.97266 101.102 5.31278C101.722 5.63949 102.257 6.10275 102.665 6.6666C103.111 7.2926 103.444 7.99044 103.648 8.72892C103.889 9.57 104.007 10.4407 104 11.3147C104.001 12.3452 103.821 13.368 103.47 14.3383C103.16 15.2245 102.684 16.0451 102.067 16.7571C101.473 17.4339 100.743 17.9811 99.9233 18.3636C99.0649 18.7577 98.1279 18.9566 97.1813 18.9458C96.9735 18.9483 96.7658 18.9363 96.5597 18.9097C96.3632 18.8871 96.1576 18.851 95.9336 18.8059V24H91.2676ZM98.2598 15.3762C98.7838 14.6842 99.0474 13.5861 99.0504 12.0819C99.0535 10.5776 98.8174 9.49759 98.3421 8.84174C98.1025 8.51618 97.7854 8.25401 97.4187 8.07846C97.0519 7.90292 96.647 7.81943 96.2398 7.8354C96.1358 7.83303 96.0317 7.84059 95.9291 7.85797V16.4547H96.025C96.4581 16.4669 96.8877 16.3751 97.2769 16.1872C97.6662 15.9993 98.0034 15.721 98.2598 15.3762Z" fill="#2B3990"/>
</svg>
