<svg width="24" height="24" viewBox="0 0 24 24" fill="none" xmlns="http://www.w3.org/2000/svg">
<path d="M15.6279 9.8776C15.6263 10.0336 15.61 10.1879 15.5954 10.3431C15.5905 10.3943 15.5889 10.4463 15.5881 10.4974C15.5865 10.586 15.6572 10.6664 15.7457 10.6607C15.7879 10.6583 15.831 10.6469 15.8716 10.6331C16.0073 10.5852 16.1413 10.534 16.2762 10.4828C16.398 10.4357 16.5223 10.3935 16.6482 10.3593C16.7855 10.322 16.9228 10.2943 17.0626 10.3171C17.3469 10.3634 17.5321 10.6697 17.4281 10.9386C17.3989 11.0141 17.3542 11.0791 17.3006 11.1392C17.2267 11.2213 17.143 11.2911 17.052 11.3529C16.9448 11.4252 16.8367 11.4959 16.7287 11.5673C16.5483 11.6859 16.368 11.8037 16.1884 11.924C16.1137 11.9735 16.0414 12.0263 15.9707 12.0807C15.9317 12.1108 15.8952 12.1457 15.8619 12.1823C15.7985 12.253 15.7636 12.3432 15.7693 12.4374C15.7749 12.5373 15.792 12.6348 15.8196 12.7306C15.9049 13.0296 16.0357 13.3074 16.1941 13.5731C16.619 14.2823 17.221 14.8363 17.9375 15.2888C18.1341 15.4131 18.3445 15.513 18.5516 15.6203C18.5809 15.6357 18.6093 15.6511 18.6378 15.6682C18.6662 15.6853 18.6914 15.708 18.7101 15.7356C18.7393 15.7771 18.7434 15.8209 18.7182 15.8664C18.6971 15.9054 18.6662 15.9355 18.6329 15.9631C18.5955 15.994 18.5549 16.02 18.5126 16.0435C18.2706 16.1808 18.0106 16.2832 17.7417 16.3547C17.6117 16.3896 17.4817 16.4262 17.3526 16.4643C17.273 16.4879 17.1982 16.5228 17.1243 16.561C17 16.6252 16.9293 16.7284 16.9033 16.8624C16.8887 16.9371 16.8798 17.0135 16.866 17.0882C16.8318 17.2775 16.7636 17.3466 16.5784 17.3791C16.5134 17.3904 16.4468 17.3969 16.381 17.401C16.2152 17.4099 16.0495 17.4148 15.8838 17.4237C15.8789 17.4237 15.874 17.4237 15.87 17.4237C15.2079 17.4627 14.5678 17.6748 13.9999 18.0176C13.9698 18.0355 13.9398 18.0541 13.9089 18.072C13.679 18.2109 13.4451 18.3433 13.194 18.4408C12.9138 18.5497 12.6246 18.6139 12.3248 18.6415C12.0721 18.6642 11.8203 18.661 11.5693 18.6326C11.1931 18.5903 10.8365 18.4806 10.4994 18.3084C10.3426 18.228 10.1915 18.1386 10.042 18.0468C10.0339 18.042 10.0258 18.0371 10.0168 18.0314C9.42055 17.6683 8.74221 17.4481 8.04438 17.4197C8.03951 17.4197 8.03464 17.4197 8.02977 17.4197C7.88354 17.414 7.73812 17.4083 7.59189 17.3994C7.5066 17.3945 7.4213 17.3831 7.33762 17.3604C7.2312 17.3311 7.15402 17.2377 7.13371 17.1297C7.12234 17.0704 7.1134 17.0111 7.10284 16.9518C7.10041 16.9388 7.1004 16.925 7.09796 16.912C7.07359 16.7381 6.98748 16.6106 6.82419 16.5366C6.72427 16.4911 6.62192 16.4546 6.51631 16.4253C6.33434 16.375 6.15074 16.3303 5.97283 16.2661C5.81604 16.2101 5.66494 16.1434 5.51953 16.0638C5.47566 16.0403 5.43341 16.0135 5.39279 15.9858C5.36517 15.9672 5.33918 15.946 5.31643 15.9225C5.24332 15.8461 5.25063 15.7462 5.33349 15.6812C5.38142 15.643 5.43747 15.6178 5.4919 15.591C5.87128 15.405 6.23117 15.1873 6.56587 14.9289C7.07116 14.5398 7.49928 14.0792 7.82342 13.5243C7.93878 13.3253 8.03463 13.1157 8.11343 12.8996C8.16543 12.7567 8.20767 12.6137 8.21823 12.4634C8.22554 12.3529 8.18817 12.2432 8.11262 12.1628C8.05819 12.1051 7.99483 12.0588 7.93065 12.0125C7.83479 11.9443 7.73812 11.8769 7.64064 11.8127C7.43104 11.6746 7.22064 11.5389 7.01104 11.4016C6.91925 11.3415 6.83069 11.2765 6.75108 11.201C6.6934 11.1457 6.64141 11.0864 6.59998 11.0174C6.51387 10.8728 6.50737 10.7241 6.57155 10.5714C6.60973 10.4804 6.68122 10.4032 6.77059 10.3618C6.89813 10.3033 7.03136 10.296 7.1654 10.3179C7.31 10.3415 7.44891 10.3861 7.5862 10.4357C7.72674 10.4861 7.86485 10.5413 8.00458 10.5941C8.06957 10.6185 8.13537 10.6429 8.20442 10.6534C8.22067 10.6559 8.23692 10.6607 8.25317 10.6599C8.33359 10.6575 8.4002 10.6315 8.39939 10.5234C8.39939 10.4714 8.39777 10.4186 8.39533 10.3666C8.38315 10.1067 8.36771 9.84672 8.36121 9.58676C8.34659 8.96773 8.34902 8.34627 8.51069 7.74512C8.6098 7.37711 8.78121 7.0351 9.01274 6.73127C9.49285 6.10006 10.1265 5.69955 10.8844 5.4859C11.2988 5.36891 11.722 5.33073 12.1509 5.34373C12.5563 5.35592 12.9601 5.42498 13.3435 5.55821C13.7984 5.71743 14.2119 5.94813 14.5637 6.27552C14.9634 6.64759 15.2713 7.08222 15.4386 7.60864C15.5142 7.84667 15.5621 8.09038 15.5913 8.33734C15.6523 8.84832 15.6352 9.36255 15.6303 9.87597L15.6279 9.8776Z" fill="#FFFA00"/>
<path d="M11.9917 18.9964C11.8389 18.9964 11.6846 18.9875 11.5319 18.9704C11.1208 18.9241 10.7211 18.8031 10.3458 18.6106C10.1785 18.5244 10.016 18.4286 9.8657 18.3368L9.84132 18.3222C9.27916 17.9793 8.65282 17.7852 8.03135 17.76H8.01673C7.88757 17.7543 7.73239 17.7478 7.57317 17.7389C7.45375 17.7316 7.34733 17.7153 7.24903 17.6885C7.02238 17.6268 6.84691 17.4326 6.80141 17.1946C6.79248 17.1499 6.78517 17.1044 6.77786 17.0597L6.76974 17.0102C6.7673 16.9956 6.76567 16.9793 6.76405 16.9639C6.75349 16.8891 6.73237 16.8688 6.68606 16.8477C6.6032 16.8103 6.51546 16.7786 6.4261 16.7535C6.38385 16.7413 6.34161 16.7299 6.29856 16.7185C6.15558 16.6803 6.00773 16.6397 5.85906 16.5869C5.68359 16.5244 5.51462 16.4488 5.35702 16.3635C5.30503 16.3351 5.25303 16.3034 5.20185 16.2685C5.15392 16.2352 5.11006 16.1994 5.07187 16.1596C4.96952 16.0532 4.91833 15.9175 4.92727 15.777C4.93702 15.6364 5.00607 15.5089 5.12143 15.4163C5.19292 15.3594 5.2644 15.3253 5.32208 15.2969L5.34158 15.2871C5.71283 15.1052 6.05403 14.8947 6.35786 14.6608C6.85747 14.2757 7.24092 13.8484 7.52931 13.3537C7.62842 13.1839 7.71778 12.9914 7.79333 12.7834C7.84613 12.6388 7.87131 12.5364 7.87781 12.4414C7.87862 12.4235 7.87375 12.4064 7.86401 12.3967C7.8307 12.3618 7.78277 12.326 7.73159 12.2903C7.62923 12.2172 7.53742 12.1538 7.45131 12.0978C7.32296 12.0133 7.19379 11.9296 7.06544 11.8459L6.82254 11.6875C6.69905 11.6063 6.60076 11.5307 6.51465 11.4495C6.42773 11.3674 6.35948 11.2837 6.30587 11.1936C6.16451 10.958 6.14745 10.698 6.25631 10.4413C6.3278 10.2715 6.46266 10.131 6.62595 10.0554C6.80386 9.97338 7.0037 9.94983 7.21816 9.98558C7.39851 10.0156 7.5618 10.0701 7.69909 10.1196C7.79333 10.1537 7.88593 10.1895 7.97936 10.2252C8.0021 10.2342 8.02486 10.2431 8.0476 10.2512L8.04435 10.1862C8.0346 9.99451 8.02485 9.79548 8.01998 9.59807C8.00535 8.9758 8.00536 8.3137 8.18083 7.65974C8.28969 7.25355 8.47816 6.87337 8.74056 6.52892C9.24748 5.86277 9.93719 5.40296 10.7902 5.1625C11.2142 5.04308 11.6627 4.99272 12.159 5.00734C12.6148 5.02116 13.0502 5.09995 13.4531 5.2413C13.9763 5.42408 14.4264 5.68973 14.7919 6.03011C15.2672 6.47286 15.5832 6.95705 15.7587 7.50865C15.8358 7.75236 15.8903 8.01151 15.9252 8.2999C15.9813 8.76783 15.9748 9.23493 15.9691 9.68661L15.9666 9.88159C15.965 10.0067 15.9553 10.1277 15.9447 10.2455C16.0154 10.2187 16.0861 10.1919 16.1535 10.1659C16.3005 10.1099 16.4329 10.066 16.558 10.0319C16.7181 9.988 16.909 9.94821 17.1161 9.98233C17.3558 10.0213 17.5646 10.1667 17.688 10.3812C17.8091 10.5916 17.8294 10.8394 17.7449 11.0603C17.7035 11.1676 17.6409 11.2675 17.5532 11.365C17.4655 11.4625 17.3639 11.5502 17.2421 11.6331C17.1584 11.6899 17.0739 11.7452 16.9894 11.8012L16.7376 11.967C16.6173 12.0458 16.4963 12.1254 16.3769 12.205C16.3127 12.248 16.2453 12.296 16.1778 12.3488C16.1567 12.365 16.1348 12.3853 16.1137 12.4089C16.1088 12.4146 16.1072 12.4178 16.1072 12.4186C16.1112 12.4901 16.1234 12.5624 16.1453 12.6372C16.2177 12.8882 16.3281 13.1376 16.4849 13.3992C16.8562 14.0182 17.3899 14.543 18.1178 15.002C18.2591 15.0914 18.4103 15.1677 18.5703 15.2498C18.6158 15.2725 18.6613 15.2961 18.706 15.3196C18.7409 15.3375 18.775 15.357 18.8083 15.3765C18.879 15.4179 18.9391 15.4732 18.987 15.5414C19.0902 15.6884 19.1008 15.8704 19.0163 16.028C18.9651 16.1222 18.8961 16.1856 18.8489 16.2246C18.7872 16.2758 18.7263 16.3123 18.68 16.3383C18.4208 16.4854 18.1349 16.6007 17.8286 16.682C17.7141 16.712 17.593 16.7462 17.4492 16.7892C17.3915 16.8063 17.3314 16.8355 17.2802 16.8623C17.2583 16.8737 17.2453 16.8826 17.2364 16.9281C17.2291 16.9647 17.2242 17.0012 17.2185 17.0386C17.2128 17.076 17.2071 17.1125 17.2006 17.1491C17.1413 17.4781 16.9626 17.6576 16.636 17.7137C16.5621 17.7267 16.4825 17.7356 16.3996 17.7397C16.3176 17.7446 16.2355 17.7478 16.1527 17.7511C16.069 17.7543 15.9853 17.7576 15.9024 17.7624H15.8935C15.3013 17.7982 14.7083 17.9867 14.1745 18.3092L14.0835 18.3636C13.852 18.5033 13.5986 18.6487 13.3159 18.7584C13.0153 18.8754 12.692 18.9501 12.3548 18.981C12.2346 18.9916 12.1127 18.9972 11.9909 18.9972L11.9917 18.9964ZM7.46269 17.0419C7.50656 17.0516 7.55531 17.0573 7.61217 17.0605C7.76571 17.0695 7.91599 17.076 8.04272 17.08H8.05816C8.79499 17.1109 9.53343 17.3392 10.1939 17.7413L10.2199 17.7576C10.3791 17.855 10.5148 17.9347 10.6545 18.0062C10.9575 18.1613 11.2776 18.2588 11.6074 18.2953C11.8373 18.3213 12.068 18.3238 12.2947 18.3035C12.5725 18.2783 12.8268 18.2198 13.0713 18.1248C13.3053 18.0338 13.5279 17.9062 13.7342 17.7819L13.8252 17.7267C14.4532 17.3473 15.1534 17.1255 15.8513 17.0849H15.8651C15.9528 17.0792 16.0397 17.0752 16.1267 17.0719C16.2055 17.0687 16.2851 17.0654 16.3639 17.0613C16.4207 17.0581 16.4744 17.0524 16.5231 17.0443C16.5264 17.0443 16.5288 17.0435 16.532 17.0427C16.5329 17.0386 16.5337 17.0337 16.5353 17.0281C16.541 16.9972 16.545 16.9663 16.5499 16.9354C16.5572 16.8891 16.5637 16.8428 16.5727 16.7973C16.6198 16.5561 16.7579 16.37 16.9707 16.2595C17.0455 16.2206 17.1462 16.1718 17.2591 16.1385C17.4094 16.0938 17.5361 16.0581 17.6572 16.0264C17.8513 15.9752 18.0349 15.907 18.2047 15.8241C18.0569 15.7486 17.9058 15.6698 17.7579 15.5763C16.9382 15.0588 16.3322 14.4609 15.9049 13.7485C15.7172 13.4357 15.5832 13.1335 15.4946 12.8248C15.4597 12.7022 15.4386 12.5787 15.4321 12.4568C15.4223 12.2732 15.4857 12.0953 15.6116 11.9556C15.6596 11.902 15.7115 11.8532 15.7652 11.8126C15.8448 11.7509 15.9244 11.694 16.0016 11.642C16.1226 11.5608 16.2453 11.4803 16.3671 11.4007L16.619 11.235C16.701 11.1814 16.7823 11.1278 16.8635 11.0725C16.939 11.0213 17 10.9694 17.0503 10.9133C17.082 10.8776 17.1023 10.8475 17.1137 10.8174C17.1291 10.7768 17.1137 10.7386 17.1023 10.7199C17.0812 10.6834 17.0471 10.6582 17.0105 10.6525C16.9317 10.6395 16.8334 10.6615 16.7392 10.6875C16.636 10.7159 16.5247 10.7524 16.3988 10.8012C16.2672 10.8516 16.1267 10.9052 15.9853 10.9547C15.9081 10.9815 15.8375 10.997 15.7676 11.001C15.6344 11.0084 15.5019 10.9604 15.4045 10.867C15.3029 10.7695 15.2469 10.633 15.2493 10.4925C15.2501 10.4446 15.2517 10.3804 15.2582 10.3138L15.2639 10.2488C15.2761 10.1188 15.2875 9.99613 15.2891 9.8759L15.2915 9.6785C15.2972 9.22926 15.3029 8.80439 15.2525 8.38114C15.2233 8.1358 15.1778 7.91726 15.1136 7.71498C14.9747 7.27711 14.7188 6.8888 14.3313 6.52729C14.0307 6.24703 13.6709 6.03663 13.2305 5.88227C12.8934 5.76448 12.5262 5.69785 12.1403 5.68648C11.7139 5.67267 11.3328 5.71573 10.9762 5.81647C10.2581 6.01875 9.70403 6.38674 9.28241 6.94078C9.07363 7.21455 8.92415 7.51676 8.83804 7.83683C8.68613 8.40306 8.68613 9.0099 8.69994 9.58262C8.704 9.7711 8.71375 9.96525 8.72349 10.1529L8.73324 10.3544C8.73568 10.4112 8.73731 10.4681 8.73812 10.525C8.73975 10.802 8.54884 10.9937 8.26288 11.0027C8.21252 11.0027 8.17433 10.9962 8.15321 10.9921C8.04679 10.9759 7.95662 10.9417 7.88432 10.9149C7.83557 10.8962 7.78683 10.8776 7.73808 10.8589C7.64872 10.8248 7.55937 10.7906 7.47001 10.7581C7.36277 10.7192 7.23522 10.6769 7.10931 10.6558C7.00289 10.6387 6.94521 10.6574 6.91109 10.6728C6.90297 10.6769 6.88996 10.6891 6.88265 10.7061C6.85584 10.7695 6.86397 10.8036 6.88916 10.8459C6.91109 10.8824 6.94196 10.919 6.98258 10.958C7.03864 11.0108 7.10606 11.0628 7.19461 11.1205L7.43588 11.2781C7.56586 11.3625 7.69585 11.447 7.82501 11.5323C7.91844 11.5941 8.01673 11.6615 8.1264 11.7395C8.20195 11.7939 8.28319 11.8532 8.35793 11.9328C8.49684 12.0807 8.56915 12.283 8.55534 12.4893C8.54153 12.6956 8.48141 12.8809 8.43104 13.019C8.34087 13.2651 8.23526 13.4934 8.11584 13.6981C7.78683 14.2619 7.33514 14.7672 6.77217 15.201C6.47403 15.4309 6.14339 15.6405 5.78838 15.8241C5.88343 15.8704 5.98336 15.9127 6.08734 15.9492C6.21082 15.9931 6.33918 16.028 6.47566 16.0646C6.51953 16.0768 6.56421 16.0881 6.60808 16.1003C6.72993 16.1344 6.85016 16.1775 6.9647 16.2295C7.23035 16.3497 7.39364 16.5699 7.43507 16.8664C7.43669 16.8769 7.43751 16.8875 7.43832 16.8972V16.8956L7.44644 16.9484C7.45132 16.9801 7.457 17.0118 7.46269 17.0427V17.0419Z" fill="#1D1D1B"/>
<path d="M12.0264 24H11.9736C5.37142 24 0 18.6286 0 12.0264V11.9736C0 5.37143 5.37142 0 11.9736 0H12.0264C18.6286 0 24 5.37143 24 11.9736V12.0264C24 18.6286 18.6286 24 12.0264 24ZM11.9736 0.812375C5.81904 0.812375 0.812375 5.81905 0.812375 11.9736V12.0264C0.812375 18.181 5.81904 23.1876 11.9736 23.1876H12.0264C18.181 23.1876 23.1876 18.181 23.1876 12.0264V11.9736C23.1876 5.81905 18.181 0.812375 12.0264 0.812375H11.9736Z" fill="#FFFA00"/>
</svg>
