<svg width="36" height="36" viewBox="0 0 36 36" fill="none" xmlns="http://www.w3.org/2000/svg">
<path d="M29.9766 23.9062C29.9766 23.5625 29.8047 23.3516 29.4609 23.2734C28.4141 23.0391 27.4922 22.5781 26.6953 21.8906C25.8984 21.2031 25.2734 20.3594 24.8203 19.3594C24.7109 19.0625 24.6562 18.8672 24.6562 18.7734C24.6562 18.5391 24.8086 18.3359 25.1133 18.1641C25.418 17.9922 25.7539 17.8594 26.1211 17.7656C26.4883 17.6719 26.8242 17.5117 27.1289 17.2852C27.4336 17.0586 27.5859 16.7734 27.5859 16.4297C27.5859 16.1328 27.4414 15.8867 27.1523 15.6914C26.8633 15.4961 26.5625 15.3984 26.25 15.3984C26.0625 15.3984 25.8125 15.4609 25.5 15.5859C25.1875 15.7109 24.9453 15.7734 24.7734 15.7734C24.7109 15.7734 24.6172 15.7578 24.4922 15.7266C24.5703 14.2422 24.6094 13.3516 24.6094 13.0547C24.6094 11.8203 24.4766 10.9297 24.2109 10.3828C23.6484 9.16406 22.8438 8.21484 21.7969 7.53516C20.75 6.85547 19.5625 6.51562 18.2344 6.51562C15.125 6.51562 12.9766 7.80469 11.7891 10.3828C11.5234 10.9297 11.3906 11.8203 11.3906 13.0547C11.3906 13.3516 11.4297 14.2422 11.5078 15.7266C11.4453 15.7578 11.3359 15.7734 11.1797 15.7734C10.9922 15.7734 10.7422 15.7148 10.4297 15.5977C10.1172 15.4805 9.88281 15.4219 9.72656 15.4219C9.39844 15.4219 9.09766 15.5156 8.82422 15.7031C8.55078 15.8906 8.41406 16.1406 8.41406 16.4531C8.41406 16.7812 8.56641 17.0586 8.87109 17.2852C9.17578 17.5117 9.51172 17.6719 9.87891 17.7656C10.2461 17.8594 10.582 17.9922 10.8867 18.1641C11.1914 18.3359 11.3438 18.5391 11.3438 18.7734C11.3438 18.8672 11.2891 19.0625 11.1797 19.3594C10.1797 21.5156 8.63281 22.8203 6.53906 23.2734C6.19531 23.3516 6.02344 23.5625 6.02344 23.9062C6.02344 24.625 7.09375 25.1562 9.23438 25.5C9.26562 25.5781 9.3125 25.7812 9.375 26.1094C9.4375 26.4375 9.52734 26.6758 9.64453 26.8242C9.76172 26.9727 9.94531 27.0469 10.1953 27.0469C10.3828 27.0469 10.6758 27.0117 11.0742 26.9414C11.4727 26.8711 11.7812 26.8359 12 26.8359C12.5469 26.8359 13.0703 26.9531 13.5703 27.1875C14.0703 27.4219 14.4922 27.6758 14.8359 27.9492C15.1797 28.2227 15.6289 28.4766 16.1836 28.7109C16.7383 28.9453 17.3359 29.0625 17.9766 29.0625C18.6484 29.0625 19.2656 28.9453 19.8281 28.7109C20.3906 28.4766 20.8398 28.2227 21.1758 27.9492C21.5117 27.6758 21.9297 27.4219 22.4297 27.1875C22.9297 26.9531 23.4531 26.8359 24 26.8359C24.2188 26.8359 24.5273 26.8672 24.9258 26.9297C25.3242 26.9922 25.625 27.0234 25.8281 27.0234C26.0781 27.0234 26.2578 26.9453 26.3672 26.7891C26.4766 26.6328 26.5625 26.3984 26.625 26.0859C26.6875 25.7734 26.7344 25.5781 26.7656 25.5C28.9062 25.1562 29.9766 24.625 29.9766 23.9062ZM36 18C36 21.2656 35.1953 24.2773 33.5859 27.0352C31.9766 29.793 29.793 31.9766 27.0352 33.5859C24.2773 35.1953 21.2656 36 18 36C14.7344 36 11.7227 35.1953 8.96484 33.5859C6.20703 31.9766 4.02344 29.793 2.41406 27.0352C0.804688 24.2773 0 21.2656 0 18C0 14.7344 0.804688 11.7227 2.41406 8.96484C4.02344 6.20703 6.20703 4.02344 8.96484 2.41406C11.7227 0.804688 14.7344 0 18 0C21.2656 0 24.2773 0.804688 27.0352 2.41406C29.793 4.02344 31.9766 6.20703 33.5859 8.96484C35.1953 11.7227 36 14.7344 36 18Z" fill="#2B3990"/>
</svg>
