<svg width="25" height="24" viewBox="0 0 25 24" fill="none" xmlns="http://www.w3.org/2000/svg">
<g clip-path="url(#clip0_1_372)">
<path d="M11.4205 1.54523C11.9815 0.471251 13.5185 0.471249 14.0795 1.54523L16.7744 6.70405C16.9193 6.98144 17.1857 7.175 17.4943 7.22709L23.2333 8.19587C24.4281 8.39755 24.9031 9.85934 24.055 10.7248L19.9815 14.8819C19.7624 15.1054 19.6607 15.4186 19.7065 15.7282L20.5586 21.4857C20.736 22.6844 19.4925 23.5878 18.4074 23.0487L13.1949 20.4591C12.9146 20.3199 12.5853 20.3199 12.3051 20.4591L7.09262 23.0487C6.00748 23.5878 4.764 22.6844 4.9414 21.4857L5.79351 15.7282C5.83933 15.4186 5.73757 15.1054 5.51853 14.8819L1.44495 10.7248C0.596899 9.85934 1.07186 8.39755 2.26665 8.19587L8.00572 7.22709C8.31431 7.175 8.58072 6.98144 8.72563 6.70405L11.4205 1.54523Z" fill="#8E8E8E"/>
</g>
<defs>
<clipPath id="clip0_1_372">
<rect width="24" height="24" fill="white" transform="translate(0.75)"/>
</clipPath>
</defs>
</svg>
