<svg width="25" height="24" viewBox="0 0 25 24" fill="none" xmlns="http://www.w3.org/2000/svg">
<g clip-path="url(#clip0_1_370)">
<path d="M12.75 3.31964L15.0016 7.63007C15.4364 8.46224 16.2356 9.04292 17.1614 9.19919L21.9566 10.0086L18.553 13.4821C17.8959 14.1527 17.5906 15.0922 17.728 16.021L18.44 20.8317L14.0848 18.668C13.2439 18.2502 12.256 18.2502 11.4152 18.668L7.05998 20.8317L7.77196 16.021C7.90941 15.0922 7.60414 14.1527 6.94702 13.4821L3.54336 10.0086L8.33862 9.19919C9.2644 9.04292 10.0636 8.46224 10.4983 7.63007L12.75 3.31964ZM14.0795 1.54523C13.5185 0.471249 11.9815 0.471251 11.4205 1.54523L8.72563 6.70405C8.58072 6.98144 8.31431 7.175 8.00572 7.22709L2.26665 8.19587C1.07186 8.39755 0.596899 9.85934 1.44495 10.7248L5.51853 14.8819C5.73757 15.1054 5.83933 15.4186 5.79351 15.7282L4.9414 21.4857C4.764 22.6844 6.00748 23.5878 7.09262 23.0487L12.3051 20.4591C12.5853 20.3199 12.9146 20.3199 13.1949 20.4591L18.4074 23.0487C19.4925 23.5878 20.736 22.6844 20.5586 21.4857L19.7065 15.7282C19.6607 15.4186 19.7624 15.1054 19.9815 14.8819L24.055 10.7248C24.9031 9.85934 24.4281 8.39755 23.2333 8.19587L17.4943 7.22709C17.1857 7.175 16.9193 6.98144 16.7744 6.70405L14.0795 1.54523Z" fill="#8E8E8E"/>
</g>
<defs>
<clipPath id="clip0_1_370">
<rect width="24" height="24" fill="white" transform="translate(0.75)"/>
</clipPath>
</defs>
</svg>
