<svg width="10" height="11" viewBox="0 0 10 11" fill="none" xmlns="http://www.w3.org/2000/svg">
<path fill-rule="evenodd" clip-rule="evenodd" d="M2.80762 5C2.80762 4.37011 3.05784 3.76602 3.50324 3.32062C3.94864 2.87522 4.55273 2.625 5.18262 2.625C5.81251 2.625 6.4166 2.87522 6.862 3.32062C7.30739 3.76602 7.55762 4.37011 7.55762 5C7.55762 5.62989 7.30739 6.23398 6.862 6.67938C6.4166 7.12478 5.81251 7.375 5.18262 7.375C4.55273 7.375 3.94864 7.12478 3.50324 6.67938C3.05784 6.23398 2.80762 5.62989 2.80762 5ZM5.18262 3.375C4.75164 3.375 4.33832 3.5462 4.03357 3.85095C3.72882 4.1557 3.55762 4.56902 3.55762 5C3.55762 5.43098 3.72882 5.8443 4.03357 6.14905C4.33832 6.45379 4.75164 6.625 5.18262 6.625C5.61359 6.625 6.02692 6.45379 6.33167 6.14905C6.63641 5.8443 6.80762 5.43098 6.80762 5C6.80762 4.56902 6.63641 4.1557 6.33167 3.85095C6.02692 3.5462 5.61359 3.375 5.18262 3.375Z" fill="#3B82F6"/>
<path fill-rule="evenodd" clip-rule="evenodd" d="M0.94485 4.4285C1.03054 3.39199 1.50276 2.42556 2.2678 1.721C3.03284 1.01644 4.0348 0.625228 5.07485 0.625H5.29085C6.3309 0.625228 7.33286 1.01644 8.0979 1.721C8.86295 2.42556 9.33516 3.39199 9.42085 4.4285C9.51617 5.58317 9.15943 6.72973 8.42585 7.6265L6.02935 10.557C5.92679 10.6824 5.79764 10.7835 5.65125 10.8529C5.50485 10.9223 5.34486 10.9583 5.18285 10.9583C5.02084 10.9583 4.86085 10.9223 4.71445 10.8529C4.56806 10.7835 4.43891 10.6824 4.33635 10.557L1.93985 7.6265C1.20627 6.72973 0.849534 5.58317 0.94485 4.4285ZM5.07485 1.375C4.22316 1.37536 3.40271 1.69582 2.77625 2.27282C2.1498 2.84982 1.76309 3.64121 1.69285 4.49C1.61349 5.45095 1.91035 6.40517 2.52085 7.1515L4.91735 10.0825C4.94957 10.1219 4.99015 10.1537 5.03615 10.1755C5.08215 10.1973 5.13243 10.2087 5.18335 10.2087C5.23427 10.2087 5.28455 10.1973 5.33055 10.1755C5.37656 10.1537 5.41713 10.1219 5.44935 10.0825L7.84585 7.1515C8.45599 6.40502 8.75249 5.45081 8.67285 4.49C8.6026 3.64112 8.21583 2.84967 7.58926 2.27265C6.9627 1.69564 6.14213 1.37523 5.29035 1.375H5.07485Z" fill="#3B82F6"/>
</svg>
