<svg width="25" height="24" viewBox="0 0 25 24" fill="none" xmlns="http://www.w3.org/2000/svg">
<path d="M11.494 16.4706L18.1968 8.6507L16.6783 7.34912L11.381 13.5292L9.14462 11.2928L7.73041 12.707L11.494 16.4706Z" fill="#8E8E8E"/>
<path d="M23.4375 12C23.4375 18.0751 18.5126 23 12.4375 23C6.36237 23 1.4375 18.0751 1.4375 12C1.4375 5.92487 6.36237 1 12.4375 1C18.5126 1 23.4375 5.92487 23.4375 12ZM21.4375 12C21.4375 7.02944 17.4081 3 12.4375 3C7.46694 3 3.4375 7.02944 3.4375 12C3.4375 16.9706 7.46694 21 12.4375 21C17.4081 21 21.4375 16.9706 21.4375 12Z" fill="#8E8E8E"/>
</svg>
