<svg width="25" height="46" viewBox="0 0 25 46" fill="none" xmlns="http://www.w3.org/2000/svg">
<path d="M16.9492 35.3795C16.9905 35.8462 17.2101 36.2799 17.5635 36.5926C17.9807 36.8863 18.467 37.0701 18.9762 37.1263C19.8225 37.2544 20.6758 37.3313 21.5315 37.3568C21.8338 37.3861 22.1383 37.3861 22.4406 37.3568C22.6986 37.3568 23.0794 37.284 23.5954 37.1991L24.8239 37.0778V43.0704C23.7059 43.4101 23.018 43.6042 22.76 43.6406L20.1065 44.3442C19.2097 44.5625 18.448 44.7323 17.846 44.8536C17.2441 44.975 16.7035 45.0841 16.2367 45.1448C15.7699 45.2054 15.303 45.2661 14.8731 45.3025C14.4431 45.3389 13.9763 45.3631 13.4603 45.3631C12.2541 45.5248 11.0264 45.4145 9.86953 45.0406C8.71264 44.6667 7.65655 44.0389 6.78057 43.2042C5.90459 42.3696 5.23146 41.3498 4.81174 40.2215C4.39201 39.0932 4.23658 37.8857 4.35712 36.6896V15.2059H0.671631V9.21332L5.00822 7.68483C5.51567 7.4929 5.98232 7.20902 6.38415 6.84781C6.76489 6.54242 7.11462 6.20115 7.42837 5.82882L7.84605 5.31932L11.4578 0.285034H16.8141V7.80614H24.7625V15.2059H16.8141V33.1838C16.8025 33.918 16.8477 34.6521 16.9492 35.3795Z" fill="#2B3990"/>
</svg>
