<svg width="21" height="20" viewBox="0 0 21 20" fill="none" xmlns="http://www.w3.org/2000/svg">
<path d="M10.5 1.25C10.0027 1.25 9.52581 1.44754 9.17417 1.79917C8.82254 2.15081 8.625 2.62772 8.625 3.125C8.625 3.62228 8.82254 4.09919 9.17417 4.45083C9.52581 4.80246 10.0027 5 10.5 5C10.9973 5 11.4742 4.80246 11.8258 4.45083C12.1775 4.09919 12.375 3.62228 12.375 3.125C12.375 2.62772 12.1775 2.15081 11.8258 1.79917C11.4742 1.44754 10.9973 1.25 10.5 1.25ZM7.375 3.125C7.375 2.2962 7.70424 1.50134 8.29029 0.915291C8.87634 0.32924 9.6712 0 10.5 0C11.3288 0 12.1237 0.32924 12.7097 0.915291C13.2958 1.50134 13.625 2.2962 13.625 3.125C13.625 3.9538 13.2958 4.74866 12.7097 5.33471C12.1237 5.92076 11.3288 6.25 10.5 6.25C9.6712 6.25 8.87634 5.92076 8.29029 5.33471C7.70424 4.74866 7.375 3.9538 7.375 3.125ZM17.375 2.5C17.0435 2.5 16.7255 2.6317 16.4911 2.86612C16.2567 3.10054 16.125 3.41848 16.125 3.75C16.125 4.08152 16.2567 4.39946 16.4911 4.63388C16.7255 4.8683 17.0435 5 17.375 5C17.7065 5 18.0245 4.8683 18.2589 4.63388C18.4933 4.39946 18.625 4.08152 18.625 3.75C18.625 3.41848 18.4933 3.10054 18.2589 2.86612C18.0245 2.6317 17.7065 2.5 17.375 2.5ZM14.875 3.75C14.875 3.08696 15.1384 2.45107 15.6072 1.98223C16.0761 1.51339 16.712 1.25 17.375 1.25C18.038 1.25 18.6739 1.51339 19.1428 1.98223C19.6116 2.45107 19.875 3.08696 19.875 3.75C19.875 4.41304 19.6116 5.04893 19.1428 5.51777C18.6739 5.98661 18.038 6.25 17.375 6.25C16.712 6.25 16.0761 5.98661 15.6072 5.51777C15.1384 5.04893 14.875 4.41304 14.875 3.75ZM2.375 3.75C2.375 3.41848 2.5067 3.10054 2.74112 2.86612C2.97554 2.6317 3.29348 2.5 3.625 2.5C3.95652 2.5 4.27446 2.6317 4.50888 2.86612C4.7433 3.10054 4.875 3.41848 4.875 3.75C4.875 4.08152 4.7433 4.39946 4.50888 4.63388C4.27446 4.8683 3.95652 5 3.625 5C3.29348 5 2.97554 4.8683 2.74112 4.63388C2.5067 4.39946 2.375 4.08152 2.375 3.75ZM3.625 1.25C2.96196 1.25 2.32607 1.51339 1.85723 1.98223C1.38839 2.45107 1.125 3.08696 1.125 3.75C1.125 4.41304 1.38839 5.04893 1.85723 5.51777C2.32607 5.98661 2.96196 6.25 3.625 6.25C4.28804 6.25 4.92393 5.98661 5.39277 5.51777C5.86161 5.04893 6.125 4.41304 6.125 3.75C6.125 3.08696 5.86161 2.45107 5.39277 1.98223C4.92393 1.51339 4.28804 1.25 3.625 1.25ZM4.375 16.2475L4.25 16.25C3.58696 16.25 2.95107 15.9866 2.48223 15.5178C2.01339 15.0489 1.75 14.413 1.75 13.75V9.0625C1.75 8.97962 1.78292 8.90013 1.84153 8.84153C1.90013 8.78292 1.97962 8.75 2.0625 8.75H4.2675C4.3175 8.29125 4.48 7.865 4.72375 7.5H2.0625C1.2 7.5 0.5 8.2 0.5 9.0625V13.75C0.499942 14.2851 0.614423 14.8141 0.835752 15.3013C1.05708 15.7886 1.38013 16.2228 1.78319 16.5748C2.18626 16.9269 2.66 17.1885 3.17258 17.3423C3.68517 17.4961 4.22473 17.5383 4.755 17.4662C4.58707 17.074 4.45974 16.6657 4.375 16.2475ZM16.245 17.4662C16.41 17.4887 16.5783 17.5 16.75 17.5C17.7446 17.5 18.6984 17.1049 19.4017 16.4017C20.1049 15.6984 20.5 14.7446 20.5 13.75V9.0625C20.5 8.2 19.8 7.5 18.9375 7.5H16.2763C16.5212 7.865 16.6825 8.29125 16.7325 8.75H18.9375C19.0204 8.75 19.0999 8.78292 19.1585 8.84153C19.2171 8.90013 19.25 8.97962 19.25 9.0625V13.75C19.2501 14.0889 19.1813 14.4242 19.0477 14.7357C18.9142 15.0472 18.7187 15.3282 18.4732 15.5618C18.2277 15.7954 17.9373 15.9767 17.6196 16.0945C17.3018 16.2124 16.9635 16.2644 16.625 16.2475C16.5403 16.6657 16.4129 17.074 16.245 17.4662ZM7.0625 7.5C6.2 7.5 5.5 8.2 5.5 9.0625V15C5.5 16.3261 6.02678 17.5979 6.96447 18.5355C7.90215 19.4732 9.17392 20 10.5 20C11.8261 20 13.0979 19.4732 14.0355 18.5355C14.9732 17.5979 15.5 16.3261 15.5 15V9.0625C15.5 8.2 14.8 7.5 13.9375 7.5H7.0625ZM6.75 9.0625C6.75 8.97962 6.78292 8.90013 6.84153 8.84153C6.90013 8.78292 6.97962 8.75 7.0625 8.75H13.9375C14.0204 8.75 14.0999 8.78292 14.1585 8.84153C14.2171 8.90013 14.25 8.97962 14.25 9.0625V15C14.25 15.9946 13.8549 16.9484 13.1517 17.6517C12.4484 18.3549 11.4946 18.75 10.5 18.75C9.50544 18.75 8.55161 18.3549 7.84835 17.6517C7.14509 16.9484 6.75 15.9946 6.75 15V9.0625Z" fill="#83CBAA"/>
</svg>
