<svg width="16" height="16" viewBox="0 0 16 16" fill="none" xmlns="http://www.w3.org/2000/svg">
<path d="M8.0001 2.39961C7.68184 2.39961 7.37661 2.52604 7.15157 2.75108C6.92653 2.97613 6.8001 3.28135 6.8001 3.59961C6.8001 3.91787 6.92653 4.22309 7.15157 4.44814C7.37661 4.67318 7.68184 4.79961 8.0001 4.79961C8.31836 4.79961 8.62358 4.67318 8.84863 4.44814C9.07367 4.22309 9.2001 3.91787 9.2001 3.59961C9.2001 3.28135 9.07367 2.97613 8.84863 2.75108C8.62358 2.52604 8.31836 2.39961 8.0001 2.39961ZM6.0001 3.59961C6.0001 3.06918 6.21081 2.56047 6.58588 2.1854C6.96096 1.81032 7.46966 1.59961 8.0001 1.59961C8.53053 1.59961 9.03924 1.81032 9.41431 2.1854C9.78938 2.56047 10.0001 3.06918 10.0001 3.59961C10.0001 4.13004 9.78938 4.63875 9.41431 5.01382C9.03924 5.3889 8.53053 5.59961 8.0001 5.59961C7.46966 5.59961 6.96096 5.3889 6.58588 5.01382C6.21081 4.63875 6.0001 4.13004 6.0001 3.59961ZM12.4001 3.19961C12.1879 3.19961 11.9844 3.2839 11.8344 3.43392C11.6844 3.58395 11.6001 3.78744 11.6001 3.99961C11.6001 4.21178 11.6844 4.41527 11.8344 4.56529C11.9844 4.71532 12.1879 4.79961 12.4001 4.79961C12.6123 4.79961 12.8158 4.71532 12.9658 4.56529C13.1158 4.41527 13.2001 4.21178 13.2001 3.99961C13.2001 3.78744 13.1158 3.58395 12.9658 3.43392C12.8158 3.2839 12.6123 3.19961 12.4001 3.19961ZM10.8001 3.99961C10.8001 3.57526 10.9687 3.1683 11.2687 2.86824C11.5688 2.56818 11.9758 2.39961 12.4001 2.39961C12.8244 2.39961 13.2314 2.56818 13.5315 2.86824C13.8315 3.1683 14.0001 3.57526 14.0001 3.99961C14.0001 4.42396 13.8315 4.83092 13.5315 5.13098C13.2314 5.43104 12.8244 5.59961 12.4001 5.59961C11.9758 5.59961 11.5688 5.43104 11.2687 5.13098C10.9687 4.83092 10.8001 4.42396 10.8001 3.99961ZM2.8001 3.99961C2.8001 3.78744 2.88438 3.58395 3.03441 3.43392C3.18444 3.2839 3.38792 3.19961 3.6001 3.19961C3.81227 3.19961 4.01575 3.2839 4.16578 3.43392C4.31581 3.58395 4.4001 3.78744 4.4001 3.99961C4.4001 4.21178 4.31581 4.41527 4.16578 4.56529C4.01575 4.71532 3.81227 4.79961 3.6001 4.79961C3.38792 4.79961 3.18444 4.71532 3.03441 4.56529C2.88438 4.41527 2.8001 4.21178 2.8001 3.99961ZM3.6001 2.39961C3.17575 2.39961 2.76878 2.56818 2.46873 2.86824C2.16867 3.1683 2.0001 3.57526 2.0001 3.99961C2.0001 4.42396 2.16867 4.83092 2.46873 5.13098C2.76878 5.43104 3.17575 5.59961 3.6001 5.59961C4.02444 5.59961 4.43141 5.43104 4.73147 5.13098C5.03153 4.83092 5.2001 4.42396 5.2001 3.99961C5.2001 3.57526 5.03153 3.1683 4.73147 2.86824C4.43141 2.56818 4.02444 2.39961 3.6001 2.39961ZM4.0801 11.998L4.0001 11.9996C3.57575 11.9996 3.16878 11.831 2.86873 11.531C2.56867 11.2309 2.4001 10.824 2.4001 10.3996V7.39961C2.4001 7.34657 2.42117 7.2957 2.45868 7.25819C2.49618 7.22068 2.54705 7.19961 2.6001 7.19961H4.0113C4.0433 6.90601 4.1473 6.63321 4.3033 6.39961H2.6001C2.0481 6.39961 1.6001 6.84761 1.6001 7.39961V10.3996C1.60006 10.7421 1.67333 11.0806 1.81498 11.3925C1.95663 11.7043 2.16338 11.9822 2.42134 12.2075C2.6793 12.4328 2.9825 12.6003 3.31055 12.6987C3.63861 12.7971 3.98392 12.8241 4.3233 12.778C4.21582 12.527 4.13433 12.2656 4.0801 11.998ZM11.6769 12.778C11.7825 12.7924 11.8902 12.7996 12.0001 12.7996C12.6366 12.7996 13.2471 12.5468 13.6972 12.0967C14.1472 11.6466 14.4001 11.0361 14.4001 10.3996V7.39961C14.4001 6.84761 13.9521 6.39961 13.4001 6.39961H11.6969C11.8537 6.63321 11.9569 6.90601 11.9889 7.19961H13.4001C13.4531 7.19961 13.504 7.22068 13.5415 7.25819C13.579 7.2957 13.6001 7.34657 13.6001 7.39961V10.3996C13.6002 10.6165 13.5561 10.8311 13.4707 11.0305C13.3852 11.2298 13.2601 11.4097 13.103 11.5592C12.9458 11.7087 12.76 11.8247 12.5566 11.9001C12.3533 11.9755 12.1367 12.0089 11.9201 11.998C11.8659 12.2656 11.7844 12.527 11.6769 12.778ZM5.8001 6.39961C5.2481 6.39961 4.8001 6.84761 4.8001 7.39961V11.1996C4.8001 12.0483 5.13724 12.8622 5.73736 13.4624C6.33747 14.0625 7.1514 14.3996 8.0001 14.3996C8.84879 14.3996 9.66272 14.0625 10.2628 13.4624C10.863 12.8622 11.2001 12.0483 11.2001 11.1996V7.39961C11.2001 6.84761 10.7521 6.39961 10.2001 6.39961H5.8001ZM5.6001 7.39961C5.6001 7.34657 5.62117 7.2957 5.65868 7.25819C5.69618 7.22068 5.74705 7.19961 5.8001 7.19961H10.2001C10.2531 7.19961 10.304 7.22068 10.3415 7.25819C10.379 7.2957 10.4001 7.34657 10.4001 7.39961V11.1996C10.4001 11.8361 10.1472 12.4466 9.69715 12.8967C9.24707 13.3468 8.63662 13.5996 8.0001 13.5996C7.36358 13.5996 6.75313 13.3468 6.30304 12.8967C5.85295 12.4466 5.6001 11.8361 5.6001 11.1996V7.39961Z" fill="white"/>
</svg>
