<svg width="24" height="24" viewBox="0 0 24 24" fill="none" xmlns="http://www.w3.org/2000/svg">
<path fill-rule="evenodd" clip-rule="evenodd" d="M6.81834 2.00053C5.26191 2.00053 4.3335 2.92894 4.3335 4.48538V19.5157C4.3335 21.0722 5.26191 22.0005 6.81834 22.0005H17.4244C18.9809 22.0005 19.9093 21.0722 19.9093 19.5157V9.02117C19.9093 8.27375 20.0287 7.86184 19.5002 7.33333L14.3335 2.49999C13.805 1.97148 13.636 2.00053 12.8886 2.00053H6.81834ZM5.25269 4.48538C5.25269 3.50053 6.33994 2.87932 6.85875 2.87932H12.4143V8.24295C12.4143 9.28058 12.6292 9.16215 13.6668 9.16215H18.9901V19.5157C18.9343 20.5005 17.9028 21.1217 17.384 21.1217H6.85875C6.33994 21.1217 5.16683 20.5005 5.25269 19.5157V4.48538ZM18.9343 8.24295L13.3335 2.93509V8.24295H18.9343Z" fill="#4B4B4B"/>
</svg>
