<svg width="37" height="36" viewBox="0 0 37 36" fill="none" xmlns="http://www.w3.org/2000/svg">
<circle cx="18.7003" cy="18" r="17.5" fill="white" stroke="#2B3990"/>
<mask id="path-2-outside-1_606_11554" maskUnits="userSpaceOnUse" x="9.70032" y="9" width="16" height="19" fill="black">
<rect fill="white" x="9.70032" y="9" width="16" height="19"/>
<path d="M22.0703 15.456C22.0703 16.5333 21.6437 17.3387 20.7903 17.872C20.9077 17.9253 21.057 18.0533 21.2383 18.256C21.4303 18.4587 21.5903 18.6613 21.7183 18.864C22.049 19.3867 22.2143 20.0053 22.2143 20.72C22.2143 21.8933 21.793 22.7573 20.9503 23.312C20.1077 23.8667 18.9503 24.144 17.4783 24.144C16.753 24.144 16.065 24.0853 15.4143 23.968C14.7743 23.84 14.2837 23.7013 13.9423 23.552C13.601 23.392 13.4303 23.248 13.4303 23.12C13.4303 22.5333 13.4943 22.016 13.6223 21.568C13.7503 21.12 13.8943 20.8053 14.0543 20.624C14.2143 20.432 14.369 20.336 14.5183 20.336C14.561 20.336 14.8437 20.432 15.3663 20.624C15.889 20.816 16.401 20.912 16.9023 20.912C17.4143 20.912 17.6703 20.752 17.6703 20.432C17.6703 19.9947 17.1317 19.76 16.0543 19.728C15.6277 19.7173 15.393 19.7067 15.3503 19.696C15.1263 19.6213 15.0143 19.152 15.0143 18.288C15.0143 17.424 15.1263 16.9493 15.3503 16.864C15.393 16.8427 15.6277 16.832 16.0543 16.832C17.1317 16.8107 17.6703 16.592 17.6703 16.176C17.6703 15.856 17.4357 15.696 16.9663 15.696C16.5077 15.696 15.9957 15.808 15.4303 16.032C14.865 16.256 14.5557 16.368 14.5023 16.368C14.257 16.368 14.033 16.0107 13.8303 15.296C13.6277 14.5813 13.5263 14.0747 13.5263 13.776C13.5263 13.4987 13.8357 13.216 14.4543 12.928C15.137 12.6187 16.1397 12.464 17.4623 12.464C20.5343 12.464 22.0703 13.4613 22.0703 15.456Z"/>
</mask>
<path d="M20.7903 17.872L19.2003 15.328L14.4607 18.2903L19.5489 20.6031L20.7903 17.872ZM21.2383 18.256L19.0026 20.2564L19.0311 20.2882L19.0605 20.3192L21.2383 18.256ZM21.7183 18.864L19.1819 20.466L19.1831 20.4679L21.7183 18.864ZM20.9503 23.312L19.3009 20.8061H19.3009L20.9503 23.312ZM15.4143 23.968L14.826 26.9097L14.8539 26.9153L14.8819 26.9204L15.4143 23.968ZM13.9423 23.552L12.669 26.2684L12.7042 26.2849L12.7399 26.3005L13.9423 23.552ZM13.6223 21.568L16.5069 22.3922H16.5069L13.6223 21.568ZM14.0543 20.624L16.3038 22.6089L16.3319 22.5771L16.359 22.5446L14.0543 20.624ZM15.3663 20.624L16.4008 17.808H16.4008L15.3663 20.624ZM16.0543 19.728L16.1434 16.7293L16.1293 16.7289L16.0543 19.728ZM15.3503 19.696L14.4016 22.5421L14.5109 22.5785L14.6227 22.6064L15.3503 19.696ZM15.3503 16.864L16.4183 19.6675L16.5581 19.6142L16.692 19.5473L15.3503 16.864ZM16.0543 16.832V19.832H16.084L16.1137 19.8314L16.0543 16.832ZM15.4303 16.032L16.5354 18.821H16.5354L15.4303 16.032ZM13.8303 15.296L16.7165 14.4775H16.7165L13.8303 15.296ZM14.4543 12.928L13.2161 10.1954L13.2021 10.2018L13.1882 10.2083L14.4543 12.928ZM19.0703 15.456C19.0703 15.5276 19.0632 15.5556 19.0645 15.5499C19.0662 15.5423 19.075 15.5095 19.0994 15.4635C19.1241 15.4168 19.1542 15.3768 19.182 15.3477C19.2086 15.3199 19.2202 15.3156 19.2003 15.328L22.3803 20.416C24.1828 19.2894 25.0703 17.4798 25.0703 15.456H19.0703ZM19.5489 20.6031C19.39 20.5309 19.2718 20.4574 19.1974 20.4068C19.1211 20.3549 19.0676 20.3112 19.0379 20.2858C18.9824 20.2381 18.9694 20.2193 19.0026 20.2564L23.474 16.2556C23.2557 16.0115 22.7563 15.4702 22.0317 15.1409L19.5489 20.6031ZM19.0605 20.3192C19.1396 20.4027 19.1735 20.4527 19.1819 20.466L24.2548 17.262C24.0072 16.87 23.7211 16.5146 23.4162 16.1928L19.0605 20.3192ZM19.1831 20.4679C19.1831 20.4679 19.183 20.4679 19.183 20.4679C19.1831 20.4679 19.1833 20.4684 19.1839 20.4697C19.1849 20.4719 19.188 20.4795 19.192 20.4945C19.1999 20.5239 19.2143 20.5943 19.2143 20.72H25.2143C25.2143 19.5277 24.9327 18.3335 24.2536 17.2601L19.1831 20.4679ZM19.2143 20.72C19.2143 20.9498 19.1736 20.991 19.2019 20.9331C19.2154 20.9053 19.2366 20.8724 19.2634 20.8423C19.2896 20.8129 19.3068 20.8022 19.3009 20.8061L22.5997 25.8179C24.4337 24.6107 25.2143 22.7112 25.2143 20.72H19.2143ZM19.3009 20.8061C19.1245 20.9222 18.619 21.144 17.4783 21.144V27.144C19.2817 27.144 21.0908 26.8111 22.5998 25.8179L19.3009 20.8061ZM17.4783 21.144C16.9145 21.144 16.4057 21.0984 15.9467 21.0156L14.8819 26.9204C15.7243 27.0723 16.5915 27.144 17.4783 27.144V21.144ZM16.0027 21.0263C15.7392 20.9736 15.5351 20.9243 15.3822 20.8811C15.3067 20.8597 15.2493 20.8415 15.2076 20.827C15.1871 20.8199 15.1717 20.8142 15.1609 20.81C15.1555 20.8079 15.1515 20.8063 15.1488 20.8052C15.146 20.8041 15.1447 20.8035 15.1448 20.8035L12.7399 26.3005C13.3722 26.5771 14.1071 26.766 14.826 26.9097L16.0027 21.0263ZM15.2156 20.8356C15.1438 20.802 15.2865 20.857 15.4929 21.0311C15.602 21.1232 15.8096 21.3155 16.0035 21.6245C16.2061 21.9475 16.4303 22.4605 16.4303 23.12H10.4303C10.4303 24.545 11.3413 25.3786 11.6237 25.6169C12.0008 25.935 12.3995 26.142 12.669 26.2684L15.2156 20.8356ZM16.4303 23.12C16.4303 22.7435 16.4723 22.5133 16.5069 22.3922L10.7377 20.7438C10.5164 21.5187 10.4303 22.3232 10.4303 23.12H16.4303ZM16.5069 22.3922C16.5426 22.2671 16.5623 22.2267 16.5542 22.2444C16.5491 22.2556 16.5307 22.2947 16.4951 22.3527C16.4601 22.4098 16.3987 22.5014 16.3038 22.6089L11.8048 18.6391C11.1863 19.3401 10.8953 20.1926 10.7377 20.7438L16.5069 22.3922ZM16.359 22.5446C16.3044 22.6101 16.1486 22.7855 15.8724 22.9569C15.579 23.139 15.114 23.336 14.5183 23.336V17.336C13.026 17.336 12.1066 18.2751 11.7497 18.7034L16.359 22.5446ZM14.5183 23.336C14.3867 23.336 14.2801 23.3272 14.2126 23.3202C14.1413 23.3128 14.0823 23.304 14.0403 23.297C13.9587 23.2836 13.8957 23.2695 13.8627 23.2617C13.8262 23.2532 13.7982 23.2458 13.782 23.2414C13.7649 23.2368 13.7525 23.2332 13.7463 23.2313C13.7346 23.2279 13.7328 23.2272 13.7446 23.231C13.7553 23.2344 13.7726 23.2402 13.7976 23.2486C13.9036 23.2847 14.0776 23.3466 14.3319 23.44L16.4008 17.808C16.1324 17.7094 15.9037 17.6273 15.7271 17.5674C15.6421 17.5385 15.5423 17.5055 15.4444 17.4767C15.3977 17.4629 15.3201 17.4407 15.2285 17.4193C15.2237 17.4181 14.9085 17.336 14.5183 17.336V23.336ZM14.3319 23.44C15.1493 23.7403 16.0111 23.912 16.9023 23.912V17.912C16.7908 17.912 16.6286 17.8917 16.4008 17.808L14.3319 23.44ZM16.9023 23.912C17.3737 23.912 18.2366 23.8558 19.0683 23.336C20.1351 22.6692 20.6703 21.5515 20.6703 20.432H14.6703C14.6703 20.1065 14.7378 19.6755 14.9753 19.2302C15.2168 18.7773 15.5571 18.455 15.8883 18.248C16.1994 18.0536 16.4742 17.9768 16.6265 17.9451C16.7819 17.9127 16.8833 17.912 16.9023 17.912V23.912ZM20.6703 20.432C20.6703 19.652 20.4113 18.8909 19.9101 18.2656C19.448 17.6891 18.8905 17.3633 18.4645 17.1777C17.664 16.8289 16.7994 16.7488 16.1434 16.7293L15.9652 22.7267C16.3866 22.7392 16.3299 22.7924 16.0681 22.6783C15.9114 22.6101 15.556 22.4269 15.2285 22.0183C14.862 21.5611 14.6703 20.9933 14.6703 20.432H20.6703ZM16.1293 16.7289C16.0279 16.7264 15.9407 16.7239 15.867 16.7216C15.7927 16.7192 15.736 16.717 15.6945 16.7151C15.6741 16.7142 15.6597 16.7134 15.6505 16.7129C15.6406 16.7123 15.6408 16.7122 15.6484 16.7128C15.6525 16.7132 15.6608 16.7138 15.6724 16.7149C15.6836 16.7159 15.7021 16.7178 15.7258 16.7206C15.7482 16.7232 15.7863 16.728 15.8345 16.7357C15.8593 16.7396 15.8916 16.7451 15.9294 16.7525C15.9662 16.7597 16.0173 16.7704 16.0779 16.7856L14.6227 22.6064C14.824 22.6567 14.9911 22.6755 15.0248 22.6795C15.0911 22.6872 15.1491 22.6922 15.1882 22.6952C15.2681 22.7013 15.3502 22.7056 15.4221 22.7089C15.57 22.7156 15.7591 22.7216 15.9793 22.7271L16.1293 16.7289ZM16.299 16.85C17.1131 17.1213 17.5593 17.6715 17.7557 17.9895C17.9442 18.2946 18.004 18.5396 18.0164 18.5916C18.0416 18.6971 18.0143 18.6387 18.0143 18.288H12.0143C12.0143 18.8013 12.0431 19.4095 12.1803 19.9844C12.2487 20.271 12.3785 20.7014 12.6509 21.1425C12.9314 21.5965 13.4756 22.2334 14.4016 22.5421L16.299 16.85ZM18.0143 18.288C18.0143 17.9394 18.0412 17.8753 18.0181 17.9729C18.0066 18.022 17.9507 18.253 17.7758 18.5445C17.596 18.8442 17.1844 19.3756 16.4183 19.6675L14.2823 14.0605C13.4042 14.3951 12.8946 15.0178 12.6308 15.4575C12.3719 15.889 12.2461 16.3086 12.1785 16.5951C12.0434 17.1674 12.0143 17.7726 12.0143 18.288H18.0143ZM16.692 19.5473C16.4881 19.6492 16.3157 19.7057 16.2226 19.7336C16.1198 19.7645 16.0349 19.7836 15.9803 19.7949C15.8738 19.8168 15.7933 19.8266 15.7622 19.8302C15.6972 19.8377 15.6654 19.8382 15.6945 19.8369C15.744 19.8347 15.8562 19.832 16.0543 19.832V13.832C15.8257 13.832 15.6073 13.8347 15.4221 13.8431C15.3339 13.8471 15.2088 13.8543 15.0744 13.8698C15.0086 13.8774 14.8996 13.8915 14.7704 13.9181C14.6953 13.9336 14.3744 13.9979 14.0087 14.1807L16.692 19.5473ZM16.1137 19.8314C16.7609 19.8186 17.6084 19.7509 18.3947 19.4317C18.8098 19.2632 19.3769 18.9574 19.8566 18.3923C20.3838 17.7711 20.6703 16.9915 20.6703 16.176H14.6703C14.6703 15.5685 14.8895 14.9722 15.2821 14.5097C15.627 14.1033 15.9921 13.9315 16.1379 13.8723C16.3856 13.7718 16.4251 13.8241 15.9949 13.8326L16.1137 19.8314ZM20.6703 16.176C20.6703 15.1706 20.2354 14.0539 19.1843 13.3373C18.3393 12.7612 17.4483 12.696 16.9663 12.696V18.696C16.9537 18.696 16.4147 18.7108 15.8043 18.2947C15.461 18.0606 15.145 17.721 14.9312 17.2836C14.7241 16.86 14.6703 16.4633 14.6703 16.176H20.6703ZM16.9663 12.696C16.0281 12.696 15.134 12.9225 14.3252 13.243L16.5354 18.821C16.8573 18.6935 16.9873 18.696 16.9663 18.696V12.696ZM14.3252 13.243C14.0513 13.3515 13.8653 13.4225 13.753 13.4632C13.7267 13.4727 13.7089 13.4789 13.6985 13.4825C13.687 13.4865 13.6905 13.4851 13.7051 13.4806C13.7129 13.4782 13.7273 13.4738 13.7471 13.4682C13.766 13.4629 13.7974 13.4544 13.838 13.4447C13.8754 13.4358 13.9428 13.4205 14.0296 13.4063C14.0743 13.3989 14.1346 13.3901 14.2067 13.3828C14.2762 13.3758 14.3783 13.368 14.5023 13.368V19.368C14.8912 19.368 15.2005 19.288 15.2307 19.2808C15.334 19.2562 15.4214 19.2301 15.4755 19.2134C15.5879 19.1787 15.7007 19.1392 15.7956 19.1048C15.9926 19.0335 16.244 18.9365 16.5354 18.821L14.3252 13.243ZM14.5023 13.368C15.2222 13.368 15.7847 13.6438 16.1396 13.9141C16.4632 14.1604 16.632 14.4107 16.6922 14.5066C16.8038 14.6847 16.7897 14.7355 16.7165 14.4775L10.9441 16.1145C11.0736 16.5711 11.2728 17.1579 11.6085 17.6934C11.8713 18.1126 12.7718 19.368 14.5023 19.368V13.368ZM16.7165 14.4775C16.6283 14.1664 16.5742 13.9422 16.5441 13.7916C16.5293 13.7178 16.5235 13.6773 16.5218 13.6645C16.5197 13.6472 16.5263 13.6902 16.5263 13.776H10.5263C10.5263 14.5396 10.7451 15.4125 10.9441 16.1145L16.7165 14.4775ZM16.5263 13.776C16.5263 14.8308 15.9318 15.4338 15.782 15.5706C15.6148 15.7234 15.5371 15.7331 15.7204 15.6477L13.1882 10.2083C12.7528 10.4109 12.2112 10.7059 11.7346 11.1414C11.2755 11.5609 10.5263 12.4439 10.5263 13.776H16.5263ZM15.6925 15.6606C15.7946 15.6143 16.2889 15.464 17.4623 15.464V9.464C15.9904 9.464 14.4794 9.62303 13.2161 10.1954L15.6925 15.6606ZM17.4623 15.464C18.0773 15.464 18.5279 15.5148 18.8437 15.5831C19.1614 15.6519 19.2792 15.7247 19.2846 15.7281C19.2847 15.7282 19.2778 15.7237 19.2657 15.7137C19.2536 15.7035 19.2374 15.6887 19.219 15.6688C19.1801 15.6267 19.1429 15.5745 19.1135 15.5171C19.0508 15.3951 19.0703 15.3456 19.0703 15.456H25.0703C25.0703 13.5504 24.2587 11.804 22.5521 10.6959C21.0693 9.73309 19.2271 9.464 17.4623 9.464V15.464Z" fill="#2B3990" mask="url(#path-2-outside-1_606_11554)"/>
</svg>
