<svg width="37" height="36" viewBox="0 0 37 36" fill="none" xmlns="http://www.w3.org/2000/svg">
<circle cx="18.7002" cy="18" r="17.5" fill="white" stroke="#CACACA"/>
<mask id="path-2-outside-1_607_2387" maskUnits="userSpaceOnUse" x="9.7002" y="9" width="16" height="19" fill="black">
<rect fill="white" x="9.7002" y="9" width="16" height="19"/>
<path d="M22.0702 15.456C22.0702 16.5333 21.6435 17.3387 20.7902 17.872C20.9075 17.9253 21.0569 18.0533 21.2382 18.256C21.4302 18.4587 21.5902 18.6613 21.7182 18.864C22.0489 19.3867 22.2142 20.0053 22.2142 20.72C22.2142 21.8933 21.7929 22.7573 20.9502 23.312C20.1075 23.8667 18.9502 24.144 17.4782 24.144C16.7529 24.144 16.0649 24.0853 15.4142 23.968C14.7742 23.84 14.2835 23.7013 13.9422 23.552C13.6009 23.392 13.4302 23.248 13.4302 23.12C13.4302 22.5333 13.4942 22.016 13.6222 21.568C13.7502 21.12 13.8942 20.8053 14.0542 20.624C14.2142 20.432 14.3689 20.336 14.5182 20.336C14.5609 20.336 14.8435 20.432 15.3662 20.624C15.8889 20.816 16.4009 20.912 16.9022 20.912C17.4142 20.912 17.6702 20.752 17.6702 20.432C17.6702 19.9947 17.1315 19.76 16.0542 19.728C15.6275 19.7173 15.3929 19.7067 15.3502 19.696C15.1262 19.6213 15.0142 19.152 15.0142 18.288C15.0142 17.424 15.1262 16.9493 15.3502 16.864C15.3929 16.8427 15.6275 16.832 16.0542 16.832C17.1315 16.8107 17.6702 16.592 17.6702 16.176C17.6702 15.856 17.4355 15.696 16.9662 15.696C16.5075 15.696 15.9955 15.808 15.4302 16.032C14.8649 16.256 14.5555 16.368 14.5022 16.368C14.2569 16.368 14.0329 16.0107 13.8302 15.296C13.6275 14.5813 13.5262 14.0747 13.5262 13.776C13.5262 13.4987 13.8355 13.216 14.4542 12.928C15.1369 12.6187 16.1395 12.464 17.4622 12.464C20.5342 12.464 22.0702 13.4613 22.0702 15.456Z"/>
</mask>
<path d="M20.7902 17.872L19.2002 15.328L14.4606 18.2903L19.5488 20.6031L20.7902 17.872ZM21.2382 18.256L19.0025 20.2564L19.031 20.2882L19.0603 20.3192L21.2382 18.256ZM21.7182 18.864L19.1817 20.466L19.183 20.4679L21.7182 18.864ZM20.9502 23.312L19.3008 20.8061L19.3008 20.8061L20.9502 23.312ZM15.4142 23.968L14.8258 26.9097L14.8538 26.9153L14.8818 26.9204L15.4142 23.968ZM13.9422 23.552L12.6689 26.2684L12.7041 26.2849L12.7397 26.3005L13.9422 23.552ZM13.6222 21.568L16.5068 22.3922L16.5068 22.3922L13.6222 21.568ZM14.0542 20.624L16.3037 22.6089L16.3317 22.5771L16.3589 22.5446L14.0542 20.624ZM15.3662 20.624L16.4006 17.808L16.4006 17.808L15.3662 20.624ZM16.0542 19.728L16.1433 16.7293L16.1292 16.7289L16.0542 19.728ZM15.3502 19.696L14.4015 22.542L14.5108 22.5785L14.6226 22.6064L15.3502 19.696ZM15.3502 16.864L16.4182 19.6675L16.558 19.6142L16.6918 19.5473L15.3502 16.864ZM16.0542 16.832V19.832H16.0839L16.1136 19.8314L16.0542 16.832ZM15.4302 16.032L16.5353 18.821L16.5353 18.821L15.4302 16.032ZM13.8302 15.296L16.7164 14.4775L16.7164 14.4775L13.8302 15.296ZM14.4542 12.928L13.216 10.1954L13.202 10.2018L13.1881 10.2083L14.4542 12.928ZM19.0702 15.456C19.0702 15.5276 19.0631 15.5556 19.0644 15.5499C19.0661 15.5423 19.0749 15.5095 19.0993 15.4635C19.124 15.4168 19.1541 15.3768 19.1819 15.3477C19.2085 15.3199 19.2201 15.3156 19.2002 15.328L22.3802 20.416C24.1827 19.2894 25.0702 17.4798 25.0702 15.456H19.0702ZM19.5488 20.6031C19.3899 20.5309 19.2716 20.4574 19.1973 20.4068C19.121 20.3549 19.0675 20.3112 19.0378 20.2858C18.9822 20.2381 18.9693 20.2193 19.0025 20.2564L23.4739 16.2556C23.2555 16.0115 22.7561 15.4702 22.0316 15.1409L19.5488 20.6031ZM19.0603 20.3192C19.1394 20.4027 19.1733 20.4527 19.1817 20.466L24.2547 17.262C24.0071 16.87 23.721 16.5146 23.4161 16.1928L19.0603 20.3192ZM19.183 20.4679C19.183 20.4679 19.1829 20.4679 19.1829 20.4679C19.1829 20.4679 19.1832 20.4684 19.1838 20.4697C19.1847 20.4719 19.1879 20.4795 19.1919 20.4945C19.1998 20.5239 19.2142 20.5943 19.2142 20.72H25.2142C25.2142 19.5277 24.9326 18.3335 24.2534 17.2601L19.183 20.4679ZM19.2142 20.72C19.2142 20.9498 19.1735 20.991 19.2017 20.9331C19.2153 20.9053 19.2365 20.8724 19.2633 20.8423C19.2895 20.8129 19.3067 20.8022 19.3008 20.8061L22.5996 25.8179C24.4336 24.6107 25.2142 22.7112 25.2142 20.72H19.2142ZM19.3008 20.8061C19.1244 20.9222 18.6188 21.144 17.4782 21.144V27.144C19.2815 27.144 21.0906 26.8111 22.5996 25.8179L19.3008 20.8061ZM17.4782 21.144C16.9144 21.144 16.4056 21.0984 15.9466 21.0156L14.8818 26.9204C15.7241 27.0723 16.5913 27.144 17.4782 27.144V21.144ZM16.0025 21.0263C15.7391 20.9736 15.535 20.9243 15.3821 20.8811C15.3066 20.8597 15.2492 20.8415 15.2075 20.827C15.187 20.8199 15.1715 20.8142 15.1607 20.81C15.1554 20.8079 15.1514 20.8063 15.1486 20.8052C15.1459 20.8041 15.1446 20.8035 15.1447 20.8035L12.7397 26.3005C13.372 26.5771 14.107 26.766 14.8258 26.9097L16.0025 21.0263ZM15.2155 20.8356C15.1437 20.802 15.2864 20.857 15.4928 21.0311C15.6019 21.1232 15.8095 21.3155 16.0034 21.6245C16.206 21.9475 16.4302 22.4605 16.4302 23.12H10.4302C10.4302 24.545 11.3412 25.3786 11.6236 25.6169C12.0007 25.935 12.3994 26.142 12.6689 26.2684L15.2155 20.8356ZM16.4302 23.12C16.4302 22.7435 16.4721 22.5133 16.5068 22.3922L10.7376 20.7438C10.5162 21.5187 10.4302 22.3232 10.4302 23.12H16.4302ZM16.5068 22.3922C16.5425 22.2671 16.5622 22.2267 16.5541 22.2444C16.549 22.2556 16.5306 22.2947 16.495 22.3527C16.46 22.4098 16.3986 22.5014 16.3037 22.6089L11.8047 18.6391C11.1862 19.3401 10.8951 20.1926 10.7376 20.7438L16.5068 22.3922ZM16.3589 22.5446C16.3043 22.6101 16.1485 22.7855 15.8723 22.9569C15.5789 23.139 15.1138 23.336 14.5182 23.336V17.336C13.0259 17.336 12.1065 18.2751 11.7495 18.7034L16.3589 22.5446ZM14.5182 23.336C14.3866 23.336 14.2799 23.3272 14.2124 23.3202C14.1412 23.3128 14.0822 23.304 14.0402 23.297C13.9586 23.2836 13.8955 23.2695 13.8626 23.2617C13.8261 23.2532 13.7981 23.2458 13.7818 23.2414C13.7647 23.2368 13.7524 23.2332 13.7461 23.2313C13.7345 23.2279 13.7327 23.2272 13.7444 23.231C13.7552 23.2344 13.7724 23.2401 13.7974 23.2486C13.9035 23.2847 14.0775 23.3466 14.3317 23.44L16.4006 17.808C16.1323 17.7094 15.9036 17.6273 15.7269 17.5674C15.642 17.5385 15.5422 17.5055 15.4442 17.4767C15.3976 17.4629 15.32 17.4407 15.2283 17.4193C15.2236 17.4181 14.9084 17.336 14.5182 17.336V23.336ZM14.3317 23.44C15.1492 23.7403 16.011 23.912 16.9022 23.912V17.912C16.7907 17.912 16.6285 17.8917 16.4006 17.808L14.3317 23.44ZM16.9022 23.912C17.3736 23.912 18.2364 23.8558 19.0682 23.336C20.135 22.6692 20.6702 21.5515 20.6702 20.432H14.6702C14.6702 20.1065 14.7377 19.6755 14.9751 19.2302C15.2167 18.7773 15.5569 18.455 15.8882 18.248C16.1993 18.0536 16.474 17.9768 16.6263 17.9451C16.7818 17.9127 16.8831 17.912 16.9022 17.912V23.912ZM20.6702 20.432C20.6702 19.652 20.4112 18.8909 19.91 18.2656C19.4478 17.6891 18.8904 17.3633 18.4644 17.1777C17.6639 16.8289 16.7992 16.7488 16.1433 16.7293L15.9651 22.7267C16.3865 22.7392 16.3298 22.7924 16.068 22.6783C15.9113 22.6101 15.5559 22.4269 15.2284 22.0183C14.8619 21.5611 14.6702 20.9933 14.6702 20.432H20.6702ZM16.1292 16.7289C16.0278 16.7264 15.9406 16.7239 15.8669 16.7216C15.7926 16.7192 15.7358 16.717 15.6944 16.7151C15.6739 16.7142 15.6595 16.7134 15.6503 16.7129C15.6405 16.7123 15.6406 16.7122 15.6483 16.7128C15.6524 16.7132 15.6607 16.7138 15.6723 16.7149C15.6835 16.7159 15.7019 16.7177 15.7257 16.7205C15.748 16.7232 15.7862 16.728 15.8344 16.7357C15.8592 16.7396 15.8915 16.7452 15.9293 16.7525C15.9661 16.7597 16.0172 16.7704 16.0778 16.7856L14.6226 22.6064C14.8238 22.6567 14.991 22.6755 15.0247 22.6795C15.091 22.6873 15.149 22.6922 15.1881 22.6952C15.268 22.7013 15.3501 22.7056 15.422 22.7089C15.5698 22.7156 15.759 22.7216 15.9792 22.7271L16.1292 16.7289ZM16.2989 16.8499C17.1129 17.1213 17.5591 17.6715 17.7556 17.9895C17.944 18.2946 18.0038 18.5396 18.0163 18.5916C18.0414 18.6971 18.0142 18.6387 18.0142 18.288H12.0142C12.0142 18.8013 12.043 19.4095 12.1801 19.9844C12.2485 20.271 12.3784 20.7014 12.6508 21.1425C12.9313 21.5965 13.4755 22.2334 14.4015 22.542L16.2989 16.8499ZM18.0142 18.288C18.0142 17.9394 18.0411 17.8752 18.018 17.9729C18.0064 18.022 17.9506 18.253 17.7757 18.5445C17.5959 18.8442 17.1843 19.3756 16.4182 19.6675L14.2822 14.0605C13.4041 14.3951 12.8945 15.0178 12.6307 15.4575C12.3718 15.889 12.246 16.3086 12.1784 16.5951C12.0433 17.1674 12.0142 17.7726 12.0142 18.288H18.0142ZM16.6918 19.5473C16.4879 19.6492 16.3156 19.7057 16.2225 19.7336C16.1196 19.7645 16.0348 19.7836 15.9802 19.7949C15.8736 19.8168 15.7932 19.8266 15.7621 19.8302C15.697 19.8377 15.6653 19.8382 15.6944 19.8369C15.7439 19.8347 15.8561 19.832 16.0542 19.832V13.832C15.8256 13.832 15.6072 13.8347 15.422 13.8431C15.3338 13.8471 15.2087 13.8543 15.0743 13.8698C15.0085 13.8774 14.8994 13.8915 14.7702 13.9181C14.6952 13.9336 14.3743 13.9979 14.0086 14.1807L16.6918 19.5473ZM16.1136 19.8314C16.7608 19.8186 17.6083 19.7509 18.3946 19.4317C18.8097 19.2632 19.3768 18.9574 19.8564 18.3923C20.3837 17.7711 20.6702 16.9915 20.6702 16.176H14.6702C14.6702 15.5685 14.8894 14.9722 15.282 14.5097C15.6269 14.1033 15.992 13.9315 16.1378 13.8723C16.3855 13.7718 16.425 13.8241 15.9948 13.8326L16.1136 19.8314ZM20.6702 16.176C20.6702 15.1706 20.2353 14.054 19.1842 13.3373C18.3392 12.7612 17.4482 12.696 16.9662 12.696V18.696C16.9535 18.696 16.4145 18.7108 15.8042 18.2947C15.4609 18.0606 15.1449 17.721 14.931 17.2836C14.7239 16.86 14.6702 16.4634 14.6702 16.176H20.6702ZM16.9662 12.696C16.0279 12.696 15.1339 12.9225 14.3251 13.243L16.5353 18.821C16.8571 18.6935 16.9871 18.696 16.9662 18.696V12.696ZM14.3251 13.243C14.0512 13.3515 13.8652 13.4225 13.7529 13.4632C13.7265 13.4727 13.7088 13.4789 13.6984 13.4825C13.6869 13.4865 13.6904 13.4851 13.705 13.4806C13.7128 13.4782 13.7272 13.4738 13.747 13.4682C13.7658 13.4629 13.7972 13.4544 13.8378 13.4447C13.8753 13.4357 13.9427 13.4205 14.0295 13.4063C14.0741 13.3989 14.1345 13.3901 14.2066 13.3828C14.2761 13.3758 14.3782 13.368 14.5022 13.368V19.368C14.8911 19.368 15.2003 19.288 15.2306 19.2808C15.3339 19.2562 15.4213 19.2301 15.4754 19.2134C15.5877 19.1787 15.7006 19.1392 15.7955 19.1048C15.9925 19.0335 16.2439 18.9365 16.5353 18.821L14.3251 13.243ZM14.5022 13.368C15.2221 13.368 15.7846 13.6438 16.1395 13.9141C16.4631 14.1604 16.6319 14.4107 16.6921 14.5066C16.8037 14.6847 16.7895 14.7355 16.7164 14.4775L10.944 16.1145C11.0735 16.5711 11.2727 17.1579 11.6083 17.6934C11.8711 18.1126 12.7717 19.368 14.5022 19.368V13.368ZM16.7164 14.4775C16.6282 14.1664 16.5741 13.9422 16.5439 13.7917C16.5292 13.7178 16.5233 13.6773 16.5217 13.6645C16.5196 13.6472 16.5262 13.6902 16.5262 13.776H10.5262C10.5262 14.5396 10.7449 15.4125 10.944 16.1145L16.7164 14.4775ZM16.5262 13.776C16.5262 14.8308 15.9316 15.4338 15.7819 15.5706C15.6147 15.7234 15.537 15.7331 15.7203 15.6477L13.1881 10.2083C12.7527 10.4109 12.211 10.7059 11.7345 11.1414C11.2754 11.5609 10.5262 12.4439 10.5262 13.776H16.5262ZM15.6924 15.6606C15.7945 15.6143 16.2888 15.464 17.4622 15.464V9.464C15.9903 9.464 14.4792 9.62303 13.216 10.1954L15.6924 15.6606ZM17.4622 15.464C18.0772 15.464 18.5278 15.5148 18.8436 15.5831C19.1613 15.6519 19.2791 15.7247 19.2845 15.7281C19.2846 15.7282 19.2777 15.7237 19.2656 15.7137C19.2535 15.7035 19.2373 15.6887 19.2189 15.6688C19.18 15.6267 19.1428 15.5745 19.1133 15.5171C19.0507 15.3951 19.0702 15.3456 19.0702 15.456H25.0702C25.0702 13.5504 24.2586 11.804 22.5519 10.6959C21.0691 9.73308 19.227 9.464 17.4622 9.464V15.464Z" fill="#8E8E8E" mask="url(#path-2-outside-1_607_2387)"/>
</svg>
