<svg width="24" height="24" viewBox="0 0 24 24" fill="none" xmlns="http://www.w3.org/2000/svg">
<path d="M17.8788 9.68356V11.8729C17.4962 11.8356 16.999 11.7486 16.449 11.5472C15.7309 11.2839 15.1963 10.9241 14.8462 10.6454V15.0704L14.8373 15.0566C14.8429 15.1444 14.8462 15.2337 14.8462 15.3239C14.8462 17.5214 13.0581 19.3102 10.8599 19.3102C8.66157 19.3102 6.87354 17.5214 6.87354 15.3239C6.87354 13.1264 8.66157 11.3368 10.8599 11.3368C11.0751 11.3368 11.2864 11.3538 11.4927 11.3871V13.5448C11.2945 13.4741 11.0816 13.4359 10.8599 13.4359C9.81921 13.4359 8.9719 14.2824 8.9719 15.3239C8.9719 16.3654 9.81921 17.2118 10.8599 17.2118C11.9005 17.2118 12.7478 16.3645 12.7478 15.3239C12.7478 15.2849 12.747 15.2459 12.7446 15.2069V6.60791H14.9323C14.9404 6.79313 14.9477 6.97998 14.9559 7.1652C14.9705 7.52996 15.1005 7.8801 15.3271 8.16686C15.5928 8.504 15.9851 8.89556 16.5359 9.20832C17.0518 9.49997 17.536 9.62589 17.8788 9.68519V9.68356Z" fill="#FF004F"/>
<path d="M17.1263 7.90605V10.0946C16.7437 10.0572 16.2465 9.9703 15.6966 9.76884C14.9784 9.50563 14.4439 9.14575 14.0937 8.8671V13.2921L14.0848 13.2783C14.0905 13.366 14.0937 13.4554 14.0937 13.5456C14.0937 15.743 12.3057 17.5319 10.1074 17.5319C7.90913 17.5319 6.12109 15.743 6.12109 13.5456C6.12109 11.3481 7.90913 9.55843 10.1074 9.55843C10.3227 9.55843 10.5339 9.57549 10.7403 9.6088V11.7665C10.542 11.6958 10.3292 11.6576 10.1074 11.6576C9.06677 11.6576 8.21946 12.5041 8.21946 13.5456C8.21946 14.587 9.06677 15.4335 10.1074 15.4335C11.1481 15.4335 11.9954 14.5862 11.9954 13.5456C11.9954 13.5066 11.9946 13.4676 11.9921 13.4286V4.82959H14.1799C14.188 5.01481 14.1953 5.20166 14.2034 5.38688C14.218 5.75163 14.348 6.10177 14.5747 6.38854C14.8403 6.72568 15.2327 7.11724 15.7835 7.43C16.2993 7.72165 16.7835 7.84756 17.1263 7.90687V7.90605Z" fill="#00F7EF"/>
<path d="M17.6049 8.86325V11.0526C17.2222 11.0152 16.7251 10.9283 16.1751 10.7268C15.4569 10.4636 14.9224 10.1037 14.5723 9.8251V14.2501L14.5633 14.2363C14.569 14.324 14.5723 14.4134 14.5723 14.5036C14.5723 16.7011 12.7842 18.4899 10.5859 18.4899C8.38765 18.4899 6.59961 16.7011 6.59961 14.5036C6.59961 12.3061 8.38765 10.5164 10.5859 10.5164C10.8012 10.5164 11.0124 10.5335 11.2188 10.5668V12.7245C11.0206 12.6538 10.8077 12.6156 10.5859 12.6156C9.54528 12.6156 8.69798 13.4621 8.69798 14.5036C8.69798 15.545 9.54528 16.3915 10.5859 16.3915C11.6266 16.3915 12.4739 15.5442 12.4739 14.5036C12.4739 14.4646 12.4731 14.4256 12.4706 14.3866V5.7876H14.6584C14.6665 5.97282 14.6738 6.15966 14.6819 6.34489C14.6966 6.70964 14.8265 7.05977 15.0532 7.34654C15.3188 7.68368 15.7112 8.07525 16.262 8.38801C16.7779 8.67965 17.262 8.80557 17.6049 8.86488V8.86325Z" fill="black"/>
<path d="M12.0264 24H11.9736C5.37143 24 0 18.6286 0 12.0264V11.9736C0 5.37143 5.37143 0 11.9736 0H12.0264C18.6286 0 24 5.37143 24 11.9736V12.0264C24 18.6286 18.6286 24 12.0264 24ZM11.9736 0.812375C5.81905 0.812375 0.812375 5.81905 0.812375 11.9736V12.0264C0.812375 18.181 5.81905 23.1876 11.9736 23.1876H12.0264C18.181 23.1876 23.1876 18.181 23.1876 12.0264V11.9736C23.1876 5.81905 18.181 0.812375 12.0264 0.812375H11.9736Z" fill="black"/>
</svg>
