<svg width="36" height="36" viewBox="0 0 36 36" fill="none" xmlns="http://www.w3.org/2000/svg">
<path d="M3.75098 17.9995C3.75098 11.2825 3.75098 7.92251 5.83748 5.83601C7.92398 3.74951 11.2825 3.74951 18.001 3.74951C24.718 3.74951 28.078 3.74951 30.1645 5.83601C32.251 7.92251 32.251 11.281 32.251 17.9995C32.251 24.7165 32.251 28.0765 30.1645 30.163C28.078 32.2495 24.7195 32.2495 18.001 32.2495C11.284 32.2495 7.92398 32.2495 5.83748 30.163C3.75098 28.0765 3.75098 24.718 3.75098 17.9995Z" stroke="#2B3990" stroke-width="1.5" stroke-linecap="round" stroke-linejoin="round"/>
<path d="M15.8048 16.5117C14.5748 16.3377 11.7698 16.6242 10.3958 19.1667C9.02181 21.7092 10.4063 24.3552 11.2718 25.3602C12.1253 26.3007 14.8388 28.0812 17.7173 26.3427C18.4313 25.9122 19.3208 25.5897 20.3288 22.2222L20.2118 8.97119C20.0168 10.4307 21.6293 13.8537 26.2178 14.2587" stroke="#2B3990" stroke-width="1.5" stroke-linecap="round" stroke-linejoin="round"/>
</svg>
