<svg width="24" height="25" viewBox="0 0 24 25" fill="none" xmlns="http://www.w3.org/2000/svg">
<path d="M16.3798 7.74484L15.75 12.7834H8.25L7.62017 7.74484C7.29087 5.11038 9.34504 2.78345 12 2.78345C14.655 2.78345 16.7091 5.11038 16.3798 7.74484ZM14.3953 7.49677C14.5754 6.05602 13.452 4.78345 12 4.78345C10.548 4.78345 9.42464 6.05602 9.60473 7.49677L10.0156 10.7834H13.9844L14.3953 7.49677Z" fill="#8E8E8E"/>
<path d="M3 15.7834C8.72979 13.2369 15.2702 13.2369 21 15.7834L22 22.7834H2L3 15.7834ZM4.30602 20.7834H19.694L19.1815 17.196C14.5571 15.4327 9.44295 15.4327 4.81852 17.196L4.30602 20.7834Z" fill="#8E8E8E"/>
</svg>
