<svg width="24" height="24" viewBox="0 0 24 24" fill="none" xmlns="http://www.w3.org/2000/svg">
<g clip-path="url(#clip0_7871_55679)">
<path d="M16.1624 5.56982H18.3687L13.5499 11.0761L19.2187 18.5698H14.7812L11.303 14.0261L7.32803 18.5698H5.11865L10.2718 12.6792L4.8374 5.56982H9.3874L12.528 9.72295L16.1624 5.56982ZM15.3874 17.2511H16.6093L8.72178 6.81982H7.40928L15.3874 17.2511Z" fill="black"/>
</g>
<path d="M12.0264 24H11.9736C5.37143 24 0 18.6286 0 12.0264V11.9736C0 5.37143 5.37143 0 11.9736 0H12.0264C18.6286 0 24 5.37143 24 11.9736V12.0264C24 18.6286 18.6286 24 12.0264 24ZM11.9736 0.812375C5.81905 0.812375 0.812375 5.81905 0.812375 11.9736V12.0264C0.812375 18.181 5.81905 23.1876 11.9736 23.1876H12.0264C18.181 23.1876 23.1876 18.181 23.1876 12.0264V11.9736C23.1876 5.81905 18.181 0.812375 12.0264 0.812375H11.9736Z" fill="black"/>
<defs>
<clipPath id="clip0_7871_55679">
<rect width="14" height="16" fill="white" transform="translate(5 4.06982)"/>
</clipPath>
</defs>
</svg>
