<svg width="24" height="24" viewBox="0 0 24 24" fill="none" xmlns="http://www.w3.org/2000/svg">
<path d="M12 24C5.38294 24 0 18.6171 0 12C0 5.38293 5.38294 0 12 0C18.6171 0 24 5.38293 24 12C24 18.6171 18.6171 24 12 24ZM12 0.814609C5.8326 0.814609 0.814609 5.83259 0.814609 12C0.814609 18.1674 5.8326 23.1854 12 23.1854C18.1674 23.1854 23.1854 18.1674 23.1854 12C23.1854 5.83259 18.1674 0.814609 12 0.814609Z" fill="#FF0209"/>
<path d="M19.2995 9.5975C19.2083 8.71691 19.012 7.74345 18.2894 7.23187C17.7298 6.83516 16.9942 6.8205 16.3075 6.82132C14.8558 6.82213 13.4034 6.82375 11.9518 6.82457C10.5555 6.8262 9.15928 6.82702 7.76304 6.82865C7.17978 6.82946 6.61281 6.78385 6.0711 7.03637C5.60596 7.25306 5.24183 7.66525 5.0227 8.12387C4.71885 8.76171 4.65531 9.48427 4.61865 10.1897C4.55104 11.4744 4.55837 12.7623 4.63902 14.0461C4.69848 14.9829 4.84919 16.0182 5.57337 16.6153C6.21528 17.144 7.12113 17.1701 7.95366 17.1709C10.5962 17.1734 13.2397 17.1758 15.8831 17.1774C16.2219 17.1783 16.5755 17.1717 16.9209 17.1343C17.6003 17.0609 18.2479 16.8663 18.6845 16.3628C19.1252 15.8553 19.2384 15.1491 19.3052 14.4803C19.4682 12.8576 19.4665 11.2194 19.2995 9.5975ZM10.4236 14.2742V9.72458L14.363 11.999L10.4236 14.2742Z" fill="#FF0209"/>
</svg>
